999
DXF created from GearGenerator
0
SECTION
2
HEADER
9
$ACADVER
1
AC1006
9
$INSBASE
10
0.0
20
0.0
30
0.0
0
ENDSEC
0
SECTION
2
BLOCKS
0
ENDSEC
0
SECTION
2
TABLES
0
TABLE
2
LTYPE
0
LTYPE
72
65
2
CONTINOUS
3
______
73
0
40
0
0
LTYPE
72
65
2
DASHED
3
_ _ _ 
73
2
40
1
49
0.5
49
-0.5
0
LTYPE
72
65
2
DOTTED
3
. . . 
73
2
40
0.5
49
0
49
-0.5
0
ENDTAB
0
TABLE
2
LAYER
0
LAYER
2
gear
62
7
6
CONTINOUS
0
LAYER
2
gear_texts
62
7
6
CONTINOUS
0
LAYER
2
gear_guides
62
5
6
DOTTED
0
ENDTAB
0
ENDSEC
0
SECTION
2
ENTITIES
0
LWPOLYLINE
90
2280
70
1
43
0
10
184.6667
20
0
10
185.1936
20
0.5527
10
185.6371
20
0.6497
10
186.1033
20
0.7573
10
186.5922
20
0.8762
10
187.1034
20
1.0068
10
187.6367
20
1.1498
10
188.1919
20
1.3055
10
188.7689
20
1.4746
10
189.3673
20
1.6576
10
189.987
20
1.855
10
190.6275
20
2.0673
10
191.2888
20
2.295
10
191.9705
20
2.5387
10
192.6723
20
2.7988
10
193.394
20
3.0758
10
194.1352
20
3.3703
10
194.8956
20
3.6827
10
195.6749
20
4.0135
10
196.4728
20
4.3633
10
197.289
20
4.7324
10
198.123
20
5.1213
10
198.9745
20
5.5305
10
199.8433
20
5.9605
10
200.7288
20
6.4118
10
201.6308
20
6.8847
10
202.5488
20
7.3797
10
203.4824
20
7.8972
10
204.4313
20
8.4378
10
205.395
20
9.0017
10
206.3731
20
9.5894
10
207.3652
20
10.2014
10
208.3708
20
10.838
10
209.3896
20
11.4996
10
210.421
20
12.1866
10
211.4646
20
12.8994
10
212.5199
20
13.6384
10
212.8499
20
14.3542
10
212.3301
20
20.6647
10
211.8875
20
21.3169
10
210.7255
20
21.8733
10
209.5793
20
22.4057
10
208.4494
20
22.9147
10
207.3361
20
23.4008
10
206.2399
20
23.8642
10
205.161
20
24.3056
10
204.0999
20
24.7254
10
203.057
20
25.124
10
202.0324
20
25.502
10
201.0267
20
25.8599
10
200.0401
20
26.198
10
199.0729
20
26.5169
10
198.1255
20
26.8172
10
197.1981
20
27.0993
10
196.291
20
27.3637
10
195.4046
20
27.6109
10
194.5391
20
27.8415
10
193.6947
20
28.056
10
192.8718
20
28.2548
10
192.0705
20
28.4386
10
191.2911
20
28.6079
10
190.5339
20
28.7631
10
189.7989
20
28.9049
10
189.0866
20
29.0337
10
188.3969
20
29.1502
10
187.7302
20
29.2548
10
187.0867
20
29.3481
10
186.4664
20
29.4307
10
185.8695
20
29.5032
10
185.2963
20
29.566
10
184.7467
20
29.6197
10
184.2211
20
29.6649
10
183.7194
20
29.7022
10
183.2418
20
29.7322
10
182.7884
20
29.7553
10
182.1781
20
30.2143
10
180.6313
20
38.3944
10
181.0318
20
39.0445
10
181.4454
20
39.2316
10
181.8791
20
39.4338
10
182.3325
20
39.6518
10
182.8054
20
39.8858
10
183.2973
20
40.1365
10
183.8081
20
40.4043
10
184.3373
20
40.6897
10
184.8846
20
40.9931
10
185.4496
20
41.315
10
186.0321
20
41.6558
10
186.6315
20
42.016
10
187.2477
20
42.3961
10
187.8801
20
42.7964
10
188.5284
20
43.2175
10
189.1922
20
43.6596
10
189.871
20
44.1233
10
190.5645
20
44.6089
10
191.2723
20
45.1169
10
191.9938
20
45.6476
10
192.7287
20
46.2015
10
193.4766
20
46.7788
10
194.2369
20
47.38
10
195.0093
20
48.0055
10
195.7932
20
48.6556
10
196.5883
20
49.3307
10
197.3939
20
50.031
10
198.2097
20
50.757
10
199.0351
20
51.509
10
199.8696
20
52.2872
10
200.7128
20
53.0921
10
201.5641
20
53.9239
10
202.423
20
54.7828
10
203.289
20
55.6693
10
204.1616
20
56.5835
10
205.0403
20
57.5257
10
205.2142
20
58.2945
10
203.3938
20
64.359
10
202.8252
20
64.905
10
201.5729
20
65.2076
10
200.3411
20
65.4901
10
199.13
20
65.7531
10
197.94
20
65.997
10
196.7714
20
66.2224
10
195.6243
20
66.4299
10
194.4992
20
66.6198
10
193.3961
20
66.7929
10
192.3154
20
66.9497
10
191.2572
20
67.0906
10
190.2218
20
67.2162
10
189.2095
20
67.3271
10
188.2203
20
67.4238
10
187.2546
20
67.5069
10
186.3124
20
67.5769
10
185.3939
20
67.6345
10
184.4994
20
67.6801
10
183.6289
20
67.7143
10
182.7826
20
67.7377
10
181.9606
20
67.7509
10
181.163
20
67.7544
10
180.39
20
67.7488
10
179.6417
20
67.7346
10
178.9181
20
67.7126
10
178.2193
20
67.6831
10
177.5455
20
67.6468
10
176.8966
20
67.6043
10
176.2726
20
67.5561
10
175.6738
20
67.5029
10
175.1
20
67.4451
10
174.5513
20
67.3834
10
174.0277
20
67.3184
10
173.5292
20
67.2506
10
173.0558
20
67.1806
10
172.6075
20
67.1089
10
171.9152
20
67.431
10
168.7014
20
75.1107
10
168.958
20
75.8299
10
169.3237
20
76.0989
10
169.7058
20
76.3869
10
170.104
20
76.6943
10
170.5179
20
77.0216
10
170.947
20
77.3691
10
171.3909
20
77.7372
10
171.8492
20
78.1264
10
172.3214
20
78.5369
10
172.8072
20
78.9693
10
173.3061
20
79.4238
10
173.8176
20
79.9008
10
174.3412
20
80.4006
10
174.8766
20
80.9237
10
175.4232
20
81.4703
10
175.9805
20
82.0408
10
176.5481
20
82.6355
10
177.1255
20
83.2547
10
177.7122
20
83.8987
10
178.3076
20
84.5679
10
178.9113
20
85.2624
10
179.5228
20
85.9826
10
180.1415
20
86.7288
10
180.767
20
87.5012
10
181.3986
20
88.3001
10
182.0359
20
89.1257
10
182.6783
20
89.9782
10
183.3253
20
90.858
10
183.9763
20
91.7651
10
184.6308
20
92.6999
10
185.2883
20
93.6624
10
185.948
20
94.653
10
186.6096
20
95.6718
10
187.2724
20
96.7189
10
187.9358
20
97.7946
10
188.5994
20
98.8989
10
188.6096
20
99.6871
10
185.5681
20
105.2406
10
184.8985
20
105.6564
10
183.6106
20
105.692
10
182.347
20
105.7122
10
181.1077
20
105.7177
10
179.893
20
105.7088
10
178.7031
20
105.6864
10
177.5379
20
105.6508
10
176.3978
20
105.6027
10
175.2829
20
105.5427
10
174.1932
20
105.4713
10
173.1289
20
105.3891
10
172.09
20
105.2967
10
171.0767
20
105.1947
10
170.0891
20
105.0836
10
169.1271
20
104.9641
10
168.191
20
104.8367
10
167.2806
20
104.702
10
166.3961
20
104.5607
10
165.5376
20
104.4132
10
164.7049
20
104.2601
10
163.8981
20
104.1021
10
163.1173
20
103.9397
10
162.3623
20
103.7735
10
161.6333
20
103.6041
10
160.9301
20
103.432
10
160.2527
20
103.2579
10
159.6011
20
103.0823
10
158.9752
20
102.9058
10
158.3749
20
102.729
10
157.8002
20
102.5524
10
157.251
20
102.3766
10
156.7271
20
102.2022
10
156.2285
20
102.0297
10
155.755
20
101.8598
10
155.3065
20
101.6928
10
154.8829
20
101.5295
10
154.1387
20
101.7007
10
149.3985
20
108.5443
10
149.4999
20
109.3012
10
149.8017
20
109.6403
10
150.1156
20
110.0015
10
150.4412
20
110.385
10
150.778
20
110.7911
10
151.1254
20
111.2203
10
151.4831
20
111.6726
10
151.8505
20
112.1486
10
152.2271
20
112.6484
10
152.6123
20
113.1723
10
153.0058
20
113.7205
10
153.4069
20
114.2935
10
153.8152
20
114.8913
10
154.2301
20
115.5142
10
154.6511
20
116.1625
10
155.0777
20
116.8364
10
155.5092
20
117.5361
10
155.9453
20
118.2619
10
156.3852
20
119.0138
10
156.8285
20
119.7921
10
157.2746
20
120.597
10
157.723
20
121.4286
10
158.1731
20
122.2871
10
158.6243
20
123.1727
10
159.076
20
124.0854
10
159.5277
20
125.0255
10
159.9788
20
125.9929
10
160.4288
20
126.988
10
160.877
20
128.0107
10
161.3228
20
129.0611
10
161.7657
20
130.1393
10
162.2051
20
131.2454
10
162.6404
20
132.3795
10
163.071
20
133.5415
10
163.4964
20
134.7316
10
163.9158
20
135.9498
10
163.7619
20
136.7228
10
159.6323
20
141.5226
10
158.8908
20
141.7901
10
157.6237
20
141.5572
10
156.3835
20
141.3142
10
155.1702
20
141.0619
10
153.9838
20
140.8007
10
152.8245
20
140.5313
10
151.6923
20
140.2543
10
150.5871
20
139.9702
10
149.509
20
139.6797
10
148.4579
20
139.3833
10
147.434
20
139.0816
10
146.437
20
138.7752
10
145.4671
20
138.4648
10
144.5241
20
138.1508
10
143.608
20
137.8339
10
142.7188
20
137.5147
10
141.8564
20
137.1937
10
141.0206
20
136.8715
10
140.2114
20
136.5487
10
139.4288
20
136.2258
10
138.6725
20
135.9035
10
137.9425
20
135.5823
10
137.2386
20
135.2628
10
136.5607
20
134.9455
10
135.9087
20
134.6311
10
135.2823
20
134.3199
10
134.6814
20
134.0127
10
134.1059
20
133.7099
10
133.5555
20
133.4121
10
133.0301
20
133.1199
10
132.5294
20
132.8338
10
132.0532
20
132.5542
10
131.6013
20
132.2819
10
131.1735
20
132.0172
10
130.7696
20
131.7606
10
130.3892
20
131.5129
10
129.6257
20
131.5255
10
123.5661
20
137.2341
10
123.508
20
137.9954
10
123.7327
20
138.3899
10
123.9646
20
138.8085
10
124.2034
20
139.2513
10
124.4483
20
139.7186
10
124.699
20
140.2106
10
124.9548
20
140.7274
10
125.2152
20
141.2694
10
125.4796
20
141.8365
10
125.7476
20
142.4291
10
126.0184
20
143.0472
10
126.2917
20
143.691
10
126.5668
20
144.3606
10
126.8431
20
145.0562
10
127.1201
20
145.7779
10
127.3972
20
146.5257
10
127.6738
20
147.2999
10
127.9494
20
148.1004
10
128.2234
20
148.9274
10
128.4953
20
149.7808
10
128.7643
20
150.6609
10
129.03
20
151.5675
10
129.2917
20
152.5009
10
129.5489
20
153.4609
10
129.801
20
154.4476
10
130.0474
20
155.461
10
130.2875
20
156.5012
10
130.5208
20
157.568
10
130.7465
20
158.6615
10
130.9642
20
159.7817
10
131.1733
20
160.9284
10
131.3731
20
162.1017
10
131.5631
20
163.3015
10
131.7427
20
164.5277
10
131.9113
20
165.7802
10
132.0683
20
167.059
10
131.7571
20
167.7831
10
126.7197
20
171.6194
10
125.9389
20
171.7269
10
124.7479
20
171.2356
10
123.5852
20
170.7401
10
122.4509
20
170.241
10
121.3448
20
169.7389
10
120.2668
20
169.2344
10
119.2169
20
168.728
10
118.195
20
168.2203
10
117.2008
20
167.712
10
116.2344
20
167.2035
10
115.2955
20
166.6956
10
114.384
20
166.1886
10
113.4998
20
165.6833
10
112.6427
20
165.1801
10
111.8126
20
164.6797
10
111.0092
20
164.1825
10
110.2323
20
163.6892
10
109.4818
20
163.2003
10
108.7574
20
162.7163
10
108.059
20
162.2378
10
107.3862
20
161.7654
10
106.739
20
161.2994
10
106.1169
20
160.8405
10
105.5198
20
160.3892
10
104.9474
20
159.946
10
104.3994
20
159.5115
10
103.8755
20
159.086
10
103.3755
20
158.6702
10
102.8991
20
158.2645
10
102.4459
20
157.8694
10
102.0156
20
157.4854
10
101.608
20
157.113
10
101.2226
20
156.7526
10
100.8592
20
156.4048
10
100.5174
20
156.0699
10
100.1968
20
155.7484
10
99.4474
20
155.6021
10
92.3333
20
159.926
10
92.1182
20
160.6587
10
92.2559
20
161.0913
10
92.3958
20
161.5489
10
92.5373
20
162.0317
10
92.6797
20
162.5397
10
92.8226
20
163.073
10
92.9654
20
163.6318
10
93.1074
20
164.216
10
93.2481
20
164.8257
10
93.387
20
165.461
10
93.5235
20
166.1219
10
93.6569
20
166.8085
10
93.7867
20
167.5207
10
93.9124
20
168.2585
10
94.0333
20
169.022
10
94.1488
20
169.8112
10
94.2585
20
170.6259
10
94.3616
20
171.4662
10
94.4577
20
172.3321
10
94.5461
20
173.2234
10
94.6263
20
174.1402
10
94.6977
20
175.0823
10
94.7597
20
176.0496
10
94.8116
20
177.0421
10
94.8531
20
178.0597
10
94.8834
20
179.1022
10
94.902
20
180.1695
10
94.9083
20
181.2616
10
94.9018
20
182.3781
10
94.8819
20
183.519
10
94.8479
20
184.6842
10
94.7995
20
185.8734
10
94.7359
20
187.0865
10
94.6566
20
188.3232
10
94.5611
20
189.5834
10
94.4488
20
190.8669
10
93.9938
20
191.5105
10
88.2689
20
194.2156
10
87.4828
20
194.1584
10
86.4199
20
193.4302
10
85.3857
20
192.7039
10
84.38
20
191.9798
10
83.4024
20
191.2587
10
82.4529
20
190.5411
10
81.5312
20
189.8275
10
80.6371
20
189.1184
10
79.7704
20
188.4145
10
78.9308
20
187.7162
10
78.1181
20
187.0241
10
77.3319
20
186.3388
10
76.5721
20
185.6607
10
75.8384
20
184.9903
10
75.1304
20
184.3282
10
74.4479
20
183.6749
10
73.7906
20
183.0308
10
73.1581
20
182.3966
10
72.5502
20
181.7725
10
71.9665
20
181.1593
10
71.4067
20
180.5572
10
70.8704
20
179.9669
10
70.3574
20
179.3887
10
69.8671
20
178.8231
10
69.3994
20
178.2706
10
68.9537
20
177.7316
10
68.5297
20
177.2065
10
68.1271
20
176.6959
10
67.7454
20
176.2
10
67.3843
20
175.7193
10
67.0433
20
175.2542
10
66.7219
20
174.8052
10
66.4199
20
174.3726
10
66.1368
20
173.9568
10
65.8721
20
173.5581
10
65.6253
20
173.177
10
64.9227
20
172.878
10
57.0651
20
175.6284
10
56.7024
20
176.3003
10
56.7472
20
176.7521
10
56.7888
20
177.2288
10
56.8268
20
177.7305
10
56.8605
20
178.257
10
56.8894
20
178.8084
10
56.9129
20
179.3846
10
56.9303
20
179.9856
10
56.9412
20
180.6113
10
56.945
20
181.2616
10
56.941
20
181.9364
10
56.9288
20
182.6357
10
56.9077
20
183.3593
10
56.8772
20
184.1072
10
56.8368
20
184.8791
10
56.7857
20
185.675
10
56.7236
20
186.4948
10
56.6498
20
187.3382
10
56.5637
20
188.2051
10
56.4649
20
189.0953
10
56.3527
20
190.0087
10
56.2267
20
190.9451
10
56.0862
20
191.9042
10
55.9307
20
192.8858
10
55.7596
20
193.8897
10
55.5725
20
194.9158
10
55.3688
20
195.9636
10
55.148
20
197.0331
10
54.9094
20
198.1239
10
54.6527
20
199.2358
10
54.3773
20
200.3684
10
54.0826
20
201.5215
10
53.7682
20
202.6949
10
53.4335
20
203.8881
10
53.0781
20
205.1009
10
52.7014
20
206.333
10
52.1225
20
206.868
10
45.9603
20
208.3237
10
45.2033
20
208.1043
10
44.315
20
207.171
10
43.4545
20
206.2455
10
42.6212
20
205.3282
10
41.815
20
204.4196
10
41.0354
20
203.5202
10
40.2822
20
202.6306
10
39.5551
20
201.7511
10
38.8537
20
200.8824
10
38.1776
20
200.0248
10
37.5265
20
199.1789
10
36.9
20
198.345
10
36.2978
20
197.5238
10
35.7195
20
196.7155
10
35.1646
20
195.9207
10
34.6329
20
195.1397
10
34.1238
20
194.3731
10
33.637
20
193.6212
10
33.1722
20
192.8844
10
32.7287
20
192.1632
10
32.3063
20
191.4579
10
31.9045
20
190.769
10
31.5229
20
190.0968
10
31.1609
20
189.4416
10
30.8183
20
188.8039
10
30.4944
20
188.184
10
30.1889
20
187.5823
10
29.9012
20
186.9991
10
29.631
20
186.4346
10
29.3777
20
185.8894
10
29.1408
20
185.3636
10
28.9199
20
184.8576
10
28.7144
20
184.3716
10
28.5239
20
183.906
10
28.3478
20
183.461
10
28.1857
20
183.037
10
27.5606
20
182.5984
10
19.3029
20
183.655
10
18.8084
20
184.2368
10
18.7583
20
184.6881
10
18.6999
20
185.163
10
18.6328
20
185.6616
10
18.5563
20
186.1836
10
18.4699
20
186.729
10
18.373
20
187.2975
10
18.2652
20
187.8889
10
18.1457
20
188.5032
10
18.0142
20
189.1401
10
17.87
20
189.7994
10
17.7127
20
190.4808
10
17.5416
20
191.1842
10
17.3563
20
191.9094
10
17.1562
20
192.6561
10
16.9408
20
193.424
10
16.7096
20
194.2129
10
16.4621
20
195.0225
10
16.1976
20
195.8526
10
15.9159
20
196.7029
10
15.6163
20
197.573
10
15.2983
20
198.4626
10
14.9614
20
199.3716
10
14.6052
20
200.2994
10
14.2292
20
201.2459
10
13.8329
20
202.2106
10
13.4157
20
203.1932
10
12.9774
20
204.1934
10
12.5173
20
205.2107
10
12.035
20
206.2449
10
11.5301
20
207.2956
10
11.0021
20
208.3622
10
10.4506
20
209.4446
10
9.8751
20
210.5421
10
9.2753
20
211.6545
10
8.6507
20
212.7813
10
7.9733
20
213.1843
10
1.6431
20
213.327
10
0.9481
20
212.955
10
0.2734
20
211.8575
10
-0.376
20
210.7732
10
-1.0003
20
209.7027
10
-1.6
20
208.6464
10
-2.1756
20
207.6046
10
-2.7273
20
206.5778
10
-3.2557
20
205.5664
10
-3.7612
20
204.5708
10
-4.2442
20
203.5914
10
-4.7052
20
202.6285
10
-5.1446
20
201.6827
10
-5.5629
20
200.7541
10
-5.9605
20
199.8433
10
-6.338
20
198.9505
10
-6.6958
20
198.076
10
-7.0343
20
197.2203
10
-7.3541
20
196.3836
10
-7.6557
20
195.5663
10
-7.9395
20
194.7687
10
-8.206
20
193.991
10
-8.4558
20
193.2335
10
-8.6893
20
192.4967
10
-8.9071
20
191.7806
10
-9.1097
20
191.0856
10
-9.2976
20
190.4119
10
-9.4714
20
189.7598
10
-9.6315
20
189.1295
10
-9.7785
20
188.5212
10
-9.9129
20
187.9352
10
-10.0353
20
187.3717
10
-10.1461
20
186.8308
10
-10.2461
20
186.3127
10
-10.3356
20
185.8177
10
-10.4153
20
185.3458
10
-10.4857
20
184.8973
10
-11.006
20
184.3384
10
-19.3029
20
183.655
10
-19.9076
20
184.1213
10
-20.0505
20
184.5522
10
-20.2063
20
185.0047
10
-20.3756
20
185.4784
10
-20.559
20
185.9731
10
-20.7569
20
186.4886
10
-20.9698
20
187.0245
10
-21.1983
20
187.5807
10
-21.4428
20
188.1567
10
-21.7039
20
188.7523
10
-21.982
20
189.3672
10
-22.2776
20
190.001
10
-22.5911
20
190.6535
10
-22.9232
20
191.3243
10
-23.2741
20
192.0131
10
-23.6445
20
192.7194
10
-24.0347
20
193.443
10
-24.4451
20
194.1835
10
-24.8764
20
194.9404
10
-25.3287
20
195.7135
10
-25.8027
20
196.5023
10
-26.2987
20
197.3064
10
-26.8172
20
198.1255
10
-27.3585
20
198.959
10
-27.9231
20
199.8066
10
-28.5114
20
200.6678
10
-29.1237
20
201.5422
10
-29.7604
20
202.4294
10
-30.422
20
203.3289
10
-31.1087
20
204.2402
10
-31.8211
20
205.1629
10
-32.5593
20
206.0965
10
-33.3237
20
207.0405
10
-34.1148
20
207.9944
10
-34.9328
20
208.9578
10
-35.7781
20
209.9301
10
-36.5245
20
210.1834
10
-42.746
20
209.0069
10
-43.3484
20
208.4985
10
-43.7802
20
207.2847
10
-44.19
20
206.0892
10
-44.5781
20
204.9122
10
-44.9451
20
203.7543
10
-45.2914
20
202.6156
10
-45.6176
20
201.4965
10
-45.9242
20
200.3973
10
-46.2116
20
199.3184
10
-46.4805
20
198.26
10
-46.7312
20
197.2224
10
-46.9644
20
196.2058
10
-47.1805
20
195.2106
10
-47.38
20
194.2369
10
-47.5636
20
193.2852
10
-47.7318
20
192.3555
10
-47.885
20
191.448
10
-48.0239
20
190.5632
10
-48.1489
20
189.701
10
-48.2606
20
188.8618
10
-48.3597
20
188.0457
10
-48.4465
20
187.2529
10
-48.5217
20
186.4835
10
-48.5859
20
185.7378
10
-48.6396
20
185.0159
10
-48.6833
20
184.3179
10
-48.7177
20
183.6439
10
-48.7432
20
182.9941
10
-48.7605
20
182.3685
10
-48.7702
20
181.7674
10
-48.7727
20
181.1907
10
-48.7687
20
180.6386
10
-48.7588
20
180.111
10
-48.7434
20
179.6082
10
-48.7233
20
179.1301
10
-48.6989
20
178.6768
10
-49.0916
20
178.0219
10
-57.0651
20
175.6284
10
-57.7536
20
175.9588
10
-57.9829
20
176.3506
10
-58.2294
20
176.7608
10
-58.4935
20
177.1889
10
-58.7757
20
177.6347
10
-59.0764
20
178.0978
10
-59.3961
20
178.5777
10
-59.7353
20
179.0742
10
-60.0942
20
179.5868
10
-60.4734
20
180.1151
10
-60.8733
20
180.6587
10
-61.2942
20
181.2173
10
-61.7366
20
181.7903
10
-62.2008
20
182.3774
10
-62.6873
20
182.9782
10
-63.1964
20
183.5921
10
-63.7285
20
184.2187
10
-64.284
20
184.8577
10
-64.8631
20
185.5084
10
-65.4664
20
186.1706
10
-66.094
20
186.8436
10
-66.7464
20
187.527
10
-67.4238
20
188.2203
10
-68.1266
20
188.9231
10
-68.855
20
189.6348
10
-69.6095
20
190.3549
10
-70.3902
20
191.0829
10
-71.1975
20
191.8183
10
-72.0316
20
192.5606
10
-72.8929
20
193.3092
10
-73.7815
20
194.0636
10
-74.6976
20
194.8233
10
-75.6417
20
195.5878
10
-76.6138
20
196.3564
10
-77.6142
20
197.1286
10
-78.6432
20
197.904
10
-79.4259
20
197.9965
10
-85.2669
20
195.5522
10
-85.7504
20
194.9297
10
-85.9205
20
193.6526
10
-86.0727
20
192.398
10
-86.2076
20
191.1661
10
-86.3258
20
189.9571
10
-86.4279
20
188.7713
10
-86.5143
20
187.6089
10
-86.5856
20
186.47
10
-86.6424
20
185.3549
10
-86.6853
20
184.2637
10
-86.7148
20
183.1966
10
-86.7316
20
182.1538
10
-86.736
20
181.1354
10
-86.7288
20
180.1415
10
-86.7105
20
179.1724
10
-86.6817
20
178.228
10
-86.6429
20
177.3086
10
-86.5947
20
176.4142
10
-86.5378
20
175.5449
10
-86.4726
20
174.7008
10
-86.3998
20
173.8819
10
-86.3199
20
173.0884
10
-86.2335
20
172.3202
10
-86.1413
20
171.5774
10
-86.0437
20
170.8601
10
-85.9413
20
170.1682
10
-85.8348
20
169.5018
10
-85.7247
20
168.8609
10
-85.6116
20
168.2455
10
-85.496
20
167.6554
10
-85.3786
20
167.0908
10
-85.2599
20
166.5516
10
-85.1405
20
166.0377
10
-85.0209
20
165.549
10
-84.9018
20
165.0855
10
-84.7837
20
164.6472
10
-85.0316
20
163.925
10
-92.3333
20
159.926
10
-93.0754
20
160.106
10
-93.3812
20
160.4416
10
-93.7075
20
160.7916
10
-94.0549
20
161.1555
10
-94.4236
20
161.5328
10
-94.8141
20
161.9232
10
-95.2266
20
162.3262
10
-95.6615
20
162.7413
10
-96.1192
20
163.1681
10
-96.5999
20
163.606
10
-97.1041
20
164.0547
10
-97.6319
20
164.5135
10
-98.1838
20
164.982
10
-98.76
20
165.4598
10
-99.3607
20
165.9462
10
-99.9864
20
166.4409
10
-100.6371
20
166.9432
10
-101.3133
20
167.4527
10
-102.0151
20
167.9688
10
-102.7428
20
168.4911
10
-103.4967
20
169.0189
10
-104.2769
20
169.5517
10
-105.0836
20
170.0891
10
-105.9172
20
170.6304
10
-106.7777
20
171.175
10
-107.6654
20
171.7225
10
-108.5804
20
172.2723
10
-109.5229
20
172.8238
10
-110.4932
20
173.3764
10
-111.4912
20
173.9296
10
-112.5172
20
174.4828
10
-113.5714
20
175.0355
10
-114.6537
20
175.5869
10
-115.7644
20
176.1366
10
-116.9035
20
176.684
10
-118.0712
20
177.2285
10
-118.8561
20
177.1563
10
-124.0612
20
173.5509
10
-124.4047
20
172.8415
10
-124.3055
20
171.557
10
-124.1936
20
170.2981
10
-124.0694
20
169.0651
10
-123.9337
20
167.858
10
-123.787
20
166.6769
10
-123.6298
20
165.5219
10
-123.4628
20
164.393
10
-123.2865
20
163.2905
10
-123.1016
20
162.2142
10
-122.9086
20
161.1643
10
-122.7082
20
160.1408
10
-122.5008
20
159.1437
10
-122.2871
20
158.1731
10
-122.0677
20
157.2289
10
-121.8432
20
156.3112
10
-121.6141
20
155.4199
10
-121.381
20
154.555
10
-121.1446
20
153.7166
10
-120.9053
20
152.9045
10
-120.6638
20
152.1186
10
-120.4207
20
151.359
10
-120.1765
20
150.6256
10
-119.9318
20
149.9183
10
-119.6872
20
149.2369
10
-119.4432
20
148.5814
10
-119.2005
20
147.9518
10
-118.9595
20
147.3477
10
-118.7209
20
146.7692
10
-118.4852
20
146.2161
10
-118.253
20
145.6883
10
-118.0248
20
145.1855
10
-117.8011
20
144.7076
10
-117.5826
20
144.2545
10
-117.3697
20
143.8259
10
-117.163
20
143.4217
10
-117.2554
20
142.6637
10
-123.5661
20
137.2341
10
-124.3294
20
137.2559
10
-124.6982
20
137.5205
10
-125.0902
20
137.795
10
-125.5057
20
138.0787
10
-125.9448
20
138.3712
10
-126.4079
20
138.6719
10
-126.8952
20
138.9803
10
-127.4069
20
139.2959
10
-127.9433
20
139.6182
10
-128.5046
20
139.9466
10
-129.091
20
140.2806
10
-129.7027
20
140.6196
10
-130.3399
20
140.9632
10
-131.0029
20
141.3107
10
-131.6916
20
141.6616
10
-132.4064
20
142.0154
10
-133.1474
20
142.3715
10
-133.9147
20
142.7292
10
-134.7085
20
143.0882
10
-135.5289
20
143.4477
10
-136.376
20
143.8073
10
-137.2499
20
144.1662
10
-138.1508
20
144.5241
10
-139.0787
20
144.8803
10
-140.0336
20
145.2341
10
-141.0157
20
145.5851
10
-142.0251
20
145.9326
10
-143.0617
20
146.2761
10
-144.1256
20
146.6149
10
-145.2169
20
146.9485
10
-146.3355
20
147.2763
10
-147.4815
20
147.5977
10
-148.6548
20
147.9121
10
-149.8555
20
148.2188
10
-151.0836
20
148.5174
10
-152.3389
20
148.8072
10
-153.0916
20
148.5734
10
-157.4334
20
143.9647
10
-157.622
20
143.1993
10
-157.2579
20
141.9635
10
-156.8866
20
140.7554
10
-156.5088
20
139.5751
10
-156.1251
20
138.4226
10
-155.736
20
137.2978
10
-155.3421
20
136.2007
10
-154.9441
20
135.1313
10
-154.5424
20
134.0895
10
-154.1378
20
133.0752
10
-153.7307
20
132.0883
10
-153.3218
20
131.1289
10
-152.9117
20
130.1967
10
-152.5009
20
129.2917
10
-152.09
20
128.4138
10
-151.6795
20
127.5628
10
-151.2701
20
126.7386
10
-150.8623
20
125.9411
10
-150.4567
20
125.1701
10
-150.0538
20
124.4255
10
-149.6543
20
123.7071
10
-149.2585
20
123.0146
10
-148.8672
20
122.348
10
-148.4808
20
121.707
10
-148.0999
20
121.0914
10
-147.7249
20
120.5009
10
-147.3566
20
119.9355
10
-146.9953
20
119.3948
10
-146.6416
20
118.8785
10
-146.2961
20
118.3865
10
-145.9592
20
117.9185
10
-145.6314
20
117.4741
10
-145.3133
20
117.0532
10
-145.0053
20
116.6554
10
-144.708
20
116.2805
10
-144.4218
20
115.9281
10
-144.3546
20
115.1674
10
-149.3985
20
108.5443
10
-150.1496
20
108.4069
10
-150.5654
20
108.5892
10
-151.0059
20
108.7761
10
-151.4713
20
108.9673
10
-151.9616
20
109.162
10
-152.4771
20
109.3599
10
-153.0178
20
109.5603
10
-153.584
20
109.7626
10
-154.1757
20
109.9663
10
-154.793
20
110.1708
10
-155.436
20
110.3756
10
-156.1049
20
110.5801
10
-156.7996
20
110.7836
10
-157.5203
20
110.9857
10
-158.267
20
111.1858
10
-159.0397
20
111.3832
10
-159.8385
20
111.5774
10
-160.6634
20
111.7678
10
-161.5145
20
111.9539
10
-162.3917
20
112.135
10
-163.2951
20
112.3106
10
-164.2245
20
112.48
10
-165.1801
20
112.6427
10
-166.1618
20
112.7982
10
-167.1694
20
112.9458
10
-168.2031
20
113.0849
10
-169.2626
20
113.215
10
-170.348
20
113.3354
10
-171.4591
20
113.4456
10
-172.5959
20
113.5451
10
-173.7582
20
113.6331
10
-174.9459
20
113.7092
10
-176.159
20
113.7728
10
-177.3973
20
113.8232
10
-178.6605
20
113.8599
10
-179.9487
20
113.8824
10
-180.6364
20
113.4972
10
-183.9251
20
108.0864
10
-183.9504
20
107.2986
10
-183.3373
20
106.1655
10
-182.723
20
105.061
10
-182.108
20
103.9851
10
-181.4931
20
102.9375
10
-180.8786
20
101.9182
10
-180.2652
20
100.927
10
-179.6535
20
99.9637
10
-179.0441
20
99.0281
10
-178.4374
20
98.1201
10
-177.834
20
97.2395
10
-177.2346
20
96.386
10
-176.6396
20
95.5595
10
-176.0496
20
94.7597
10
-175.4652
20
93.9863
10
-174.8868
20
93.2393
10
-174.3149
20
92.5183
10
-173.7503
20
91.823
10
-173.1932
20
91.1532
10
-172.6443
20
90.5086
10
-172.1041
20
89.8889
10
-171.573
20
89.2939
10
-171.0517
20
88.7232
10
-170.5404
20
88.1765
10
-170.0398
20
87.6535
10
-169.5504
20
87.154
10
-169.0725
20
86.6774
10
-168.6067
20
86.2236
10
-168.1534
20
85.7922
10
-167.7131
20
85.3828
10
-167.2862
20
84.995
10
-166.8733
20
84.6286
10
-166.4746
20
84.283
10
-166.0906
20
83.9579
10
-165.7218
20
83.653
10
-165.3686
20
83.3678
10
-165.1447
20
82.6377
10
-168.7014
20
75.1107
10
-169.4075
20
74.8201
10
-169.8522
20
74.9119
10
-170.3219
20
75.0032
10
-170.8168
20
75.0934
10
-171.3369
20
75.182
10
-171.8823
20
75.2683
10
-172.4529
20
75.3519
10
-173.0488
20
75.4321
10
-173.6699
20
75.5083
10
-174.3162
20
75.58
10
-174.9878
20
75.6467
10
-175.6845
20
75.7076
10
-176.4064
20
75.7623
10
-177.1533
20
75.8101
10
-177.9253
20
75.8505
10
-178.7222
20
75.883
10
-179.5439
20
75.9069
10
-180.3904
20
75.9216
10
-181.2616
20
75.9267
10
-182.1573
20
75.9214
10
-183.0774
20
75.9053
10
-184.0218
20
75.8778
10
-184.9903
20
75.8384
10
-185.9828
20
75.7863
10
-186.9991
20
75.7212
10
-188.0391
20
75.6423
10
-189.1025
20
75.5493
10
-190.1892
20
75.4414
10
-191.299
20
75.3182
10
-192.4316
20
75.1791
10
-193.5868
20
75.0236
10
-194.7644
20
74.8511
10
-195.9642
20
74.661
10
-197.1859
20
74.4529
10
-198.4292
20
74.2262
10
-199.6939
20
73.9803
10
-200.2864
20
73.4606
10
-202.3783
20
67.4843
10
-202.2392
20
66.7085
10
-201.404
20
65.7276
10
-200.5735
20
64.7749
10
-199.7483
20
63.8504
10
-198.9289
20
62.9536
10
-198.116
20
62.0843
10
-197.3099
20
61.2422
10
-196.5113
20
60.4272
10
-195.7206
20
59.6387
10
-194.9384
20
58.8767
10
-194.1652
20
58.1408
10
-193.4014
20
57.4306
10
-192.6475
20
56.7458
10
-191.9042
20
56.0862
10
-191.1717
20
55.4513
10
-190.4506
20
54.8408
10
-189.7414
20
54.2544
10
-189.0445
20
53.6917
10
-188.3603
20
53.1523
10
-187.6894
20
52.636
10
-187.0322
20
52.1421
10
-186.389
20
51.6705
10
-185.7603
20
51.2207
10
-185.1466
20
50.7923
10
-184.5482
20
50.3848
10
-183.9656
20
49.9979
10
-183.3991
20
49.6312
10
-182.8491
20
49.2842
10
-182.3161
20
48.9564
10
-181.8003
20
48.6475
10
-181.3021
20
48.3569
10
-180.8219
20
48.0843
10
-180.3601
20
47.8292
10
-179.917
20
47.591
10
-179.4929
20
47.3694
10
-179.0881
20
47.1639
10
-178.7173
20
46.4964
10
-180.6313
20
38.3944
10
-181.2616
20
37.9633
10
-181.7155
20
37.9607
10
-182.194
20
37.9523
10
-182.6969
20
37.9376
10
-183.224
20
37.9161
10
-183.7754
20
37.8872
10
-184.3509
20
37.8503
10
-184.9504
20
37.8049
10
-185.5738
20
37.7503
10
-186.221
20
37.6861
10
-186.8917
20
37.6116
10
-187.5859
20
37.5263
10
-188.3033
20
37.4297
10
-189.0439
20
37.3212
10
-189.8074
20
37.2003
10
-190.5936
20
37.0663
10
-191.4024
20
36.9188
10
-192.2334
20
36.7573
10
-193.0866
20
36.5811
10
-193.9616
20
36.3897
10
-194.8583
20
36.1827
10
-195.7763
20
35.9595
10
-196.7155
20
35.7195
10
-197.6755
20
35.4622
10
-198.6561
20
35.1872
10
-199.6569
20
34.8938
10
-200.6777
20
34.5817
10
-201.7183
20
34.2503
10
-202.7782
20
33.899
10
-203.8571
20
33.5275
10
-204.9547
20
33.1352
10
-206.0708
20
32.7216
10
-207.2048
20
32.2863
10
-208.3565
20
31.8287
10
-209.5255
20
31.3484
10
-210.7114
20
30.845
10
-211.183
20
30.2134
10
-211.9866
20
23.9328
10
-211.6893
20
23.2028
10
-210.6683
20
22.417
10
-209.6579
20
21.6579
10
-208.6585
20
20.9251
10
-207.6706
20
20.2182
10
-206.6947
20
19.537
10
-205.7312
20
18.8809
10
-204.7806
20
18.2497
10
-203.8433
20
17.6429
10
-202.9197
20
17.0602
10
-202.0103
20
16.501
10
-201.1156
20
15.9652
10
-200.2359
20
15.4521
10
-199.3716
20
14.9614
10
-198.5231
20
14.4927
10
-197.6908
20
14.0455
10
-196.8752
20
13.6194
10
-196.0765
20
13.2139
10
-195.2952
20
12.8285
10
-194.5316
20
12.4629
10
-193.786
20
12.1165
10
-193.0589
20
11.789
10
-192.3504
20
11.4797
10
-191.661
20
11.1882
10
-190.991
20
10.9141
10
-190.3407
20
10.6568
10
-189.7103
20
10.4158
10
-189.1002
20
10.1907
10
-188.5106
20
9.9809
10
-187.9419
20
9.786
10
-187.3942
20
9.6054
10
-186.8678
20
9.4386
10
-186.3631
20
9.285
10
-185.8801
20
9.1442
10
-185.4192
20
9.0156
10
-184.9805
20
8.8988
10
-184.479
20
8.3229
10
-184.6667
20
0
10
-185.1936
20
-0.5527
10
-185.6371
20
-0.6497
10
-186.1033
20
-0.7573
10
-186.5922
20
-0.8762
10
-187.1034
20
-1.0068
10
-187.6367
20
-1.1498
10
-188.1919
20
-1.3055
10
-188.7689
20
-1.4746
10
-189.3673
20
-1.6576
10
-189.987
20
-1.855
10
-190.6275
20
-2.0673
10
-191.2888
20
-2.295
10
-191.9705
20
-2.5387
10
-192.6723
20
-2.7988
10
-193.394
20
-3.0758
10
-194.1352
20
-3.3703
10
-194.8956
20
-3.6827
10
-195.6749
20
-4.0135
10
-196.4728
20
-4.3633
10
-197.289
20
-4.7324
10
-198.123
20
-5.1213
10
-198.9745
20
-5.5305
10
-199.8433
20
-5.9605
10
-200.7288
20
-6.4118
10
-201.6308
20
-6.8847
10
-202.5488
20
-7.3797
10
-203.4824
20
-7.8972
10
-204.4313
20
-8.4378
10
-205.395
20
-9.0017
10
-206.3731
20
-9.5894
10
-207.3652
20
-10.2014
10
-208.3708
20
-10.838
10
-209.3896
20
-11.4996
10
-210.421
20
-12.1866
10
-211.4646
20
-12.8994
10
-212.5199
20
-13.6384
10
-212.8499
20
-14.3542
10
-212.3301
20
-20.6647
10
-211.8875
20
-21.3169
10
-210.7255
20
-21.8733
10
-209.5793
20
-22.4057
10
-208.4494
20
-22.9147
10
-207.3361
20
-23.4008
10
-206.2399
20
-23.8642
10
-205.161
20
-24.3056
10
-204.0999
20
-24.7254
10
-203.057
20
-25.124
10
-202.0324
20
-25.502
10
-201.0267
20
-25.8599
10
-200.0401
20
-26.198
10
-199.0729
20
-26.5169
10
-198.1255
20
-26.8172
10
-197.1981
20
-27.0993
10
-196.291
20
-27.3637
10
-195.4046
20
-27.6109
10
-194.5391
20
-27.8415
10
-193.6947
20
-28.056
10
-192.8718
20
-28.2548
10
-192.0705
20
-28.4386
10
-191.2911
20
-28.6079
10
-190.5339
20
-28.7631
10
-189.7989
20
-28.9049
10
-189.0866
20
-29.0337
10
-188.3969
20
-29.1502
10
-187.7302
20
-29.2548
10
-187.0867
20
-29.3481
10
-186.4664
20
-29.4307
10
-185.8695
20
-29.5032
10
-185.2963
20
-29.566
10
-184.7467
20
-29.6197
10
-184.2211
20
-29.6649
10
-183.7194
20
-29.7022
10
-183.2418
20
-29.7322
10
-182.7884
20
-29.7553
10
-182.1781
20
-30.2143
10
-180.6313
20
-38.3944
10
-181.0318
20
-39.0445
10
-181.4454
20
-39.2316
10
-181.8791
20
-39.4338
10
-182.3325
20
-39.6518
10
-182.8054
20
-39.8858
10
-183.2973
20
-40.1365
10
-183.8081
20
-40.4043
10
-184.3373
20
-40.6897
10
-184.8846
20
-40.9931
10
-185.4496
20
-41.315
10
-186.0321
20
-41.6558
10
-186.6315
20
-42.016
10
-187.2477
20
-42.3961
10
-187.8801
20
-42.7964
10
-188.5284
20
-43.2175
10
-189.1922
20
-43.6596
10
-189.871
20
-44.1233
10
-190.5645
20
-44.6089
10
-191.2723
20
-45.1169
10
-191.9938
20
-45.6476
10
-192.7287
20
-46.2015
10
-193.4766
20
-46.7788
10
-194.2369
20
-47.38
10
-195.0093
20
-48.0055
10
-195.7932
20
-48.6556
10
-196.5883
20
-49.3307
10
-197.3939
20
-50.031
10
-198.2097
20
-50.757
10
-199.0351
20
-51.509
10
-199.8696
20
-52.2872
10
-200.7128
20
-53.0921
10
-201.5641
20
-53.9239
10
-202.423
20
-54.7828
10
-203.289
20
-55.6693
10
-204.1616
20
-56.5835
10
-205.0403
20
-57.5257
10
-205.2142
20
-58.2945
10
-203.3938
20
-64.359
10
-202.8252
20
-64.905
10
-201.5729
20
-65.2076
10
-200.3411
20
-65.4901
10
-199.13
20
-65.7531
10
-197.94
20
-65.997
10
-196.7714
20
-66.2224
10
-195.6243
20
-66.4299
10
-194.4992
20
-66.6198
10
-193.3961
20
-66.7929
10
-192.3154
20
-66.9497
10
-191.2572
20
-67.0906
10
-190.2218
20
-67.2162
10
-189.2095
20
-67.3271
10
-188.2203
20
-67.4238
10
-187.2546
20
-67.5069
10
-186.3124
20
-67.5769
10
-185.3939
20
-67.6345
10
-184.4994
20
-67.6801
10
-183.6289
20
-67.7143
10
-182.7826
20
-67.7377
10
-181.9606
20
-67.7509
10
-181.163
20
-67.7544
10
-180.39
20
-67.7488
10
-179.6417
20
-67.7346
10
-178.9181
20
-67.7126
10
-178.2193
20
-67.6831
10
-177.5455
20
-67.6468
10
-176.8966
20
-67.6043
10
-176.2726
20
-67.5561
10
-175.6738
20
-67.5029
10
-175.1
20
-67.4451
10
-174.5513
20
-67.3834
10
-174.0277
20
-67.3184
10
-173.5292
20
-67.2506
10
-173.0558
20
-67.1806
10
-172.6075
20
-67.1089
10
-171.9152
20
-67.431
10
-168.7014
20
-75.1107
10
-168.958
20
-75.8299
10
-169.3237
20
-76.0989
10
-169.7058
20
-76.3869
10
-170.104
20
-76.6943
10
-170.5179
20
-77.0216
10
-170.947
20
-77.3691
10
-171.3909
20
-77.7372
10
-171.8492
20
-78.1264
10
-172.3214
20
-78.5369
10
-172.8072
20
-78.9693
10
-173.3061
20
-79.4238
10
-173.8176
20
-79.9008
10
-174.3412
20
-80.4006
10
-174.8766
20
-80.9237
10
-175.4232
20
-81.4703
10
-175.9805
20
-82.0408
10
-176.5481
20
-82.6355
10
-177.1255
20
-83.2547
10
-177.7122
20
-83.8987
10
-178.3076
20
-84.5679
10
-178.9113
20
-85.2624
10
-179.5228
20
-85.9826
10
-180.1415
20
-86.7288
10
-180.767
20
-87.5012
10
-181.3986
20
-88.3001
10
-182.0359
20
-89.1257
10
-182.6783
20
-89.9782
10
-183.3253
20
-90.858
10
-183.9763
20
-91.7651
10
-184.6308
20
-92.6999
10
-185.2883
20
-93.6624
10
-185.948
20
-94.653
10
-186.6096
20
-95.6718
10
-187.2724
20
-96.7189
10
-187.9358
20
-97.7946
10
-188.5994
20
-98.8989
10
-188.6096
20
-99.6871
10
-185.5681
20
-105.2406
10
-184.8985
20
-105.6564
10
-183.6106
20
-105.692
10
-182.347
20
-105.7122
10
-181.1077
20
-105.7177
10
-179.893
20
-105.7088
10
-178.7031
20
-105.6864
10
-177.5379
20
-105.6508
10
-176.3978
20
-105.6027
10
-175.2829
20
-105.5427
10
-174.1932
20
-105.4713
10
-173.1289
20
-105.3891
10
-172.09
20
-105.2967
10
-171.0767
20
-105.1947
10
-170.0891
20
-105.0836
10
-169.1271
20
-104.9641
10
-168.191
20
-104.8367
10
-167.2806
20
-104.702
10
-166.3961
20
-104.5607
10
-165.5376
20
-104.4132
10
-164.7049
20
-104.2601
10
-163.8981
20
-104.1021
10
-163.1173
20
-103.9397
10
-162.3623
20
-103.7735
10
-161.6333
20
-103.6041
10
-160.9301
20
-103.432
10
-160.2527
20
-103.2579
10
-159.6011
20
-103.0823
10
-158.9752
20
-102.9058
10
-158.3749
20
-102.729
10
-157.8002
20
-102.5524
10
-157.251
20
-102.3766
10
-156.7271
20
-102.2022
10
-156.2285
20
-102.0297
10
-155.755
20
-101.8598
10
-155.3065
20
-101.6928
10
-154.8829
20
-101.5295
10
-154.1387
20
-101.7007
10
-149.3985
20
-108.5443
10
-149.4999
20
-109.3012
10
-149.8017
20
-109.6403
10
-150.1156
20
-110.0015
10
-150.4412
20
-110.385
10
-150.778
20
-110.7911
10
-151.1254
20
-111.2203
10
-151.4831
20
-111.6726
10
-151.8505
20
-112.1486
10
-152.2271
20
-112.6484
10
-152.6123
20
-113.1723
10
-153.0058
20
-113.7205
10
-153.4069
20
-114.2935
10
-153.8152
20
-114.8913
10
-154.2301
20
-115.5142
10
-154.6511
20
-116.1625
10
-155.0777
20
-116.8364
10
-155.5092
20
-117.5361
10
-155.9453
20
-118.2619
10
-156.3852
20
-119.0138
10
-156.8285
20
-119.7921
10
-157.2746
20
-120.597
10
-157.723
20
-121.4286
10
-158.1731
20
-122.2871
10
-158.6243
20
-123.1727
10
-159.076
20
-124.0854
10
-159.5277
20
-125.0255
10
-159.9788
20
-125.9929
10
-160.4288
20
-126.988
10
-160.877
20
-128.0107
10
-161.3228
20
-129.0611
10
-161.7657
20
-130.1393
10
-162.2051
20
-131.2454
10
-162.6404
20
-132.3795
10
-163.071
20
-133.5415
10
-163.4964
20
-134.7316
10
-163.9158
20
-135.9498
10
-163.7619
20
-136.7228
10
-159.6323
20
-141.5226
10
-158.8908
20
-141.7901
10
-157.6237
20
-141.5572
10
-156.3835
20
-141.3142
10
-155.1702
20
-141.0619
10
-153.9838
20
-140.8007
10
-152.8245
20
-140.5313
10
-151.6923
20
-140.2543
10
-150.5871
20
-139.9702
10
-149.509
20
-139.6797
10
-148.4579
20
-139.3833
10
-147.434
20
-139.0816
10
-146.437
20
-138.7752
10
-145.4671
20
-138.4648
10
-144.5241
20
-138.1508
10
-143.608
20
-137.8339
10
-142.7188
20
-137.5147
10
-141.8564
20
-137.1937
10
-141.0206
20
-136.8715
10
-140.2114
20
-136.5487
10
-139.4288
20
-136.2258
10
-138.6725
20
-135.9035
10
-137.9425
20
-135.5823
10
-137.2386
20
-135.2628
10
-136.5607
20
-134.9455
10
-135.9087
20
-134.6311
10
-135.2823
20
-134.3199
10
-134.6814
20
-134.0127
10
-134.1059
20
-133.7099
10
-133.5555
20
-133.4121
10
-133.0301
20
-133.1199
10
-132.5294
20
-132.8338
10
-132.0532
20
-132.5542
10
-131.6013
20
-132.2819
10
-131.1735
20
-132.0172
10
-130.7696
20
-131.7606
10
-130.3892
20
-131.5129
10
-129.6257
20
-131.5255
10
-123.5661
20
-137.2341
10
-123.508
20
-137.9954
10
-123.7327
20
-138.3899
10
-123.9646
20
-138.8085
10
-124.2034
20
-139.2513
10
-124.4483
20
-139.7186
10
-124.699
20
-140.2106
10
-124.9548
20
-140.7274
10
-125.2152
20
-141.2694
10
-125.4796
20
-141.8365
10
-125.7476
20
-142.4291
10
-126.0184
20
-143.0472
10
-126.2917
20
-143.691
10
-126.5668
20
-144.3606
10
-126.8431
20
-145.0562
10
-127.1201
20
-145.7779
10
-127.3972
20
-146.5257
10
-127.6738
20
-147.2999
10
-127.9494
20
-148.1004
10
-128.2234
20
-148.9274
10
-128.4953
20
-149.7808
10
-128.7643
20
-150.6609
10
-129.03
20
-151.5675
10
-129.2917
20
-152.5009
10
-129.5489
20
-153.4609
10
-129.801
20
-154.4476
10
-130.0474
20
-155.461
10
-130.2875
20
-156.5012
10
-130.5208
20
-157.568
10
-130.7465
20
-158.6615
10
-130.9642
20
-159.7817
10
-131.1733
20
-160.9284
10
-131.3731
20
-162.1017
10
-131.5631
20
-163.3015
10
-131.7427
20
-164.5277
10
-131.9113
20
-165.7802
10
-132.0683
20
-167.059
10
-131.7571
20
-167.7831
10
-126.7197
20
-171.6194
10
-125.9389
20
-171.7269
10
-124.7479
20
-171.2356
10
-123.5852
20
-170.7401
10
-122.4509
20
-170.241
10
-121.3448
20
-169.7389
10
-120.2668
20
-169.2344
10
-119.2169
20
-168.728
10
-118.195
20
-168.2203
10
-117.2008
20
-167.712
10
-116.2344
20
-167.2035
10
-115.2955
20
-166.6956
10
-114.384
20
-166.1886
10
-113.4998
20
-165.6833
10
-112.6427
20
-165.1801
10
-111.8126
20
-164.6797
10
-111.0092
20
-164.1825
10
-110.2323
20
-163.6892
10
-109.4818
20
-163.2003
10
-108.7574
20
-162.7163
10
-108.059
20
-162.2378
10
-107.3862
20
-161.7654
10
-106.739
20
-161.2994
10
-106.1169
20
-160.8405
10
-105.5198
20
-160.3892
10
-104.9474
20
-159.946
10
-104.3994
20
-159.5115
10
-103.8755
20
-159.086
10
-103.3755
20
-158.6702
10
-102.8991
20
-158.2645
10
-102.4459
20
-157.8694
10
-102.0156
20
-157.4854
10
-101.608
20
-157.113
10
-101.2226
20
-156.7526
10
-100.8592
20
-156.4048
10
-100.5174
20
-156.0699
10
-100.1968
20
-155.7484
10
-99.4474
20
-155.6021
10
-92.3333
20
-159.926
10
-92.1182
20
-160.6587
10
-92.2559
20
-161.0913
10
-92.3958
20
-161.5489
10
-92.5373
20
-162.0317
10
-92.6797
20
-162.5397
10
-92.8226
20
-163.073
10
-92.9654
20
-163.6318
10
-93.1074
20
-164.216
10
-93.2481
20
-164.8257
10
-93.387
20
-165.461
10
-93.5235
20
-166.1219
10
-93.6569
20
-166.8085
10
-93.7867
20
-167.5207
10
-93.9124
20
-168.2585
10
-94.0333
20
-169.022
10
-94.1488
20
-169.8112
10
-94.2585
20
-170.6259
10
-94.3616
20
-171.4662
10
-94.4577
20
-172.3321
10
-94.5461
20
-173.2234
10
-94.6263
20
-174.1402
10
-94.6977
20
-175.0823
10
-94.7597
20
-176.0496
10
-94.8116
20
-177.0421
10
-94.8531
20
-178.0597
10
-94.8834
20
-179.1022
10
-94.902
20
-180.1695
10
-94.9083
20
-181.2616
10
-94.9018
20
-182.3781
10
-94.8819
20
-183.519
10
-94.8479
20
-184.6842
10
-94.7995
20
-185.8734
10
-94.7359
20
-187.0865
10
-94.6566
20
-188.3232
10
-94.5611
20
-189.5834
10
-94.4488
20
-190.8669
10
-93.9938
20
-191.5105
10
-88.2689
20
-194.2156
10
-87.4828
20
-194.1584
10
-86.4199
20
-193.4302
10
-85.3857
20
-192.7039
10
-84.38
20
-191.9798
10
-83.4024
20
-191.2587
10
-82.4529
20
-190.5411
10
-81.5312
20
-189.8275
10
-80.6371
20
-189.1184
10
-79.7704
20
-188.4145
10
-78.9308
20
-187.7162
10
-78.1181
20
-187.0241
10
-77.3319
20
-186.3388
10
-76.5721
20
-185.6607
10
-75.8384
20
-184.9903
10
-75.1304
20
-184.3282
10
-74.4479
20
-183.6749
10
-73.7906
20
-183.0308
10
-73.1581
20
-182.3966
10
-72.5502
20
-181.7725
10
-71.9665
20
-181.1593
10
-71.4067
20
-180.5572
10
-70.8704
20
-179.9669
10
-70.3574
20
-179.3887
10
-69.8671
20
-178.8231
10
-69.3994
20
-178.2706
10
-68.9537
20
-177.7316
10
-68.5297
20
-177.2065
10
-68.1271
20
-176.6959
10
-67.7454
20
-176.2
10
-67.3843
20
-175.7193
10
-67.0433
20
-175.2542
10
-66.7219
20
-174.8052
10
-66.4199
20
-174.3726
10
-66.1368
20
-173.9568
10
-65.8721
20
-173.5581
10
-65.6253
20
-173.177
10
-64.9227
20
-172.878
10
-57.0651
20
-175.6284
10
-56.7024
20
-176.3003
10
-56.7472
20
-176.7521
10
-56.7888
20
-177.2288
10
-56.8268
20
-177.7305
10
-56.8605
20
-178.257
10
-56.8894
20
-178.8084
10
-56.9129
20
-179.3846
10
-56.9303
20
-179.9856
10
-56.9412
20
-180.6113
10
-56.945
20
-181.2616
10
-56.941
20
-181.9364
10
-56.9288
20
-182.6357
10
-56.9077
20
-183.3593
10
-56.8772
20
-184.1072
10
-56.8368
20
-184.8791
10
-56.7857
20
-185.675
10
-56.7236
20
-186.4948
10
-56.6498
20
-187.3382
10
-56.5637
20
-188.2051
10
-56.4649
20
-189.0953
10
-56.3527
20
-190.0087
10
-56.2267
20
-190.9451
10
-56.0862
20
-191.9042
10
-55.9307
20
-192.8858
10
-55.7596
20
-193.8897
10
-55.5725
20
-194.9158
10
-55.3688
20
-195.9636
10
-55.148
20
-197.0331
10
-54.9094
20
-198.1239
10
-54.6527
20
-199.2358
10
-54.3773
20
-200.3684
10
-54.0826
20
-201.5215
10
-53.7682
20
-202.6949
10
-53.4335
20
-203.8881
10
-53.0781
20
-205.1009
10
-52.7014
20
-206.333
10
-52.1225
20
-206.868
10
-45.9603
20
-208.3237
10
-45.2033
20
-208.1043
10
-44.315
20
-207.171
10
-43.4545
20
-206.2455
10
-42.6212
20
-205.3282
10
-41.815
20
-204.4196
10
-41.0354
20
-203.5202
10
-40.2822
20
-202.6306
10
-39.5551
20
-201.7511
10
-38.8537
20
-200.8824
10
-38.1776
20
-200.0248
10
-37.5265
20
-199.1789
10
-36.9
20
-198.345
10
-36.2978
20
-197.5238
10
-35.7195
20
-196.7155
10
-35.1646
20
-195.9207
10
-34.6329
20
-195.1397
10
-34.1238
20
-194.3731
10
-33.637
20
-193.6212
10
-33.1722
20
-192.8844
10
-32.7287
20
-192.1632
10
-32.3063
20
-191.4579
10
-31.9045
20
-190.769
10
-31.5229
20
-190.0968
10
-31.1609
20
-189.4416
10
-30.8183
20
-188.8039
10
-30.4944
20
-188.184
10
-30.1889
20
-187.5823
10
-29.9012
20
-186.9991
10
-29.631
20
-186.4346
10
-29.3777
20
-185.8894
10
-29.1408
20
-185.3636
10
-28.9199
20
-184.8576
10
-28.7144
20
-184.3716
10
-28.5239
20
-183.906
10
-28.3478
20
-183.461
10
-28.1857
20
-183.037
10
-27.5606
20
-182.5984
10
-19.3029
20
-183.655
10
-18.8084
20
-184.2368
10
-18.7583
20
-184.6881
10
-18.6999
20
-185.163
10
-18.6328
20
-185.6616
10
-18.5563
20
-186.1836
10
-18.4699
20
-186.729
10
-18.373
20
-187.2975
10
-18.2652
20
-187.8889
10
-18.1457
20
-188.5032
10
-18.0142
20
-189.1401
10
-17.87
20
-189.7994
10
-17.7127
20
-190.4808
10
-17.5416
20
-191.1842
10
-17.3563
20
-191.9094
10
-17.1562
20
-192.6561
10
-16.9408
20
-193.424
10
-16.7096
20
-194.2129
10
-16.4621
20
-195.0225
10
-16.1976
20
-195.8526
10
-15.9159
20
-196.7029
10
-15.6163
20
-197.573
10
-15.2983
20
-198.4626
10
-14.9614
20
-199.3716
10
-14.6052
20
-200.2994
10
-14.2292
20
-201.2459
10
-13.8329
20
-202.2106
10
-13.4157
20
-203.1932
10
-12.9774
20
-204.1934
10
-12.5173
20
-205.2107
10
-12.035
20
-206.2449
10
-11.5301
20
-207.2956
10
-11.0021
20
-208.3622
10
-10.4506
20
-209.4446
10
-9.8751
20
-210.5421
10
-9.2753
20
-211.6545
10
-8.6507
20
-212.7813
10
-7.9733
20
-213.1843
10
-1.6431
20
-213.327
10
-0.9481
20
-212.955
10
-0.2734
20
-211.8575
10
0.376
20
-210.7732
10
1.0003
20
-209.7027
10
1.6
20
-208.6464
10
2.1756
20
-207.6046
10
2.7273
20
-206.5778
10
3.2557
20
-205.5664
10
3.7612
20
-204.5708
10
4.2442
20
-203.5914
10
4.7052
20
-202.6285
10
5.1446
20
-201.6827
10
5.5629
20
-200.7541
10
5.9605
20
-199.8433
10
6.338
20
-198.9505
10
6.6958
20
-198.076
10
7.0343
20
-197.2203
10
7.3541
20
-196.3836
10
7.6557
20
-195.5663
10
7.9395
20
-194.7687
10
8.206
20
-193.991
10
8.4558
20
-193.2335
10
8.6893
20
-192.4967
10
8.9071
20
-191.7806
10
9.1097
20
-191.0856
10
9.2976
20
-190.4119
10
9.4714
20
-189.7598
10
9.6315
20
-189.1295
10
9.7785
20
-188.5212
10
9.9129
20
-187.9352
10
10.0353
20
-187.3717
10
10.1461
20
-186.8308
10
10.2461
20
-186.3127
10
10.3356
20
-185.8177
10
10.4153
20
-185.3458
10
10.4857
20
-184.8973
10
11.006
20
-184.3384
10
19.3029
20
-183.655
10
19.9076
20
-184.1213
10
20.0505
20
-184.5522
10
20.2063
20
-185.0047
10
20.3756
20
-185.4784
10
20.559
20
-185.9731
10
20.7569
20
-186.4886
10
20.9698
20
-187.0245
10
21.1983
20
-187.5807
10
21.4428
20
-188.1567
10
21.7039
20
-188.7523
10
21.982
20
-189.3672
10
22.2776
20
-190.001
10
22.5911
20
-190.6535
10
22.9232
20
-191.3243
10
23.2741
20
-192.0131
10
23.6445
20
-192.7194
10
24.0347
20
-193.443
10
24.4451
20
-194.1835
10
24.8764
20
-194.9404
10
25.3287
20
-195.7135
10
25.8027
20
-196.5023
10
26.2987
20
-197.3064
10
26.8172
20
-198.1255
10
27.3585
20
-198.959
10
27.9231
20
-199.8066
10
28.5114
20
-200.6678
10
29.1237
20
-201.5422
10
29.7604
20
-202.4294
10
30.422
20
-203.3289
10
31.1087
20
-204.2402
10
31.8211
20
-205.1629
10
32.5593
20
-206.0965
10
33.3237
20
-207.0405
10
34.1148
20
-207.9944
10
34.9328
20
-208.9578
10
35.7781
20
-209.9301
10
36.5245
20
-210.1834
10
42.746
20
-209.0069
10
43.3484
20
-208.4985
10
43.7802
20
-207.2847
10
44.19
20
-206.0892
10
44.5781
20
-204.9122
10
44.9451
20
-203.7543
10
45.2914
20
-202.6156
10
45.6176
20
-201.4965
10
45.9242
20
-200.3973
10
46.2116
20
-199.3184
10
46.4805
20
-198.26
10
46.7312
20
-197.2224
10
46.9644
20
-196.2058
10
47.1805
20
-195.2106
10
47.38
20
-194.2369
10
47.5636
20
-193.2852
10
47.7318
20
-192.3555
10
47.885
20
-191.448
10
48.0239
20
-190.5632
10
48.1489
20
-189.701
10
48.2606
20
-188.8618
10
48.3597
20
-188.0457
10
48.4465
20
-187.2529
10
48.5217
20
-186.4835
10
48.5859
20
-185.7378
10
48.6396
20
-185.0159
10
48.6833
20
-184.3179
10
48.7177
20
-183.6439
10
48.7432
20
-182.9941
10
48.7605
20
-182.3685
10
48.7702
20
-181.7674
10
48.7727
20
-181.1907
10
48.7687
20
-180.6386
10
48.7588
20
-180.111
10
48.7434
20
-179.6082
10
48.7233
20
-179.1301
10
48.6989
20
-178.6768
10
49.0916
20
-178.0219
10
57.0651
20
-175.6284
10
57.7536
20
-175.9588
10
57.9829
20
-176.3506
10
58.2294
20
-176.7608
10
58.4935
20
-177.1889
10
58.7757
20
-177.6347
10
59.0764
20
-178.0978
10
59.3961
20
-178.5777
10
59.7353
20
-179.0742
10
60.0942
20
-179.5868
10
60.4734
20
-180.1151
10
60.8733
20
-180.6587
10
61.2942
20
-181.2173
10
61.7366
20
-181.7903
10
62.2008
20
-182.3774
10
62.6873
20
-182.9782
10
63.1964
20
-183.5921
10
63.7285
20
-184.2187
10
64.284
20
-184.8577
10
64.8631
20
-185.5084
10
65.4664
20
-186.1706
10
66.094
20
-186.8436
10
66.7464
20
-187.527
10
67.4238
20
-188.2203
10
68.1266
20
-188.9231
10
68.855
20
-189.6348
10
69.6095
20
-190.3549
10
70.3902
20
-191.0829
10
71.1975
20
-191.8183
10
72.0316
20
-192.5606
10
72.8929
20
-193.3092
10
73.7815
20
-194.0636
10
74.6976
20
-194.8233
10
75.6417
20
-195.5878
10
76.6138
20
-196.3564
10
77.6142
20
-197.1286
10
78.6432
20
-197.904
10
79.4259
20
-197.9965
10
85.2669
20
-195.5522
10
85.7504
20
-194.9297
10
85.9205
20
-193.6526
10
86.0727
20
-192.398
10
86.2076
20
-191.1661
10
86.3258
20
-189.9571
10
86.4279
20
-188.7713
10
86.5143
20
-187.6089
10
86.5856
20
-186.47
10
86.6424
20
-185.3549
10
86.6853
20
-184.2637
10
86.7148
20
-183.1966
10
86.7316
20
-182.1538
10
86.736
20
-181.1354
10
86.7288
20
-180.1415
10
86.7105
20
-179.1724
10
86.6817
20
-178.228
10
86.6429
20
-177.3086
10
86.5947
20
-176.4142
10
86.5378
20
-175.5449
10
86.4726
20
-174.7008
10
86.3998
20
-173.8819
10
86.3199
20
-173.0884
10
86.2335
20
-172.3202
10
86.1413
20
-171.5774
10
86.0437
20
-170.8601
10
85.9413
20
-170.1682
10
85.8348
20
-169.5018
10
85.7247
20
-168.8609
10
85.6116
20
-168.2455
10
85.496
20
-167.6554
10
85.3786
20
-167.0908
10
85.2599
20
-166.5516
10
85.1405
20
-166.0377
10
85.0209
20
-165.549
10
84.9018
20
-165.0855
10
84.7837
20
-164.6472
10
85.0316
20
-163.925
10
92.3333
20
-159.926
10
93.0754
20
-160.106
10
93.3812
20
-160.4416
10
93.7075
20
-160.7916
10
94.0549
20
-161.1555
10
94.4236
20
-161.5328
10
94.8141
20
-161.9232
10
95.2266
20
-162.3262
10
95.6615
20
-162.7413
10
96.1192
20
-163.1681
10
96.5999
20
-163.606
10
97.1041
20
-164.0547
10
97.6319
20
-164.5135
10
98.1838
20
-164.982
10
98.76
20
-165.4598
10
99.3607
20
-165.9462
10
99.9864
20
-166.4409
10
100.6371
20
-166.9432
10
101.3133
20
-167.4527
10
102.0151
20
-167.9688
10
102.7428
20
-168.4911
10
103.4967
20
-169.0189
10
104.2769
20
-169.5517
10
105.0836
20
-170.0891
10
105.9172
20
-170.6304
10
106.7777
20
-171.175
10
107.6654
20
-171.7225
10
108.5804
20
-172.2723
10
109.5229
20
-172.8238
10
110.4932
20
-173.3764
10
111.4912
20
-173.9296
10
112.5172
20
-174.4828
10
113.5714
20
-175.0355
10
114.6537
20
-175.5869
10
115.7644
20
-176.1366
10
116.9035
20
-176.684
10
118.0712
20
-177.2285
10
118.8561
20
-177.1563
10
124.0612
20
-173.5509
10
124.4047
20
-172.8415
10
124.3055
20
-171.557
10
124.1936
20
-170.2981
10
124.0694
20
-169.0651
10
123.9337
20
-167.858
10
123.787
20
-166.6769
10
123.6298
20
-165.5219
10
123.4628
20
-164.393
10
123.2865
20
-163.2905
10
123.1016
20
-162.2142
10
122.9086
20
-161.1643
10
122.7082
20
-160.1408
10
122.5008
20
-159.1437
10
122.2871
20
-158.1731
10
122.0677
20
-157.2289
10
121.8432
20
-156.3112
10
121.6141
20
-155.4199
10
121.381
20
-154.555
10
121.1446
20
-153.7166
10
120.9053
20
-152.9045
10
120.6638
20
-152.1186
10
120.4207
20
-151.359
10
120.1765
20
-150.6256
10
119.9318
20
-149.9183
10
119.6872
20
-149.2369
10
119.4432
20
-148.5814
10
119.2005
20
-147.9518
10
118.9595
20
-147.3477
10
118.7209
20
-146.7692
10
118.4852
20
-146.2161
10
118.253
20
-145.6883
10
118.0248
20
-145.1855
10
117.8011
20
-144.7076
10
117.5826
20
-144.2545
10
117.3697
20
-143.8259
10
117.163
20
-143.4217
10
117.2554
20
-142.6637
10
123.5661
20
-137.2341
10
124.3294
20
-137.2559
10
124.6982
20
-137.5205
10
125.0902
20
-137.795
10
125.5057
20
-138.0787
10
125.9448
20
-138.3712
10
126.4079
20
-138.6719
10
126.8952
20
-138.9803
10
127.4069
20
-139.2959
10
127.9433
20
-139.6182
10
128.5046
20
-139.9466
10
129.091
20
-140.2806
10
129.7027
20
-140.6196
10
130.3399
20
-140.9632
10
131.0029
20
-141.3107
10
131.6916
20
-141.6616
10
132.4064
20
-142.0154
10
133.1474
20
-142.3715
10
133.9147
20
-142.7292
10
134.7085
20
-143.0882
10
135.5289
20
-143.4477
10
136.376
20
-143.8073
10
137.2499
20
-144.1662
10
138.1508
20
-144.5241
10
139.0787
20
-144.8803
10
140.0336
20
-145.2341
10
141.0157
20
-145.5851
10
142.0251
20
-145.9326
10
143.0617
20
-146.2761
10
144.1256
20
-146.6149
10
145.2169
20
-146.9485
10
146.3355
20
-147.2763
10
147.4815
20
-147.5977
10
148.6548
20
-147.9121
10
149.8555
20
-148.2188
10
151.0836
20
-148.5174
10
152.3389
20
-148.8072
10
153.0916
20
-148.5734
10
157.4334
20
-143.9647
10
157.622
20
-143.1993
10
157.2579
20
-141.9635
10
156.8866
20
-140.7554
10
156.5088
20
-139.5751
10
156.1251
20
-138.4226
10
155.736
20
-137.2978
10
155.3421
20
-136.2007
10
154.9441
20
-135.1313
10
154.5424
20
-134.0895
10
154.1378
20
-133.0752
10
153.7307
20
-132.0883
10
153.3218
20
-131.1289
10
152.9117
20
-130.1967
10
152.5009
20
-129.2917
10
152.09
20
-128.4138
10
151.6795
20
-127.5628
10
151.2701
20
-126.7386
10
150.8623
20
-125.9411
10
150.4567
20
-125.1701
10
150.0538
20
-124.4255
10
149.6543
20
-123.7071
10
149.2585
20
-123.0146
10
148.8672
20
-122.348
10
148.4808
20
-121.707
10
148.0999
20
-121.0914
10
147.7249
20
-120.5009
10
147.3566
20
-119.9355
10
146.9953
20
-119.3948
10
146.6416
20
-118.8785
10
146.2961
20
-118.3865
10
145.9592
20
-117.9185
10
145.6314
20
-117.4741
10
145.3133
20
-117.0532
10
145.0053
20
-116.6554
10
144.708
20
-116.2805
10
144.4218
20
-115.9281
10
144.3546
20
-115.1674
10
149.3985
20
-108.5443
10
150.1496
20
-108.4069
10
150.5654
20
-108.5892
10
151.0059
20
-108.7761
10
151.4713
20
-108.9673
10
151.9616
20
-109.162
10
152.4771
20
-109.3599
10
153.0178
20
-109.5603
10
153.584
20
-109.7626
10
154.1757
20
-109.9663
10
154.793
20
-110.1708
10
155.436
20
-110.3756
10
156.1049
20
-110.5801
10
156.7996
20
-110.7836
10
157.5203
20
-110.9857
10
158.267
20
-111.1858
10
159.0397
20
-111.3832
10
159.8385
20
-111.5774
10
160.6634
20
-111.7678
10
161.5145
20
-111.9539
10
162.3917
20
-112.135
10
163.2951
20
-112.3106
10
164.2245
20
-112.48
10
165.1801
20
-112.6427
10
166.1618
20
-112.7982
10
167.1694
20
-112.9458
10
168.2031
20
-113.0849
10
169.2626
20
-113.215
10
170.348
20
-113.3354
10
171.4591
20
-113.4456
10
172.5959
20
-113.5451
10
173.7582
20
-113.6331
10
174.9459
20
-113.7092
10
176.159
20
-113.7728
10
177.3973
20
-113.8232
10
178.6605
20
-113.8599
10
179.9487
20
-113.8824
10
180.6364
20
-113.4972
10
183.9251
20
-108.0864
10
183.9504
20
-107.2986
10
183.3373
20
-106.1655
10
182.723
20
-105.061
10
182.108
20
-103.9851
10
181.4931
20
-102.9375
10
180.8786
20
-101.9182
10
180.2652
20
-100.927
10
179.6535
20
-99.9637
10
179.0441
20
-99.0281
10
178.4374
20
-98.1201
10
177.834
20
-97.2395
10
177.2346
20
-96.386
10
176.6396
20
-95.5595
10
176.0496
20
-94.7597
10
175.4652
20
-93.9863
10
174.8868
20
-93.2393
10
174.3149
20
-92.5183
10
173.7503
20
-91.823
10
173.1932
20
-91.1532
10
172.6443
20
-90.5086
10
172.1041
20
-89.8889
10
171.573
20
-89.2939
10
171.0517
20
-88.7232
10
170.5404
20
-88.1765
10
170.0398
20
-87.6535
10
169.5504
20
-87.154
10
169.0725
20
-86.6774
10
168.6067
20
-86.2236
10
168.1534
20
-85.7922
10
167.7131
20
-85.3828
10
167.2862
20
-84.995
10
166.8733
20
-84.6286
10
166.4746
20
-84.283
10
166.0906
20
-83.9579
10
165.7218
20
-83.653
10
165.3686
20
-83.3678
10
165.1447
20
-82.6377
10
168.7014
20
-75.1107
10
169.4075
20
-74.8201
10
169.8522
20
-74.9119
10
170.3219
20
-75.0032
10
170.8168
20
-75.0934
10
171.3369
20
-75.182
10
171.8823
20
-75.2683
10
172.4529
20
-75.3519
10
173.0488
20
-75.4321
10
173.6699
20
-75.5083
10
174.3162
20
-75.58
10
174.9878
20
-75.6467
10
175.6845
20
-75.7076
10
176.4064
20
-75.7623
10
177.1533
20
-75.8101
10
177.9253
20
-75.8505
10
178.7222
20
-75.883
10
179.5439
20
-75.9069
10
180.3904
20
-75.9216
10
181.2616
20
-75.9267
10
182.1573
20
-75.9214
10
183.0774
20
-75.9053
10
184.0218
20
-75.8778
10
184.9903
20
-75.8384
10
185.9828
20
-75.7863
10
186.9991
20
-75.7212
10
188.0391
20
-75.6423
10
189.1025
20
-75.5493
10
190.1892
20
-75.4414
10
191.299
20
-75.3182
10
192.4316
20
-75.1791
10
193.5868
20
-75.0236
10
194.7644
20
-74.8511
10
195.9642
20
-74.661
10
197.1859
20
-74.4529
10
198.4292
20
-74.2262
10
199.6939
20
-73.9803
10
200.2864
20
-73.4606
10
202.3783
20
-67.4843
10
202.2392
20
-66.7085
10
201.404
20
-65.7276
10
200.5735
20
-64.7749
10
199.7483
20
-63.8504
10
198.9289
20
-62.9536
10
198.116
20
-62.0843
10
197.3099
20
-61.2422
10
196.5113
20
-60.4272
10
195.7206
20
-59.6387
10
194.9384
20
-58.8767
10
194.1652
20
-58.1408
10
193.4014
20
-57.4306
10
192.6475
20
-56.7458
10
191.9042
20
-56.0862
10
191.1717
20
-55.4513
10
190.4506
20
-54.8408
10
189.7414
20
-54.2544
10
189.0445
20
-53.6917
10
188.3603
20
-53.1523
10
187.6894
20
-52.636
10
187.0322
20
-52.1421
10
186.389
20
-51.6705
10
185.7603
20
-51.2207
10
185.1466
20
-50.7923
10
184.5482
20
-50.3848
10
183.9656
20
-49.9979
10
183.3991
20
-49.6312
10
182.8491
20
-49.2842
10
182.3161
20
-48.9564
10
181.8003
20
-48.6475
10
181.3021
20
-48.3569
10
180.8219
20
-48.0843
10
180.3601
20
-47.8292
10
179.917
20
-47.591
10
179.4929
20
-47.3694
10
179.0881
20
-47.1639
10
178.7173
20
-46.4964
10
180.6313
20
-38.3944
10
181.2616
20
-37.9633
10
181.7155
20
-37.9607
10
182.194
20
-37.9523
10
182.6969
20
-37.9376
10
183.224
20
-37.9161
10
183.7754
20
-37.8872
10
184.3509
20
-37.8503
10
184.9504
20
-37.8049
10
185.5738
20
-37.7503
10
186.221
20
-37.6861
10
186.8917
20
-37.6116
10
187.5859
20
-37.5263
10
188.3033
20
-37.4297
10
189.0439
20
-37.3212
10
189.8074
20
-37.2003
10
190.5936
20
-37.0663
10
191.4024
20
-36.9188
10
192.2334
20
-36.7573
10
193.0866
20
-36.5811
10
193.9616
20
-36.3897
10
194.8583
20
-36.1827
10
195.7763
20
-35.9595
10
196.7155
20
-35.7195
10
197.6755
20
-35.4622
10
198.6561
20
-35.1872
10
199.6569
20
-34.8938
10
200.6777
20
-34.5817
10
201.7183
20
-34.2503
10
202.7782
20
-33.899
10
203.8571
20
-33.5275
10
204.9547
20
-33.1352
10
206.0708
20
-32.7216
10
207.2048
20
-32.2863
10
208.3565
20
-31.8287
10
209.5255
20
-31.3484
10
210.7114
20
-30.845
10
211.183
20
-30.2134
10
211.9866
20
-23.9328
10
211.6893
20
-23.2028
10
210.6683
20
-22.417
10
209.6579
20
-21.6579
10
208.6585
20
-20.9251
10
207.6706
20
-20.2182
10
206.6947
20
-19.537
10
205.7312
20
-18.8809
10
204.7806
20
-18.2497
10
203.8433
20
-17.6429
10
202.9197
20
-17.0602
10
202.0103
20
-16.501
10
201.1156
20
-15.9652
10
200.2359
20
-15.4521
10
199.3716
20
-14.9614
10
198.5231
20
-14.4927
10
197.6908
20
-14.0455
10
196.8752
20
-13.6194
10
196.0765
20
-13.2139
10
195.2952
20
-12.8285
10
194.5316
20
-12.4629
10
193.786
20
-12.1165
10
193.0589
20
-11.789
10
192.3504
20
-11.4797
10
191.661
20
-11.1882
10
190.991
20
-10.9141
10
190.3407
20
-10.6568
10
189.7103
20
-10.4158
10
189.1002
20
-10.1907
10
188.5106
20
-9.9809
10
187.9419
20
-9.786
10
187.3942
20
-9.6054
10
186.8678
20
-9.4386
10
186.3631
20
-9.285
10
185.8801
20
-9.1442
10
185.4192
20
-9.0156
10
184.9805
20
-8.8988
10
184.479
20
-8.3229
8
gear
0
LWPOLYLINE
90
5
70
0
43
0
10
-90.0827
20
108.0794
10
-93.4156
20
105.212
10
-96.6574
20
102.2418
10
-99.8047
20
99.1719
10
-102.8546
20
96.0051
8
gear_texts
0
LWPOLYLINE
90
2
70
0
43
0
10
-90.6163
20
95.8517
10
-102.6985
20
108.632
8
gear_texts
0
LWPOLYLINE
90
5
70
0
43
0
10
-95.7129
20
114.8343
10
-96.3349
20
108.4999
10
-96.6574
20
102.2418
10
-96.6858
20
96.0728
10
-96.4262
20
90.0047
8
gear_texts
0
LWPOLYLINE
90
5
70
0
43
0
10
-84.4525
20
101.3244
10
-90.4964
20
101.9241
10
-96.6574
20
102.2418
10
-102.9236
20
102.271
10
-109.283
20
102.0054
8
gear_texts
0
LWPOLYLINE
90
3
70
0
43
0
10
-88.3535
20
120.5883
10
-87.0292
20
126.9162
10
-72.1099
20
105.1591
8
gear_texts
0
LWPOLYLINE
90
3
70
0
43
0
10
-68.789
20
107.3608
10
-72.1099
20
105.1591
10
-75.3604
20
102.8547
8
gear_texts
0
LWPOLYLINE
90
7
70
0
43
0
10
-34.4954
20
149.9729
10
-28.5819
20
124.2632
10
-34.129
20
129.6876
10
-40.0414
20
134.8804
10
-46.3097
20
139.8243
10
-52.9241
20
144.502
10
-43.8514
20
119.7302
8
gear_texts
0
LWPOLYLINE
90
5
70
0
43
0
10
-5.5962
20
144.9873
10
-10.1236
20
144.7416
10
-14.6411
20
144.3547
10
-19.1443
20
143.8267
10
-23.6288
20
143.1583
8
gear_texts
0
LWPOLYLINE
90
5
70
0
43
0
10
-5.257
20
136.2002
10
-9.51
20
135.9694
10
-13.7537
20
135.6059
10
-17.984
20
135.1099
10
-22.1967
20
134.4821
8
gear_texts
0
LWPOLYLINE
90
13
70
0
43
0
10
3.5757
20
149.4493
10
8.4859
20
153.6547
10
13.2827
20
153.3146
10
18.0665
20
152.8247
10
22.1804
20
147.8374
10
21.528
20
143.4893
10
16.518
20
139.7254
10
20.2233
20
134.793
10
19.5709
20
130.4448
10
14.9694
20
126.6262
10
11.0057
20
127.0321
10
7.0312
20
127.3139
10
3.155
20
131.867
8
gear_texts
0
LWPOLYLINE
90
2
70
0
43
0
10
12.1442
20
140.1733
10
16.518
20
139.7254
8
gear_texts
0
LWPOLYLINE
90
9
70
0
43
0
10
39.6317
20
125.8102
10
34.492
20
122.7541
10
30.6397
20
123.7719
10
27.6802
20
128.9677
10
31.3709
20
146.1634
10
36.979
20
149.3799
10
41.6283
20
148.1515
10
44.9159
20
142.5849
10
39.6317
20
125.8102
8
gear_texts
0
LWPOLYLINE
90
11
70
0
43
0
10
70.3885
20
121.8257
10
74.1606
20
119.5669
10
77.8602
20
117.1914
10
81.4838
20
114.7015
10
87.685
20
115.6026
10
90.3421
20
119.1057
10
89.123
20
125.4547
10
85.1596
20
128.1781
10
81.1131
20
130.7763
10
76.9874
20
133.2469
10
63.7896
20
110.4045
8
gear_texts
0
LWPOLYLINE
90
2
70
0
43
0
10
83.2513
20
96.5789
10
94.7343
20
109.9002
8
gear_texts
0
LWPOLYLINE
90
2
70
0
43
0
10
97.605
20
113.2305
10
100.4757
20
116.5608
8
gear_texts
0
LWPOLYLINE
90
4
70
0
43
0
10
103.236
20
82.1047
10
97.2663
20
82.4472
10
97.9063
20
88.3925
10
114.224
20
103.1245
8
gear_texts
0
LWPOLYLINE
90
5
70
0
43
0
10
113.5596
20
90.3152
10
110.6823
20
93.8193
10
107.6969
20
97.2317
10
104.6063
20
100.5492
10
101.4136
20
103.7685
8
gear_texts
0
LWPOLYLINE
90
10
70
0
43
0
10
112.8402
20
59.3748
10
110.93
20
62.8714
10
108.9114
20
66.3067
10
106.7865
20
69.6773
10
108.1627
20
75.4964
10
115.3735
20
80.5294
10
121.5156
20
79.288
10
123.9336
20
75.4525
10
126.2306
20
71.5434
10
128.4044
20
67.5644
8
gear_texts
0
LWPOLYLINE
90
6
70
0
43
0
10
124.351
20
55.8117
10
130.0998
20
53.5732
10
135.8261
20
51.0284
10
137.3542
20
46.7596
10
134.5436
20
41.159
10
121.9301
20
37.3003
8
gear_texts
0
LWPOLYLINE
90
2
70
0
43
0
10
116.3284
20
52.2109
10
140.3963
20
63.0132
8
gear_texts
0
LWPOLYLINE
90
10
70
0
43
0
10
127.119
20
9.9514
10
127.3679
20
5.9747
10
127.4924
20
1.9922
10
127.4924
20
-1.9922
10
131.7599
20
-6.1808
10
149.3279
20
-7.0049
10
153.8701
20
-2.4044
10
153.8701
20
2.4044
10
153.7199
20
7.2109
10
153.4195
20
12.0103
8
gear_texts
0
LWPOLYLINE
90
2
70
0
43
0
10
153.7199
20
7.2109
10
127.3679
20
5.9747
8
gear_texts
0
LWPOLYLINE
90
5
70
0
43
0
10
141.1283
20
-33.6962
10
142.1122
20
-29.2702
10
142.9574
20
-24.8156
10
143.6629
20
-20.3368
10
144.2282
20
-15.8382
8
gear_texts
0
LWPOLYLINE
90
5
70
0
43
0
10
132.5751
20
-31.654
10
133.4994
20
-27.4963
10
134.2933
20
-23.3117
10
134.9561
20
-19.1043
10
135.4871
20
-14.8783
8
gear_texts
0
LWPOLYLINE
90
15
70
0
43
0
10
116.3284
20
-52.2109
10
117.9029
20
-48.5507
10
119.3623
20
-44.8432
10
120.7052
20
-41.0918
10
121.9301
20
-37.3003
10
130.3391
20
-39.8728
10
133.1919
20
-45.3427
10
131.7101
20
-49.4821
10
130.0998
20
-53.5732
10
132.3737
20
-59.4124
10
136.385
20
-61.2128
10
142.2966
20
-58.5957
10
144.058
20
-54.1211
10
145.6786
20
-49.5936
10
142.9526
20
-43.7314
8
gear_texts
0
LWPOLYLINE
90
11
70
0
43
0
10
112.8011
20
-84.095
10
110.1184
20
-87.5784
10
107.3283
20
-90.9763
10
104.4334
20
-94.2853
10
104.6063
20
-100.5492
10
107.7762
20
-103.5962
10
114.224
20
-103.1245
10
117.3903
20
-99.5053
10
120.4421
20
-95.7888
10
123.3762
20
-91.9789
10
102.226
20
-76.2111
8
gear_texts
0
LWPOLYLINE
90
5
70
0
43
0
10
84.0302
20
-118.2859
10
87.685
20
-115.6026
10
91.2542
20
-112.8065
10
94.7343
20
-109.9002
10
98.1218
20
-106.8865
8
gear_texts
0
LWPOLYLINE
90
5
70
0
43
0
10
78.9375
20
-111.117
10
82.3708
20
-108.5964
10
85.7236
20
-105.9697
10
88.9928
20
-103.2395
10
92.1751
20
-100.4086
8
gear_texts
0
LWPOLYLINE
90
3
70
0
43
0
10
78.7956
20
-127.0399
10
76.9874
20
-133.2469
10
63.7896
20
-110.4045
8
gear_texts
0
LWPOLYLINE
90
3
70
0
43
0
10
60.3089
20
-112.3437
10
63.7896
20
-110.4045
10
67.208
20
-108.3575
8
gear_texts
0
LWPOLYLINE
90
15
70
0
43
0
10
46.2369
20
-146.7785
10
50.8004
20
-145.2622
10
55.3143
20
-143.604
10
59.7742
20
-141.8056
10
64.1757
20
-139.8687
10
60.5086
20
-131.8762
10
56.3586
20
-133.7024
10
52.1535
20
-135.3981
10
47.8976
20
-136.9615
10
42.2738
20
-134.1975
10
39.6317
20
-125.8102
10
42.0918
20
-120.3601
10
45.8319
20
-118.9862
10
49.5272
20
-117.4961
10
55.0078
20
-119.8875
8
gear_texts
0
LWPOLYLINE
90
11
70
0
43
0
10
12.1442
20
-140.1733
10
7.7586
20
-140.4843
10
3.3654
20
-140.6582
10
-1.0311
20
-140.6946
10
-5.5962
20
-144.9873
10
-5.7658
20
-149.3808
10
-1.1278
20
-153.8848
10
3.6809
20
-153.8449
10
8.4859
20
-153.6547
10
13.2827
20
-153.3146
10
11.0057
20
-127.0321
8
gear_texts
0
LWPOLYLINE
90
7
70
0
43
0
10
-12.8664
20
-126.8571
10
-13.7537
20
-135.6059
10
-19.1443
20
-143.8267
10
-25.0608
20
-151.8346
10
-28.0902
20
-142.3502
10
-30.5531
20
-132.8331
10
-28.5819
20
-124.2632
8
gear_texts
0
LWPOLYLINE
90
5
70
0
43
0
10
-13.7537
20
-135.6059
10
-17.984
20
-135.1099
10
-22.1967
20
-134.4821
10
-26.3878
20
-133.7229
10
-30.5531
20
-132.8331
8
gear_texts
0
LWPOLYLINE
90
5
70
0
43
0
10
-58.3122
20
-132.862
10
-54.1324
20
-134.6191
10
-49.8998
20
-136.2448
10
-45.6185
20
-137.7374
10
-41.2926
20
-139.0955
8
gear_texts
0
LWPOLYLINE
90
5
70
0
43
0
10
-54.7781
20
-124.8098
10
-50.8517
20
-126.4604
10
-46.8756
20
-127.9875
10
-42.8538
20
-129.3896
10
-38.7901
20
-130.6654
8
gear_texts
0
LWPOLYLINE
90
15
70
0
43
0
10
-72.1099
20
-105.1591
10
-68.789
20
-107.3608
10
-65.4009
20
-109.4577
10
-61.949
20
-111.4477
10
-58.4366
20
-113.3289
10
-62.4667
20
-121.1447
10
-68.3575
20
-122.9768
10
-72.1665
20
-120.7809
10
-75.9051
20
-118.4671
10
-82.0561
20
-119.6638
10
-84.5426
20
-123.29
10
-83.0212
20
-129.5734
10
-78.9321
20
-132.1042
10
-74.766
20
-134.5059
10
-68.5118
20
-132.8684
8
gear_texts
0
LWPOLYLINE
90
15
70
0
43
0
10
-109.1614
20
-108.4692
10
-105.719
20
-111.827
10
-102.1734
20
-115.0756
10
-98.528
20
-118.2118
10
-94.7863
20
-121.2326
10
-89.37
20
-114.305
10
-92.8978
20
-111.4569
10
-96.3349
20
-108.4999
10
-99.6779
20
-105.4369
10
-99.8047
20
-99.1719
10
-93.5669
20
-92.9736
10
-87.5957
20
-92.6567
10
-84.6579
20
-95.3484
10
-81.6374
20
-97.9469
10
-81.2454
20
-103.9137
8
gear_texts
0
LINE
10
10
20
0
30
0
11
-10
21
0
31
0
8
gear_guides
0
LINE
10
0
20
10
30
0
11
0
21
-10
31
0
8
gear_guides
0
CIRCLE
10
199.3251
20
16.4169
30
0
40
5.2333
8
gear_guides
0
CIRCLE
10
0
20
0
30
0
40
200
8
gear_guides
0
CIRCLE
10
0
20
0
30
0
40
213.3333
8
gear_guides
0
CIRCLE
10
0
20
0
30
0
40
181.2616
8
gear_guides
0
ENDSEC
0
EOF
