999
DXF created from GearGenerator
0
SECTION
2
HEADER
9
$ACADVER
1
AC1006
9
$INSBASE
10
0.0
20
0.0
30
0.0
0
ENDSEC
0
SECTION
2
BLOCKS
0
ENDSEC
0
SECTION
2
TABLES
0
TABLE
2
LTYPE
0
LTYPE
72
65
2
CONTINOUS
3
______
73
0
40
0
0
LTYPE
72
65
2
DASHED
3
_ _ _ 
73
2
40
1
49
0.5
49
-0.5
0
LTYPE
72
65
2
DOTTED
3
. . . 
73
2
40
0.5
49
0
49
-0.5
0
ENDTAB
0
TABLE
2
LAYER
0
LAYER
2
gear
62
7
6
CONTINOUS
0
LAYER
2
gear_texts
62
7
6
CONTINOUS
0
LAYER
2
gear_guides
62
5
6
DOTTED
0
ENDTAB
0
ENDSEC
0
SECTION
2
ENTITIES
0
LWPOLYLINE
90
924
70
1
43
0
10
78
20
0
10
84.6016
20
0.0001
10
84.6647
20
0.0021
10
84.7802
20
0.0086
10
84.9479
20
0.0221
10
85.1675
20
0.0453
10
85.4387
20
0.0808
10
85.7608
20
0.1311
10
86.1333
20
0.1988
10
86.5555
20
0.2864
10
87.0266
20
0.3966
10
87.5457
20
0.5316
10
88.1118
20
0.694
10
88.7238
20
0.8863
10
89.3806
20
1.1107
10
90.081
20
1.3697
10
90.8235
20
1.6656
10
91.6068
20
2.0005
10
92.4293
20
2.3767
10
93.2895
20
2.7963
10
94.1855
20
3.2615
10
95.1158
20
3.7742
10
96.0784
20
4.3365
10
97.0714
20
4.9503
10
98.0928
20
5.6174
10
99.1406
20
6.3395
10
100.2126
20
7.1185
10
101.3066
20
7.956
10
102.4203
20
8.8534
10
103.5515
20
9.8123
10
104.6976
20
10.8341
10
105.8562
20
11.9201
10
105.8799
20
12.9318
10
105.2563
20
17.2883
10
104.9498
20
18.2527
10
103.5331
20
18.9701
10
102.1463
20
19.6294
10
100.7916
20
20.2325
10
99.4709
20
20.7815
10
98.1859
20
21.2784
10
96.9384
20
21.7254
10
95.7301
20
22.1247
10
94.5626
20
22.4784
10
93.4373
20
22.789
10
92.3556
20
23.0587
10
91.3188
20
23.2899
10
90.3283
20
23.485
10
89.3849
20
23.6466
10
88.4899
20
23.7769
10
87.6442
20
23.8787
10
86.8485
20
23.9543
10
86.1036
20
24.0064
10
85.4102
20
24.0376
10
84.7687
20
24.0505
10
84.1798
20
24.0476
10
83.6437
20
24.0316
10
83.1606
20
24.0052
10
82.7308
20
23.9709
10
82.3542
20
23.9314
10
82.031
20
23.8893
10
81.7608
20
23.8473
10
81.5434
20
23.8079
10
81.3786
20
23.7738
10
81.266
20
23.7476
10
81.2049
20
23.7319
10
74.8683
20
21.8802
10
70.2756
20
33.8429
10
76.2234
20
36.7074
10
76.2793
20
36.7366
10
76.3806
20
36.7925
10
76.5258
20
36.8774
10
76.7136
20
36.9936
10
76.9425
20
37.1432
10
77.2109
20
37.3283
10
77.5172
20
37.5509
10
77.8595
20
37.8131
10
78.2362
20
38.1167
10
78.6453
20
38.4636
10
79.0848
20
38.8556
10
79.5528
20
39.2943
10
80.0472
20
39.7816
10
80.5659
20
40.3188
10
81.1065
20
40.9075
10
81.6669
20
41.5491
10
82.2447
20
42.2449
10
82.8376
20
42.9962
10
83.4431
20
43.8041
10
84.0588
20
44.6697
10
84.6821
20
45.5939
10
85.3105
20
46.5778
10
85.9413
20
47.622
10
86.572
20
48.7272
10
87.1998
20
49.8942
10
87.8221
20
51.1234
10
88.4362
20
52.4151
10
89.0392
20
53.7699
10
89.6285
20
55.1878
10
90.2012
20
56.669
10
89.7836
20
57.5907
10
87.3315
20
61.2452
10
86.637
20
61.9811
10
85.0493
20
62.0128
10
83.5138
20
62.0051
10
82.0316
20
61.9607
10
80.6034
20
61.8823
10
79.2301
20
61.7724
10
77.9122
20
61.6339
10
76.6503
20
61.4694
10
75.4449
20
61.2815
10
74.2963
20
61.0731
10
73.2047
20
60.8468
10
72.1703
20
60.6052
10
71.1932
20
60.3513
10
70.2732
20
60.0875
10
69.4103
20
59.8166
10
68.6041
20
59.5413
10
67.8544
20
59.2642
10
67.1606
20
58.988
10
66.5224
20
58.7152
10
65.9389
20
58.4485
10
65.4095
20
58.1904
10
64.9334
20
57.9434
10
64.5097
20
57.7099
10
64.1373
20
57.4925
10
63.8152
20
57.2936
10
63.5422
20
57.1154
10
63.317
20
56.9603
10
63.1382
20
56.8306
10
63.0045
20
56.7284
10
62.9144
20
56.6559
10
62.8662
20
56.6151
10
57.9605
20
52.1975
10
48.6322
20
60.9829
10
52.7481
20
66.1443
10
52.7859
20
66.1949
10
52.8529
20
66.2892
10
52.9469
20
66.4287
10
53.0657
20
66.6149
10
53.207
20
66.849
10
53.3685
20
67.1322
10
53.5478
20
67.4657
10
53.7425
20
67.8504
10
53.9501
20
68.2874
10
54.1682
20
68.7774
10
54.3942
20
69.3213
10
54.6255
20
69.9197
10
54.8595
20
70.5731
10
55.0937
20
71.2822
10
55.3254
20
72.0472
10
55.5519
20
72.8684
10
55.7706
20
73.746
10
55.9788
20
74.6801
10
56.1738
20
75.6707
10
56.3529
20
76.7177
10
56.5135
20
77.8209
10
56.6527
20
78.9799
10
56.768
20
80.1944
10
56.8567
20
81.4639
10
56.916
20
82.7877
10
56.9434
20
84.1651
10
56.9362
20
85.5954
10
56.8917
20
87.0777
10
56.8074
20
88.6108
10
56.6807
20
90.1938
10
55.9046
20
90.843
10
52.1097
20
93.0718
10
51.1646
20
93.4335
10
49.7204
20
92.7731
10
48.3403
20
92.0999
10
47.0242
20
91.4168
10
45.7715
20
90.7265
10
44.5818
20
90.0317
10
43.4545
20
89.3351
10
42.389
20
88.6393
10
41.3845
20
87.9471
10
40.44
20
87.2609
10
39.5548
20
86.5834
10
38.7276
20
85.917
10
37.9574
20
85.2642
10
37.243
20
84.6273
10
36.583
20
84.0089
10
35.9761
20
83.4111
10
35.4209
20
82.8361
10
34.9157
20
82.2863
10
34.459
20
81.7636
10
34.049
20
81.2701
10
33.6841
20
80.8079
10
33.3623
20
80.3787
10
33.0818
20
79.9846
10
32.8406
20
79.6271
10
32.6367
20
79.3081
10
32.4681
20
79.0291
10
32.3325
20
78.7917
10
32.2277
20
78.5972
10
32.1516
20
78.4471
10
32.1019
20
78.3427
10
32.0761
20
78.2851
10
29.573
20
72.1764
10
17.3566
20
76.0444
10
18.8255
20
82.4805
10
18.8376
20
82.5424
10
18.857
20
82.6565
10
18.8811
20
82.823
10
18.9074
20
83.0423
10
18.9331
20
83.3145
10
18.9558
20
83.6398
10
18.9727
20
84.018
10
18.9811
20
84.4491
10
18.9786
20
84.9329
10
18.9625
20
85.469
10
18.9301
20
86.0571
10
18.8788
20
86.6965
10
18.8062
20
87.3869
10
18.7095
20
88.1273
10
18.5863
20
88.917
10
18.4341
20
89.7552
10
18.2504
20
90.6408
10
18.0327
20
91.5727
10
17.7786
20
92.5499
10
17.4857
20
93.5709
10
17.1517
20
94.6345
10
16.7742
20
95.7392
10
16.3512
20
96.8834
10
15.8803
20
98.0656
10
15.3593
20
99.2841
10
14.7864
20
100.537
10
14.1593
20
101.8225
10
13.4761
20
103.1386
10
12.7349
20
104.4834
10
11.9339
20
105.8547
10
10.9529
20
106.1028
10
6.5669
20
106.4643
10
5.5585
20
106.3801
10
4.5438
20
105.1585
10
3.5925
20
103.9533
10
2.703
20
102.7667
10
1.8739
20
101.6012
10
1.1035
20
100.4591
10
0.3901
20
99.3423
10
-0.268
20
98.2532
10
-0.8727
20
97.1936
10
-1.4259
20
96.1656
10
-1.9295
20
95.1711
10
-2.3856
20
94.2118
10
-2.7963
20
93.2895
10
-3.1637
20
92.4057
10
-3.4899
20
91.5622
10
-3.7773
20
90.7602
10
-4.0281
20
90.0013
10
-4.2447
20
89.2867
10
-4.4294
20
88.6176
10
-4.5847
20
87.9952
10
-4.7129
20
87.4203
10
-4.8166
20
86.8941
10
-4.8983
20
86.4173
10
-4.9605
20
85.9906
10
-5.0058
20
85.6147
10
-5.0367
20
85.2901
10
-5.0559
20
85.0174
10
-5.0659
20
84.7967
10
-5.0693
20
84.6285
10
-5.0689
20
84.5128
10
-5.0671
20
84.4497
10
-4.6718
20
77.86
10
-17.3566
20
76.0444
10
-18.8258
20
82.4804
10
-18.8418
20
82.5415
10
-18.8737
20
82.6527
10
-18.9243
20
82.8132
10
-18.9957
20
83.0221
10
-19.0906
20
83.2786
10
-19.2114
20
83.5814
10
-19.3603
20
83.9295
10
-19.5397
20
84.3216
10
-19.7518
20
84.7564
10
-19.999
20
85.2324
10
-20.2834
20
85.7482
10
-20.607
20
86.3021
10
-20.972
20
86.8925
10
-21.3803
20
87.5177
10
-21.8339
20
88.1758
10
-22.3347
20
88.8649
10
-22.8845
20
89.5831
10
-23.485
20
90.3283
10
-24.138
20
91.0984
10
-24.8448
20
91.8912
10
-25.6072
20
92.7045
10
-26.4266
20
93.5361
10
-27.3042
20
94.3835
10
-28.2415
20
95.2443
10
-29.2395
20
96.116
10
-30.2993
20
96.9963
10
-31.4221
20
97.8824
10
-32.6087
20
98.7718
10
-33.8599
20
99.6618
10
-35.1765
20
100.5497
10
-36.168
20
100.3477
10
-40.2766
20
98.7703
10
-41.1486
20
98.2569
10
-41.5327
20
96.716
10
-41.8669
20
95.2174
10
-42.1535
20
93.7624
10
-42.3948
20
92.3526
10
-42.5933
20
90.9893
10
-42.7515
20
89.6736
10
-42.8719
20
88.4068
10
-42.957
20
87.1898
10
-43.0094
20
86.0236
10
-43.0316
20
84.909
10
-43.0263
20
83.8468
10
-42.9962
20
82.8376
10
-42.9437
20
81.882
10
-42.8716
20
80.9804
10
-42.7826
20
80.1332
10
-42.6793
20
79.3406
10
-42.5644
20
78.6028
10
-42.4405
20
77.9199
10
-42.3103
20
77.2917
10
-42.1764
20
76.7181
10
-42.0416
20
76.199
10
-41.9083
20
75.734
10
-41.7792
20
75.3225
10
-41.6569
20
74.9642
10
-41.5439
20
74.6584
10
-41.4428
20
74.4043
10
-41.3561
20
74.2012
10
-41.2862
20
74.0481
10
-41.2356
20
73.9441
10
-41.2066
20
73.8881
10
-37.9913
20
68.1224
10
-48.6322
20
60.9829
10
-52.7484
20
66.1441
10
-52.7892
20
66.1922
10
-52.8663
20
66.2785
10
-52.9815
20
66.4012
10
-53.1365
20
66.5584
10
-53.3333
20
66.7483
10
-53.5735
20
66.9688
10
-53.8587
20
67.2178
10
-54.1904
20
67.4932
10
-54.5702
20
67.7929
10
-54.9995
20
68.1145
10
-55.4794
20
68.4558
10
-56.0113
20
68.8145
10
-56.5963
20
69.1881
10
-57.2355
20
69.5741
10
-57.9297
20
69.9702
10
-58.6799
20
70.3738
10
-59.4869
20
70.7823
10
-60.3513
20
71.1932
10
-61.2736
20
71.6037
10
-62.2545
20
72.0113
10
-63.2943
20
72.4133
10
-64.3933
20
72.807
10
-65.5517
20
73.1897
10
-66.7696
20
73.5586
10
-68.047
20
73.911
10
-69.3839
20
74.2442
10
-70.7799
20
74.5554
10
-72.2348
20
74.8419
10
-73.7483
20
75.1009
10
-75.3198
20
75.3296
10
-76.1255
20
74.7174
10
-79.1428
20
71.5136
10
-79.7057
20
70.6727
10
-79.3832
20
69.1178
10
-79.0341
20
67.6225
10
-78.661
20
66.1873
10
-78.2667
20
64.8124
10
-77.854
20
63.498
10
-77.4257
20
62.2439
10
-76.9845
20
61.0503
10
-76.5332
20
59.9169
10
-76.0743
20
58.8435
10
-75.6108
20
57.8296
10
-75.1452
20
56.8749
10
-74.6801
20
55.9788
10
-74.2182
20
55.1406
10
-73.7621
20
54.3595
10
-73.3143
20
53.6349
10
-72.8774
20
52.9656
10
-72.4537
20
52.3507
10
-72.0457
20
51.7891
10
-71.6559
20
51.2796
10
-71.2864
20
50.821
10
-70.9396
20
50.4118
10
-70.6178
20
50.0506
10
-70.323
20
49.736
10
-70.0573
20
49.4662
10
-69.8229
20
49.2397
10
-69.6215
20
49.0546
10
-69.4553
20
48.9092
10
-69.3259
20
48.8016
10
-69.2352
20
48.7299
10
-69.1847
20
48.692
10
-63.7862
20
44.8923
10
-70.2756
20
33.8429
10
-76.2235
20
36.7071
10
-76.2812
20
36.7327
10
-76.388
20
36.777
10
-76.545
20
36.8376
10
-76.753
20
36.912
10
-77.0126
20
36.9977
10
-77.3247
20
37.0921
10
-77.6897
20
37.1927
10
-78.1081
20
37.2969
10
-78.5803
20
37.4021
10
-79.1066
20
37.5057
10
-79.6871
20
37.605
10
-80.3219
20
37.6973
10
-81.0111
20
37.7801
10
-81.7545
20
37.8506
10
-82.5518
20
37.9062
10
-83.4029
20
37.9444
10
-84.3071
20
37.9623
10
-85.2642
20
37.9574
10
-86.2733
20
37.9271
10
-87.3339
20
37.8687
10
-88.4452
20
37.7798
10
-89.6062
20
37.6576
10
-90.8159
20
37.4998
10
-92.0732
20
37.3038
10
-93.3771
20
37.067
10
-94.7261
20
36.7872
10
-96.1189
20
36.4619
10
-97.554
20
36.0887
10
-99.03
20
35.6654
10
-100.5451
20
35.1896
10
-101.0054
20
34.2884
10
-102.3338
20
30.0928
10
-102.4761
20
29.0909
10
-101.5109
20
27.8299
10
-100.5475
20
26.6342
10
-99.5887
20
25.503
10
-98.6369
20
24.4353
10
-97.6948
20
23.4301
10
-96.7648
20
22.4861
10
-95.8494
20
21.6021
10
-94.951
20
20.7768
10
-94.0718
20
20.0087
10
-93.2143
20
19.2964
10
-92.3806
20
18.6383
10
-91.5727
20
18.0327
10
-90.7929
20
17.4779
10
-90.0431
20
16.9721
10
-89.3252
20
16.5134
10
-88.6411
20
16.1
10
-87.9926
20
15.7299
10
-87.3814
20
15.4009
10
-86.8091
20
15.1111
10
-86.2772
20
14.8581
10
-85.7873
20
14.6399
10
-85.3406
20
14.4541
10
-84.9384
20
14.2986
10
-84.582
20
14.1708
10
-84.2725
20
14.0684
10
-84.0108
20
13.989
10
-83.798
20
13.9302
10
-83.6347
20
13.8894
10
-83.5218
20
13.8641
10
-83.4599
20
13.8518
10
-76.9474
20
12.7708
10
-78
20
0
10
-84.6016
20
-0.0001
10
-84.6647
20
-0.0021
10
-84.7802
20
-0.0086
10
-84.9479
20
-0.0221
10
-85.1675
20
-0.0453
10
-85.4387
20
-0.0808
10
-85.7608
20
-0.1311
10
-86.1333
20
-0.1988
10
-86.5555
20
-0.2864
10
-87.0266
20
-0.3966
10
-87.5457
20
-0.5316
10
-88.1118
20
-0.694
10
-88.7238
20
-0.8863
10
-89.3806
20
-1.1107
10
-90.081
20
-1.3697
10
-90.8235
20
-1.6656
10
-91.6068
20
-2.0005
10
-92.4293
20
-2.3767
10
-93.2895
20
-2.7963
10
-94.1855
20
-3.2615
10
-95.1158
20
-3.7742
10
-96.0784
20
-4.3365
10
-97.0714
20
-4.9503
10
-98.0928
20
-5.6174
10
-99.1406
20
-6.3395
10
-100.2126
20
-7.1185
10
-101.3066
20
-7.956
10
-102.4203
20
-8.8534
10
-103.5515
20
-9.8123
10
-104.6976
20
-10.8341
10
-105.8562
20
-11.9201
10
-105.8799
20
-12.9318
10
-105.2563
20
-17.2883
10
-104.9498
20
-18.2527
10
-103.5331
20
-18.9701
10
-102.1463
20
-19.6294
10
-100.7916
20
-20.2325
10
-99.4709
20
-20.7815
10
-98.1859
20
-21.2784
10
-96.9384
20
-21.7254
10
-95.7301
20
-22.1247
10
-94.5626
20
-22.4784
10
-93.4373
20
-22.789
10
-92.3556
20
-23.0587
10
-91.3188
20
-23.2899
10
-90.3283
20
-23.485
10
-89.3849
20
-23.6466
10
-88.4899
20
-23.7769
10
-87.6442
20
-23.8787
10
-86.8485
20
-23.9543
10
-86.1036
20
-24.0064
10
-85.4102
20
-24.0376
10
-84.7687
20
-24.0505
10
-84.1798
20
-24.0476
10
-83.6437
20
-24.0316
10
-83.1606
20
-24.0052
10
-82.7308
20
-23.9709
10
-82.3542
20
-23.9314
10
-82.031
20
-23.8893
10
-81.7608
20
-23.8473
10
-81.5434
20
-23.8079
10
-81.3786
20
-23.7738
10
-81.266
20
-23.7476
10
-81.2049
20
-23.7319
10
-74.8683
20
-21.8802
10
-70.2756
20
-33.8429
10
-76.2234
20
-36.7074
10
-76.2793
20
-36.7366
10
-76.3806
20
-36.7925
10
-76.5258
20
-36.8774
10
-76.7136
20
-36.9936
10
-76.9425
20
-37.1432
10
-77.2109
20
-37.3283
10
-77.5172
20
-37.5509
10
-77.8595
20
-37.8131
10
-78.2362
20
-38.1167
10
-78.6453
20
-38.4636
10
-79.0848
20
-38.8556
10
-79.5528
20
-39.2943
10
-80.0472
20
-39.7816
10
-80.5659
20
-40.3188
10
-81.1065
20
-40.9075
10
-81.6669
20
-41.5491
10
-82.2447
20
-42.2449
10
-82.8376
20
-42.9962
10
-83.4431
20
-43.8041
10
-84.0588
20
-44.6697
10
-84.6821
20
-45.5939
10
-85.3105
20
-46.5778
10
-85.9413
20
-47.622
10
-86.572
20
-48.7272
10
-87.1998
20
-49.8942
10
-87.8221
20
-51.1234
10
-88.4362
20
-52.4151
10
-89.0392
20
-53.7699
10
-89.6285
20
-55.1878
10
-90.2012
20
-56.669
10
-89.7836
20
-57.5907
10
-87.3315
20
-61.2452
10
-86.637
20
-61.9811
10
-85.0493
20
-62.0128
10
-83.5138
20
-62.0051
10
-82.0316
20
-61.9607
10
-80.6034
20
-61.8823
10
-79.2301
20
-61.7724
10
-77.9122
20
-61.6339
10
-76.6503
20
-61.4694
10
-75.4449
20
-61.2815
10
-74.2963
20
-61.0731
10
-73.2047
20
-60.8468
10
-72.1703
20
-60.6052
10
-71.1932
20
-60.3513
10
-70.2732
20
-60.0875
10
-69.4103
20
-59.8166
10
-68.6041
20
-59.5413
10
-67.8544
20
-59.2642
10
-67.1606
20
-58.988
10
-66.5224
20
-58.7152
10
-65.9389
20
-58.4485
10
-65.4095
20
-58.1904
10
-64.9334
20
-57.9434
10
-64.5097
20
-57.7099
10
-64.1373
20
-57.4925
10
-63.8152
20
-57.2936
10
-63.5422
20
-57.1154
10
-63.317
20
-56.9603
10
-63.1382
20
-56.8306
10
-63.0045
20
-56.7284
10
-62.9144
20
-56.6559
10
-62.8662
20
-56.6151
10
-57.9605
20
-52.1975
10
-48.6322
20
-60.9829
10
-52.7481
20
-66.1443
10
-52.7859
20
-66.1949
10
-52.8529
20
-66.2892
10
-52.9469
20
-66.4287
10
-53.0657
20
-66.6149
10
-53.207
20
-66.849
10
-53.3685
20
-67.1322
10
-53.5478
20
-67.4657
10
-53.7425
20
-67.8504
10
-53.9501
20
-68.2874
10
-54.1682
20
-68.7774
10
-54.3942
20
-69.3213
10
-54.6255
20
-69.9197
10
-54.8595
20
-70.5731
10
-55.0937
20
-71.2822
10
-55.3254
20
-72.0472
10
-55.5519
20
-72.8684
10
-55.7706
20
-73.746
10
-55.9788
20
-74.6801
10
-56.1738
20
-75.6707
10
-56.3529
20
-76.7177
10
-56.5135
20
-77.8209
10
-56.6527
20
-78.9799
10
-56.768
20
-80.1944
10
-56.8567
20
-81.4639
10
-56.916
20
-82.7877
10
-56.9434
20
-84.1651
10
-56.9362
20
-85.5954
10
-56.8917
20
-87.0777
10
-56.8074
20
-88.6108
10
-56.6807
20
-90.1938
10
-55.9046
20
-90.843
10
-52.1097
20
-93.0718
10
-51.1646
20
-93.4335
10
-49.7204
20
-92.7731
10
-48.3403
20
-92.0999
10
-47.0242
20
-91.4168
10
-45.7715
20
-90.7265
10
-44.5818
20
-90.0317
10
-43.4545
20
-89.3351
10
-42.389
20
-88.6393
10
-41.3845
20
-87.9471
10
-40.44
20
-87.2609
10
-39.5548
20
-86.5834
10
-38.7276
20
-85.917
10
-37.9574
20
-85.2642
10
-37.243
20
-84.6273
10
-36.583
20
-84.0089
10
-35.9761
20
-83.4111
10
-35.4209
20
-82.8361
10
-34.9157
20
-82.2863
10
-34.459
20
-81.7636
10
-34.049
20
-81.2701
10
-33.6841
20
-80.8079
10
-33.3623
20
-80.3787
10
-33.0818
20
-79.9846
10
-32.8406
20
-79.6271
10
-32.6367
20
-79.3081
10
-32.4681
20
-79.0291
10
-32.3325
20
-78.7917
10
-32.2277
20
-78.5972
10
-32.1516
20
-78.4471
10
-32.1019
20
-78.3427
10
-32.0761
20
-78.2851
10
-29.573
20
-72.1764
10
-17.3566
20
-76.0444
10
-18.8255
20
-82.4805
10
-18.8376
20
-82.5424
10
-18.857
20
-82.6565
10
-18.8811
20
-82.823
10
-18.9074
20
-83.0423
10
-18.9331
20
-83.3145
10
-18.9558
20
-83.6398
10
-18.9727
20
-84.018
10
-18.9811
20
-84.4491
10
-18.9786
20
-84.9329
10
-18.9625
20
-85.469
10
-18.9301
20
-86.0571
10
-18.8788
20
-86.6965
10
-18.8062
20
-87.3869
10
-18.7095
20
-88.1273
10
-18.5863
20
-88.917
10
-18.4341
20
-89.7552
10
-18.2504
20
-90.6408
10
-18.0327
20
-91.5727
10
-17.7786
20
-92.5499
10
-17.4857
20
-93.5709
10
-17.1517
20
-94.6345
10
-16.7742
20
-95.7392
10
-16.3512
20
-96.8834
10
-15.8803
20
-98.0656
10
-15.3593
20
-99.2841
10
-14.7864
20
-100.537
10
-14.1593
20
-101.8225
10
-13.4761
20
-103.1386
10
-12.7349
20
-104.4834
10
-11.9339
20
-105.8547
10
-10.9529
20
-106.1028
10
-6.5669
20
-106.4643
10
-5.5585
20
-106.3801
10
-4.5438
20
-105.1585
10
-3.5925
20
-103.9533
10
-2.703
20
-102.7667
10
-1.8739
20
-101.6012
10
-1.1035
20
-100.4591
10
-0.3901
20
-99.3423
10
0.268
20
-98.2532
10
0.8727
20
-97.1936
10
1.4259
20
-96.1656
10
1.9295
20
-95.1711
10
2.3856
20
-94.2118
10
2.7963
20
-93.2895
10
3.1637
20
-92.4057
10
3.4899
20
-91.5622
10
3.7773
20
-90.7602
10
4.0281
20
-90.0013
10
4.2447
20
-89.2867
10
4.4294
20
-88.6176
10
4.5847
20
-87.9952
10
4.7129
20
-87.4203
10
4.8166
20
-86.8941
10
4.8983
20
-86.4173
10
4.9605
20
-85.9906
10
5.0058
20
-85.6147
10
5.0367
20
-85.2901
10
5.0559
20
-85.0174
10
5.0659
20
-84.7967
10
5.0693
20
-84.6285
10
5.0689
20
-84.5128
10
5.0671
20
-84.4497
10
4.6718
20
-77.86
10
17.3566
20
-76.0444
10
18.8258
20
-82.4804
10
18.8418
20
-82.5415
10
18.8737
20
-82.6527
10
18.9243
20
-82.8132
10
18.9957
20
-83.0221
10
19.0906
20
-83.2786
10
19.2114
20
-83.5814
10
19.3603
20
-83.9295
10
19.5397
20
-84.3216
10
19.7518
20
-84.7564
10
19.999
20
-85.2324
10
20.2834
20
-85.7482
10
20.607
20
-86.3021
10
20.972
20
-86.8925
10
21.3803
20
-87.5177
10
21.8339
20
-88.1758
10
22.3347
20
-88.8649
10
22.8845
20
-89.5831
10
23.485
20
-90.3283
10
24.138
20
-91.0984
10
24.8448
20
-91.8912
10
25.6072
20
-92.7045
10
26.4266
20
-93.5361
10
27.3042
20
-94.3835
10
28.2415
20
-95.2443
10
29.2395
20
-96.116
10
30.2993
20
-96.9963
10
31.4221
20
-97.8824
10
32.6087
20
-98.7718
10
33.8599
20
-99.6618
10
35.1765
20
-100.5497
10
36.168
20
-100.3477
10
40.2766
20
-98.7703
10
41.1486
20
-98.2569
10
41.5327
20
-96.716
10
41.8669
20
-95.2174
10
42.1535
20
-93.7624
10
42.3948
20
-92.3526
10
42.5933
20
-90.9893
10
42.7515
20
-89.6736
10
42.8719
20
-88.4068
10
42.957
20
-87.1898
10
43.0094
20
-86.0236
10
43.0316
20
-84.909
10
43.0263
20
-83.8468
10
42.9962
20
-82.8376
10
42.9437
20
-81.882
10
42.8716
20
-80.9804
10
42.7826
20
-80.1332
10
42.6793
20
-79.3406
10
42.5644
20
-78.6028
10
42.4405
20
-77.9199
10
42.3103
20
-77.2917
10
42.1764
20
-76.7181
10
42.0416
20
-76.199
10
41.9083
20
-75.734
10
41.7792
20
-75.3225
10
41.6569
20
-74.9642
10
41.5439
20
-74.6584
10
41.4428
20
-74.4043
10
41.3561
20
-74.2012
10
41.2862
20
-74.0481
10
41.2356
20
-73.9441
10
41.2066
20
-73.8881
10
37.9913
20
-68.1224
10
48.6322
20
-60.9829
10
52.7484
20
-66.1441
10
52.7892
20
-66.1922
10
52.8663
20
-66.2785
10
52.9815
20
-66.4012
10
53.1365
20
-66.5584
10
53.3333
20
-66.7483
10
53.5735
20
-66.9688
10
53.8587
20
-67.2178
10
54.1904
20
-67.4932
10
54.5702
20
-67.7929
10
54.9995
20
-68.1145
10
55.4794
20
-68.4558
10
56.0113
20
-68.8145
10
56.5963
20
-69.1881
10
57.2355
20
-69.5741
10
57.9297
20
-69.9702
10
58.6799
20
-70.3738
10
59.4869
20
-70.7823
10
60.3513
20
-71.1932
10
61.2736
20
-71.6037
10
62.2545
20
-72.0113
10
63.2943
20
-72.4133
10
64.3933
20
-72.807
10
65.5517
20
-73.1897
10
66.7696
20
-73.5586
10
68.047
20
-73.911
10
69.3839
20
-74.2442
10
70.7799
20
-74.5554
10
72.2348
20
-74.8419
10
73.7483
20
-75.1009
10
75.3198
20
-75.3296
10
76.1255
20
-74.7174
10
79.1428
20
-71.5136
10
79.7057
20
-70.6727
10
79.3832
20
-69.1178
10
79.0341
20
-67.6225
10
78.661
20
-66.1873
10
78.2667
20
-64.8124
10
77.854
20
-63.498
10
77.4257
20
-62.2439
10
76.9845
20
-61.0503
10
76.5332
20
-59.9169
10
76.0743
20
-58.8435
10
75.6108
20
-57.8296
10
75.1452
20
-56.8749
10
74.6801
20
-55.9788
10
74.2182
20
-55.1406
10
73.7621
20
-54.3595
10
73.3143
20
-53.6349
10
72.8774
20
-52.9656
10
72.4537
20
-52.3507
10
72.0457
20
-51.7891
10
71.6559
20
-51.2796
10
71.2864
20
-50.821
10
70.9396
20
-50.4118
10
70.6178
20
-50.0506
10
70.323
20
-49.736
10
70.0573
20
-49.4662
10
69.8229
20
-49.2397
10
69.6215
20
-49.0546
10
69.4553
20
-48.9092
10
69.3259
20
-48.8016
10
69.2352
20
-48.7299
10
69.1847
20
-48.692
10
63.7862
20
-44.8923
10
70.2756
20
-33.8429
10
76.2235
20
-36.7071
10
76.2812
20
-36.7327
10
76.388
20
-36.777
10
76.545
20
-36.8376
10
76.753
20
-36.912
10
77.0126
20
-36.9977
10
77.3247
20
-37.0921
10
77.6897
20
-37.1927
10
78.1081
20
-37.2969
10
78.5803
20
-37.4021
10
79.1066
20
-37.5057
10
79.6871
20
-37.605
10
80.3219
20
-37.6973
10
81.0111
20
-37.7801
10
81.7545
20
-37.8506
10
82.5518
20
-37.9062
10
83.4029
20
-37.9444
10
84.3071
20
-37.9623
10
85.2642
20
-37.9574
10
86.2733
20
-37.9271
10
87.3339
20
-37.8687
10
88.4452
20
-37.7798
10
89.6062
20
-37.6576
10
90.8159
20
-37.4998
10
92.0732
20
-37.3038
10
93.3771
20
-37.067
10
94.7261
20
-36.7872
10
96.1189
20
-36.4619
10
97.554
20
-36.0887
10
99.03
20
-35.6654
10
100.5451
20
-35.1896
10
101.0054
20
-34.2884
10
102.3338
20
-30.0928
10
102.4761
20
-29.0909
10
101.5109
20
-27.8299
10
100.5475
20
-26.6342
10
99.5887
20
-25.503
10
98.6369
20
-24.4353
10
97.6948
20
-23.4301
10
96.7648
20
-22.4861
10
95.8494
20
-21.6021
10
94.951
20
-20.7768
10
94.0718
20
-20.0087
10
93.2143
20
-19.2964
10
92.3806
20
-18.6383
10
91.5727
20
-18.0327
10
90.7929
20
-17.4779
10
90.0431
20
-16.9721
10
89.3252
20
-16.5134
10
88.6411
20
-16.1
10
87.9926
20
-15.7299
10
87.3814
20
-15.4009
10
86.8091
20
-15.1111
10
86.2772
20
-14.8581
10
85.7873
20
-14.6399
10
85.3406
20
-14.4541
10
84.9384
20
-14.2986
10
84.582
20
-14.1708
10
84.2725
20
-14.0684
10
84.0108
20
-13.989
10
83.798
20
-13.9302
10
83.6347
20
-13.8894
10
83.5218
20
-13.8641
10
83.4599
20
-13.8518
10
76.9474
20
-12.7708
8
gear
0
LWPOLYLINE
90
5
70
0
43
0
10
-46.4763
20
37.0366
10
-47.6108
20
35.5663
10
-48.6988
20
34.0614
10
-49.7393
20
32.5232
10
-50.7312
20
30.9532
8
gear_texts
0
LWPOLYLINE
90
2
70
0
43
0
10
-45.6552
20
31.9325
10
-51.7425
20
36.1902
8
gear_texts
0
LWPOLYLINE
90
5
70
0
43
0
10
-49.3811
20
39.3514
10
-49.0987
20
36.6778
10
-48.6988
20
34.0614
10
-48.185
20
31.5068
10
-47.5605
20
29.0186
8
gear_texts
0
LWPOLYLINE
90
5
70
0
43
0
10
-43.5715
20
34.7218
10
-46.123
20
34.4549
10
-48.6988
20
34.0614
10
-51.2937
20
33.5395
10
-53.9019
20
32.8878
8
gear_texts
0
LWPOLYLINE
90
9
70
0
43
0
10
-37.6375
20
41.0792
10
-37.6059
20
38.5537
10
-38.7921
20
37.3599
10
-41.3178
20
37.3754
10
-46.8268
20
42.3588
10
-46.8181
20
45.0895
10
-45.3864
20
46.5303
10
-42.6558
20
46.5564
10
-37.6375
20
41.0792
8
gear_texts
0
LWPOLYLINE
90
7
70
0
43
0
10
-25.1896
20
59.9206
10
-20.8714
20
49.6485
10
-23.5717
20
51.5052
10
-26.4074
20
53.2391
10
-29.3731
20
54.8437
10
-32.4637
20
56.3126
10
-26.8985
20
46.659
8
gear_texts
0
LWPOLYLINE
90
5
70
0
43
0
10
-12.8028
20
59.9335
10
-14.6692
20
59.5042
10
-16.5212
20
59.0168
10
-18.3571
20
58.4718
10
-20.1751
20
57.8697
8
gear_texts
0
LWPOLYLINE
90
5
70
0
43
0
10
-12.0269
20
56.3012
10
-13.7801
20
55.8979
10
-15.5199
20
55.4401
10
-17.2446
20
54.9281
10
-18.9524
20
54.3625
8
gear_texts
0
LWPOLYLINE
90
3
70
0
43
0
10
-9.3082
20
62.453
10
-7.5685
20
64.5579
10
-6.2711
20
53.4908
8
gear_texts
0
LWPOLYLINE
90
3
70
0
43
0
10
-4.5967
20
53.6606
10
-6.2711
20
53.4908
10
-7.9393
20
53.2687
8
gear_texts
0
LWPOLYLINE
90
9
70
0
43
0
10
5.8648
20
57.2719
10
4.0724
20
57.4272
10
2.2761
20
57.5264
10
0.4776
20
57.5694
10
-1.3214
20
57.5563
10
0.4982
20
60.0456
10
2.4719
20
62.4749
10
4.5979
20
64.8372
10
3.8097
20
53.7222
8
gear_texts
0
LWPOLYLINE
90
11
70
0
43
0
10
18.7392
20
56.3968
10
20.4921
20
55.7838
10
22.2251
20
55.1163
10
23.9363
20
54.3949
10
26.425
20
55.2961
10
27.2257
20
56.9718
10
26.1804
20
59.4944
10
24.3087
20
60.2834
10
22.4133
20
61.0135
10
20.496
20
61.684
10
16.9824
20
51.1096
8
gear_texts
0
LWPOLYLINE
90
2
70
0
43
0
10
26.2117
20
47.0483
10
29.8271
20
53.5377
8
gear_texts
0
LWPOLYLINE
90
2
70
0
43
0
10
30.731
20
55.16
10
31.6348
20
56.7824
8
gear_texts
0
LWPOLYLINE
90
4
70
0
43
0
10
35.7127
20
42.7631
10
33.2138
20
42.3962
10
32.972
20
44.9102
10
38.4673
20
52.3953
8
gear_texts
0
LWPOLYLINE
90
5
70
0
43
0
10
39.284
20
47.0395
10
37.795
20
48.2439
10
36.2692
20
49.4013
10
34.708
20
50.5104
10
33.1128
20
51.5702
8
gear_texts
0
LWPOLYLINE
90
10
70
0
43
0
10
41.6227
20
34.1781
10
40.5345
20
35.4619
10
39.4067
20
36.7111
10
38.2404
20
37.9245
10
38.3139
20
40.4491
10
40.8682
20
43.1457
10
43.5149
20
43.1554
10
44.8421
20
41.7747
10
46.1254
20
40.3532
10
47.3637
20
38.8923
8
gear_texts
0
LWPOLYLINE
90
6
70
0
43
0
10
46.6883
20
33.6849
10
49.2573
20
33.2487
10
51.8431
20
32.6838
10
52.839
20
31.048
10
52.1535
20
28.4916
10
47.2641
20
25.8205
8
gear_texts
0
LWPOLYLINE
90
2
70
0
43
0
10
43.6762
20
31.5117
10
52.7126
20
38.0313
8
gear_texts
0
LWPOLYLINE
90
10
70
0
43
0
10
51.7411
20
14.9484
10
52.1829
20
13.3245
10
52.5737
20
11.6875
10
52.9132
20
10.0391
10
55.0356
20
8.67
10
62.3736
20
9.826
10
63.8608
20
12.1162
10
63.451
20
14.1056
10
62.9793
20
16.0813
10
62.4461
20
18.0412
8
gear_texts
0
LWPOLYLINE
90
2
70
0
43
0
10
62.9793
20
16.0813
10
52.1829
20
13.3245
8
gear_texts
0
LWPOLYLINE
90
5
70
0
43
0
10
61.2558
20
-1.9149
10
61.2857
20
0
10
61.2558
20
1.9149
10
61.1661
20
3.8279
10
61.0166
20
5.7371
8
gear_texts
0
LWPOLYLINE
90
5
70
0
43
0
10
57.5433
20
-1.7988
10
57.5714
20
0
10
57.5433
20
1.7988
10
57.459
20
3.5959
10
57.3186
20
5.3894
8
gear_texts
0
LWPOLYLINE
90
9
70
0
43
0
10
54.7378
20
-10.3853
10
53.201
20
-8.381
10
53.4369
20
-6.7146
10
55.4696
20
-5.2156
10
62.8656
20
-5.911
10
64.4928
20
-8.1039
10
64.2082
20
-10.115
10
62.0362
20
-11.77
10
54.7378
20
-10.3853
8
gear_texts
0
LWPOLYLINE
90
2
70
0
43
0
10
53.9823
20
-13.7839
10
52.1829
20
-13.3245
8
gear_texts
0
LWPOLYLINE
90
14
70
0
43
0
10
53.8312
20
-25.1785
10
54.5916
20
-23.4842
10
55.2987
20
-21.7671
10
55.9518
20
-20.0286
10
58.3175
20
-18.8416
10
60.0847
20
-19.4125
10
61.1973
20
-21.9063
10
60.483
20
-23.8077
10
59.7096
20
-25.6859
10
57.1957
20
-26.7521
10
52.149
20
-24.3916
10
51.1797
20
-22.0165
10
50.1145
20
-19.7264
10
50.7064
20
-18.1509
8
gear_texts
0
LWPOLYLINE
90
13
70
0
43
0
10
55.4131
20
-30.2723
10
56.0413
20
-32.9297
10
54.9851
20
-34.6647
10
53.8752
20
-36.3658
10
51.2065
20
-36.9447
10
49.7005
20
-35.8581
10
49.2573
20
-33.2487
10
46.6883
20
-33.6849
10
45.1822
20
-32.5983
10
44.6394
20
-30.1316
10
45.5591
20
-28.7222
10
46.4343
20
-27.2846
10
48.8939
20
-26.7109
8
gear_texts
0
LWPOLYLINE
90
2
70
0
43
0
10
50.2721
20
-31.6934
10
49.2573
20
-33.2487
8
gear_texts
0
LWPOLYLINE
90
11
70
0
43
0
10
39.5001
20
-44.4015
10
38.0935
20
-45.614
10
36.6497
20
-46.782
10
35.1701
20
-47.9042
10
34.708
20
-50.5104
10
35.7597
20
-52.041
10
38.4673
20
-52.3953
10
40.0856
20
-51.1678
10
41.6648
20
-49.8903
10
43.2033
20
-48.5642
10
35.797
20
-40.2389
8
gear_texts
0
LWPOLYLINE
90
5
70
0
43
0
10
24.6843
20
-56.0948
10
26.425
20
-55.2961
10
28.1398
20
-54.4435
10
29.8271
20
-53.5377
10
31.4853
20
-52.5796
8
gear_texts
0
LWPOLYLINE
90
5
70
0
43
0
10
23.1883
20
-52.6951
10
24.8234
20
-51.9448
10
26.4343
20
-51.1439
10
28.0194
20
-50.293
10
29.5771
20
-49.3929
8
gear_texts
0
LWPOLYLINE
90
3
70
0
43
0
10
21.7729
20
-59.2702
10
20.496
20
-61.684
10
16.9824
20
-51.1096
8
gear_texts
0
LWPOLYLINE
90
3
70
0
43
0
10
15.3772
20
-51.6153
10
16.9824
20
-51.1096
10
18.571
20
-50.554
8
gear_texts
0
LWPOLYLINE
90
15
70
0
43
0
10
6.6215
20
-64.6619
10
8.6386
20
-64.4234
10
10.6473
20
-64.122
10
12.6456
20
-63.758
10
14.6315
20
-63.3318
10
13.7955
20
-59.7128
10
11.923
20
-60.1147
10
10.0389
20
-60.4579
10
8.145
20
-60.7421
10
6.0539
20
-59.1194
10
5.6756
20
-55.4244
10
7.1577
20
-53.3794
10
8.8221
20
-53.1297
10
10.4778
20
-52.8281
10
12.5413
20
-54.2844
8
gear_texts
0
LWPOLYLINE
90
11
70
0
43
0
10
-6.9198
20
-59.0243
10
-8.7606
20
-58.7793
10
-10.5929
20
-58.4769
10
-12.4148
20
-58.1174
10
-14.6692
20
-59.5042
10
-15.1137
20
-61.3074
10
-13.5787
20
-63.5659
10
-11.586
20
-63.9591
10
-9.5819
20
-64.2899
10
-7.5685
20
-64.5579
10
-6.2711
20
-53.4908
8
gear_texts
0
LWPOLYLINE
90
7
70
0
43
0
10
-16.132
20
-51.3843
10
-17.2446
20
-54.9281
10
-20.1751
20
-57.8697
10
-23.3051
20
-60.6784
10
-23.7502
20
-56.4966
10
-23.9582
20
-52.3496
10
-22.4125
20
-48.9722
8
gear_texts
0
LWPOLYLINE
90
5
70
0
43
0
10
-17.2446
20
-54.9281
10
-18.9524
20
-54.3625
10
-20.6417
20
-53.7438
10
-22.3108
20
-53.0726
10
-23.9582
20
-52.3496
8
gear_texts
0
LWPOLYLINE
90
5
70
0
43
0
10
-35.4445
20
-49.9962
10
-33.8651
20
-51.0793
10
-32.2526
20
-52.1125
10
-30.6086
20
-53.0947
10
-28.9347
20
-54.0252
8
gear_texts
0
LWPOLYLINE
90
5
70
0
43
0
10
-33.2964
20
-46.9662
10
-31.8127
20
-47.9836
10
-30.2979
20
-48.9541
10
-28.7535
20
-49.8769
10
-27.1811
20
-50.7509
8
gear_texts
0
LWPOLYLINE
90
15
70
0
43
0
10
-38.7921
20
-37.3599
10
-37.6059
20
-38.5537
10
-36.3829
20
-39.7099
10
-35.1244
20
-40.8273
10
-33.8316
20
-41.9048
10
-36.1649
20
-44.7948
10
-38.758
20
-45.0508
10
-40.1467
20
-43.8178
10
-41.4962
20
-42.542
10
-44.1428
20
-42.513
10
-45.4804
20
-43.8013
10
-45.3864
20
-46.5303
10
-43.9104
20
-47.9257
10
-42.3916
20
-49.2743
10
-39.6647
20
-49.1298
8
gear_texts
0
LWPOLYLINE
90
15
70
0
43
0
10
-54.4024
20
-35.5722
10
-53.2644
20
-37.2546
10
-52.0743
20
-38.9007
10
-50.8335
20
-40.5088
10
-49.5429
20
-42.0773
10
-46.7119
20
-39.6728
10
-47.9287
20
-38.194
10
-49.0987
20
-36.6778
10
-50.2207
20
-35.1258
10
-49.7393
20
-32.5232
10
-46.6306
20
-30.4905
10
-44.1333
20
-30.8681
10
-43.1473
20
-32.232
10
-42.1192
20
-33.5644
10
-42.4654
20
-36.0662
8
gear_texts
0
LINE
10
10
20
0
30
0
11
-10
21
0
31
0
8
gear_guides
0
LINE
10
0
20
10
30
0
11
0
21
-10
31
0
8
gear_guides
0
CIRCLE
10
92.3917
20
13.2241
30
0
40
5.2333
8
gear_guides
0
CIRCLE
10
0
20
0
30
0
40
93.3333
8
gear_guides
0
CIRCLE
10
0
20
0
30
0
40
106.6667
8
gear_guides
0
CIRCLE
10
0
20
0
30
0
40
84.5887
8
gear_guides
0
ENDSEC
0
EOF
