solid OpenSCAD_Model
  facet normal 0 0 -1
    outer loop
      vertex 30 0 0
      vertex 27 3 0
      vertex 30 50 0
    endloop
  endfacet
  facet normal 0 0 -1
    outer loop
      vertex 30 0 0
      vertex 3 3 0
      vertex 27 3 0
    endloop
  endfacet
  facet normal -0 0 -1
    outer loop
      vertex 3 3 0
      vertex 0 0 0
      vertex 3 47 0
    endloop
  endfacet
  facet normal 0 0 -1
    outer loop
      vertex 0 0 0
      vertex 3 3 0
      vertex 30 0 0
    endloop
  endfacet
  facet normal 0 0 -1
    outer loop
      vertex 27 47 0
      vertex 30 50 0
      vertex 27 3 0
    endloop
  endfacet
  facet normal 0 0 -1
    outer loop
      vertex 3 47 0
      vertex 30 50 0
      vertex 27 47 0
    endloop
  endfacet
  facet normal 0 0 -1
    outer loop
      vertex 3 47 0
      vertex 0 50 0
      vertex 30 50 0
    endloop
  endfacet
  facet normal 0 0 -1
    outer loop
      vertex 0 50 0
      vertex 3 47 0
      vertex 0 0 0
    endloop
  endfacet
  facet normal -0 0 1
    outer loop
      vertex 1.5 50 5
      vertex 28.5 48.5 5
      vertex 28.5 50 5
    endloop
  endfacet
  facet normal 0 0 1
    outer loop
      vertex 28.5 48.5 5
      vertex 1.5 50 5
      vertex 1.5 48.5 5
    endloop
  endfacet
  facet normal 0 1 0
    outer loop
      vertex 30 50 8
      vertex 28.5 50 5
      vertex 28.5 50 8
    endloop
  endfacet
  facet normal 0 1 0
    outer loop
      vertex 28.5 50 5
      vertex 30 50 0
      vertex 1.5 50 5
    endloop
  endfacet
  facet normal 0 1 -0
    outer loop
      vertex 30 50 0
      vertex 28.5 50 5
      vertex 30 50 8
    endloop
  endfacet
  facet normal 0 1 -0
    outer loop
      vertex 1.5 50 5
      vertex 0 50 8
      vertex 1.5 50 8
    endloop
  endfacet
  facet normal 0 1 0
    outer loop
      vertex 1.5 50 5
      vertex 0 50 0
      vertex 0 50 8
    endloop
  endfacet
  facet normal 0 1 0
    outer loop
      vertex 0 50 0
      vertex 1.5 50 5
      vertex 30 50 0
    endloop
  endfacet
  facet normal -1 0 0
    outer loop
      vertex 0 0 0
      vertex 0 50 8
      vertex 0 50 0
    endloop
  endfacet
  facet normal -1 -0 0
    outer loop
      vertex 0 50 8
      vertex 0 0 0
      vertex 0 0 8
    endloop
  endfacet
  facet normal 0 -1 0
    outer loop
      vertex 0 0 0
      vertex 30 0 8
      vertex 0 0 8
    endloop
  endfacet
  facet normal 0 -1 -0
    outer loop
      vertex 30 0 8
      vertex 0 0 0
      vertex 30 0 0
    endloop
  endfacet
  facet normal 1 -0 0
    outer loop
      vertex 30 0 8
      vertex 30 50 0
      vertex 30 50 8
    endloop
  endfacet
  facet normal 1 0 0
    outer loop
      vertex 30 50 0
      vertex 30 0 8
      vertex 30 0 0
    endloop
  endfacet
  facet normal 1 0 0
    outer loop
      vertex 1.5 50 8
      vertex 1.5 48.5 5
      vertex 1.5 50 5
    endloop
  endfacet
  facet normal 1 -0 0
    outer loop
      vertex 1.5 1.5 8
      vertex 1.5 48.5 5
      vertex 1.5 50 8
    endloop
  endfacet
  facet normal 1 0 0
    outer loop
      vertex 1.5 1.5 3
      vertex 1.5 48.5 5
      vertex 1.5 1.5 8
    endloop
  endfacet
  facet normal 1 0 0
    outer loop
      vertex 1.5 48.5 5
      vertex 1.5 1.5 3
      vertex 1.5 48.5 3
    endloop
  endfacet
  facet normal 0 -1 0
    outer loop
      vertex 1.5 48.5 3
      vertex 28.5 48.5 5
      vertex 1.5 48.5 5
    endloop
  endfacet
  facet normal 0 -1 -0
    outer loop
      vertex 28.5 48.5 5
      vertex 1.5 48.5 3
      vertex 28.5 48.5 3
    endloop
  endfacet
  facet normal -1 0 0
    outer loop
      vertex 28.5 48.5 3
      vertex 28.5 1.5 3
      vertex 28.5 48.5 5
    endloop
  endfacet
  facet normal -1 0 0
    outer loop
      vertex 28.5 48.5 5
      vertex 28.5 50 8
      vertex 28.5 50 5
    endloop
  endfacet
  facet normal -1 0 0
    outer loop
      vertex 28.5 1.5 8
      vertex 28.5 48.5 5
      vertex 28.5 1.5 3
    endloop
  endfacet
  facet normal -1 0 0
    outer loop
      vertex 28.5 48.5 5
      vertex 28.5 1.5 8
      vertex 28.5 50 8
    endloop
  endfacet
  facet normal 0 1 -0
    outer loop
      vertex 28.5 1.5 3
      vertex 1.5 1.5 8
      vertex 28.5 1.5 8
    endloop
  endfacet
  facet normal 0 1 0
    outer loop
      vertex 1.5 1.5 8
      vertex 28.5 1.5 3
      vertex 1.5 1.5 3
    endloop
  endfacet
  facet normal 0 0 1
    outer loop
      vertex 1.5 50 8
      vertex 0 50 8
      vertex 1.5 1.5 8
    endloop
  endfacet
  facet normal 0 0 1
    outer loop
      vertex 28.5 1.5 8
      vertex 30 50 8
      vertex 28.5 50 8
    endloop
  endfacet
  facet normal 0 0 1
    outer loop
      vertex 30 50 8
      vertex 28.5 1.5 8
      vertex 30 0 8
    endloop
  endfacet
  facet normal -0 0 1
    outer loop
      vertex 1.5 1.5 8
      vertex 30 0 8
      vertex 28.5 1.5 8
    endloop
  endfacet
  facet normal 0 0 1
    outer loop
      vertex 1.5 1.5 8
      vertex 0 0 8
      vertex 30 0 8
    endloop
  endfacet
  facet normal 0 0 1
    outer loop
      vertex 0 0 8
      vertex 1.5 1.5 8
      vertex 0 50 8
    endloop
  endfacet
  facet normal 0 0 1
    outer loop
      vertex 28.5 48.5 3
      vertex 27 47 3
      vertex 28.5 1.5 3
    endloop
  endfacet
  facet normal 0 0 1
    outer loop
      vertex 28.5 48.5 3
      vertex 3 47 3
      vertex 27 47 3
    endloop
  endfacet
  facet normal 0 0 1
    outer loop
      vertex 3 47 3
      vertex 1.5 48.5 3
      vertex 3 3 3
    endloop
  endfacet
  facet normal -0 0 1
    outer loop
      vertex 1.5 48.5 3
      vertex 3 47 3
      vertex 28.5 48.5 3
    endloop
  endfacet
  facet normal -0 0 1
    outer loop
      vertex 27 3 3
      vertex 28.5 1.5 3
      vertex 27 47 3
    endloop
  endfacet
  facet normal -0 0 1
    outer loop
      vertex 3 3 3
      vertex 28.5 1.5 3
      vertex 27 3 3
    endloop
  endfacet
  facet normal 0 0 1
    outer loop
      vertex 3 3 3
      vertex 1.5 1.5 3
      vertex 28.5 1.5 3
    endloop
  endfacet
  facet normal 0 0 1
    outer loop
      vertex 1.5 1.5 3
      vertex 3 3 3
      vertex 1.5 48.5 3
    endloop
  endfacet
  facet normal 1 -0 0
    outer loop
      vertex 3 3 3
      vertex 3 47 0
      vertex 3 47 3
    endloop
  endfacet
  facet normal 1 0 0
    outer loop
      vertex 3 47 0
      vertex 3 3 3
      vertex 3 3 0
    endloop
  endfacet
  facet normal 0 -1 0
    outer loop
      vertex 3 47 0
      vertex 27 47 3
      vertex 3 47 3
    endloop
  endfacet
  facet normal 0 -1 -0
    outer loop
      vertex 27 47 3
      vertex 3 47 0
      vertex 27 47 0
    endloop
  endfacet
  facet normal -1 0 0
    outer loop
      vertex 27 3 0
      vertex 27 47 3
      vertex 27 47 0
    endloop
  endfacet
  facet normal -1 -0 0
    outer loop
      vertex 27 47 3
      vertex 27 3 0
      vertex 27 3 3
    endloop
  endfacet
  facet normal 0 1 -0
    outer loop
      vertex 27 3 0
      vertex 3 3 3
      vertex 27 3 3
    endloop
  endfacet
  facet normal 0 1 0
    outer loop
      vertex 3 3 3
      vertex 27 3 0
      vertex 3 3 0
    endloop
  endfacet
endsolid OpenSCAD_Model
