solid OpenSCAD_Model
  facet normal -0.894427 -0.447214 0
    outer loop
      vertex 0 2 0.299999
      vertex -0.43154 2.86308 4.5
      vertex -0.43154 2.86308 0.299999
    endloop
  endfacet
  facet normal -0.894427 -0.447214 0
    outer loop
      vertex -0.43154 2.86308 4.5
      vertex 0 2 0.299999
      vertex 0 2 4.5
    endloop
  endfacet
  facet normal 0.894427 -0.447214 0
    outer loop
      vertex 0 2 4.5
      vertex 0.43154 2.86308 0.299999
      vertex 0.43154 2.86308 4.5
    endloop
  endfacet
  facet normal 0.894427 -0.447214 0
    outer loop
      vertex 0.43154 2.86308 0.299999
      vertex 0 2 4.5
      vertex 0 2 0.299999
    endloop
  endfacet
  facet normal -0.722872 -0.690982 0
    outer loop
      vertex -0.58951 1.91115 0.299999
      vertex -1.25627 2.60868 4.5
      vertex -1.25627 2.60868 0.299999
    endloop
  endfacet
  facet normal -0.722872 -0.690982 0
    outer loop
      vertex -1.25627 2.60868 4.5
      vertex -0.58951 1.91115 0.299999
      vertex -0.58951 1.91115 4.5
    endloop
  endfacet
  facet normal 0.986509 -0.163708 0
    outer loop
      vertex -0.58951 1.91115 4.5
      vertex -0.43154 2.86308 0.299999
      vertex -0.43154 2.86308 4.5
    endloop
  endfacet
  facet normal 0.986509 -0.163708 0
    outer loop
      vertex -0.43154 2.86308 0.299999
      vertex -0.58951 1.91115 4.5
      vertex -0.58951 1.91115 0.299999
    endloop
  endfacet
  facet normal -0.487086 -0.873354 0
    outer loop
      vertex -1.96938 2.12249 0.299999
      vertex -1.12664 1.65248 4.5
      vertex -1.96938 2.12249 4.5
    endloop
  endfacet
  facet normal -0.487086 -0.873354 -0
    outer loop
      vertex -1.12664 1.65248 4.5
      vertex -1.96938 2.12249 0.299999
      vertex -1.12664 1.65248 0.299999
    endloop
  endfacet
  facet normal 0.990935 0.134344 0
    outer loop
      vertex -1.12664 1.65248 4.5
      vertex -1.25627 2.60868 0.299999
      vertex -1.25627 2.60868 4.5
    endloop
  endfacet
  facet normal 0.990935 0.134344 0
    outer loop
      vertex -1.25627 2.60868 0.299999
      vertex -1.12664 1.65248 4.5
      vertex -1.12664 1.65248 0.299999
    endloop
  endfacet
  facet normal -0.208021 -0.978124 0
    outer loop
      vertex -2.50751 1.44771 0.299999
      vertex -1.56366 1.24698 4.5
      vertex -2.50751 1.44771 4.5
    endloop
  endfacet
  facet normal -0.208021 -0.978124 -0
    outer loop
      vertex -1.56366 1.24698 4.5
      vertex -2.50751 1.44771 0.299999
      vertex -1.56366 1.24698 0.299999
    endloop
  endfacet
  facet normal 0.907312 0.420458 0
    outer loop
      vertex -1.56366 1.24698 4.5
      vertex -1.96938 2.12249 0.299999
      vertex -1.96938 2.12249 4.5
    endloop
  endfacet
  facet normal 0.907312 0.420458 0
    outer loop
      vertex -1.96938 2.12249 0.299999
      vertex -1.56366 1.24698 4.5
      vertex -1.56366 1.24698 0.299999
    endloop
  endfacet
  facet normal 0.0895283 -0.995984 0
    outer loop
      vertex -2.82282 0.644291 0.299999
      vertex -1.86175 0.730681 4.5
      vertex -2.82282 0.644291 4.5
    endloop
  endfacet
  facet normal 0.0895283 -0.995984 0
    outer loop
      vertex -1.86175 0.730681 4.5
      vertex -2.82282 0.644291 0.299999
      vertex -1.86175 0.730681 0.299999
    endloop
  endfacet
  facet normal 0.74307 0.669213 0
    outer loop
      vertex -1.86175 0.730681 4.5
      vertex -2.50751 1.44771 0.299999
      vertex -2.50751 1.44771 4.5
    endloop
  endfacet
  facet normal 0.74307 0.669213 0
    outer loop
      vertex -2.50751 1.44771 0.299999
      vertex -1.86175 0.730681 4.5
      vertex -1.86175 0.730681 0.299999
    endloop
  endfacet
  facet normal 0.379122 -0.925347 0
    outer loop
      vertex -2.88732 -0.216375 0.299999
      vertex -1.99441 0.14946 4.5
      vertex -2.88732 -0.216375 4.5
    endloop
  endfacet
  facet normal 0.379122 -0.925347 0
    outer loop
      vertex -1.99441 0.14946 4.5
      vertex -2.88732 -0.216375 0.299999
      vertex -1.99441 0.14946 0.299999
    endloop
  endfacet
  facet normal 0.512804 0.858506 -0
    outer loop
      vertex -1.99441 0.14946 0.299999
      vertex -2.82282 0.644291 4.5
      vertex -1.99441 0.14946 4.5
    endloop
  endfacet
  facet normal 0.512804 0.858506 0
    outer loop
      vertex -2.82282 0.644291 4.5
      vertex -1.99441 0.14946 0.299999
      vertex -2.82282 0.644291 0.299999
    endloop
  endfacet
  facet normal 0.63503 -0.772487 0
    outer loop
      vertex -2.69527 -1.05781 0.299999
      vertex -1.94986 -0.445042 4.5
      vertex -2.69527 -1.05781 4.5
    endloop
  endfacet
  facet normal 0.63503 -0.772487 0
    outer loop
      vertex -1.94986 -0.445042 4.5
      vertex -2.69527 -1.05781 0.299999
      vertex -1.94986 -0.445042 0.299999
    endloop
  endfacet
  facet normal 0.236972 0.971516 -0
    outer loop
      vertex -1.94986 -0.445042 0.299999
      vertex -2.88732 -0.216375 4.5
      vertex -1.94986 -0.445042 4.5
    endloop
  endfacet
  facet normal 0.236972 0.971516 0
    outer loop
      vertex -2.88732 -0.216375 4.5
      vertex -1.94986 -0.445042 0.299999
      vertex -2.88732 -0.216375 0.299999
    endloop
  endfacet
  facet normal 0.834512 -0.55099 0
    outer loop
      vertex -2.26373 -1.80526 4.5
      vertex -1.73205 -0.999999 0.299999
      vertex -1.73205 -0.999999 4.5
    endloop
  endfacet
  facet normal 0.834512 -0.55099 0
    outer loop
      vertex -1.73205 -0.999999 0.299999
      vertex -2.26373 -1.80526 4.5
      vertex -2.26373 -1.80526 0.299999
    endloop
  endfacet
  facet normal -0.0599158 0.998203 0
    outer loop
      vertex -1.73205 -0.999999 0.299999
      vertex -2.69527 -1.05781 4.5
      vertex -1.73205 -0.999999 4.5
    endloop
  endfacet
  facet normal -0.0599158 0.998203 0
    outer loop
      vertex -2.69527 -1.05781 4.5
      vertex -1.73205 -0.999999 0.299999
      vertex -2.69527 -1.05781 0.299999
    endloop
  endfacet
  facet normal 0.959844 -0.280535 0
    outer loop
      vertex -1.63105 -2.39231 4.5
      vertex -1.36034 -1.4661 0.299999
      vertex -1.36034 -1.4661 4.5
    endloop
  endfacet
  facet normal 0.959844 -0.280535 0
    outer loop
      vertex -1.36034 -1.4661 0.299999
      vertex -1.63105 -2.39231 4.5
      vertex -1.63105 -2.39231 0.299999
    endloop
  endfacet
  facet normal -0.351479 0.936196 0
    outer loop
      vertex -1.36034 -1.4661 0.299999
      vertex -2.26373 -1.80526 4.5
      vertex -1.36034 -1.4661 4.5
    endloop
  endfacet
  facet normal -0.351479 0.936196 0
    outer loop
      vertex -2.26373 -1.80526 4.5
      vertex -1.36034 -1.4661 0.299999
      vertex -2.26373 -1.80526 0.299999
    endloop
  endfacet
  facet normal -0.611812 0.791003 0
    outer loop
      vertex -0.867767 -1.80194 0.299999
      vertex -1.63105 -2.39231 4.5
      vertex -0.867767 -1.80194 4.5
    endloop
  endfacet
  facet normal -0.611812 0.791003 0
    outer loop
      vertex -1.63105 -2.39231 4.5
      vertex -0.867767 -1.80194 0.299999
      vertex -1.63105 -2.39231 0.299999
    endloop
  endfacet
  facet normal 0.99989 0.014848 0
    outer loop
      vertex -0.85344 -2.76678 4.5
      vertex -0.867767 -1.80194 0.299999
      vertex -0.867767 -1.80194 4.5
    endloop
  endfacet
  facet normal 0.99989 0.014848 0
    outer loop
      vertex -0.867767 -1.80194 0.299999
      vertex -0.85344 -2.76678 4.5
      vertex -0.85344 -2.76678 0.299999
    endloop
  endfacet
  facet normal -0.817784 0.575526 0
    outer loop
      vertex -0.85344 -2.76678 0.299999
      vertex -0.298084 -1.97766 4.5
      vertex -0.298084 -1.97766 0.299999
    endloop
  endfacet
  facet normal -0.817784 0.575526 0
    outer loop
      vertex -0.298084 -1.97766 4.5
      vertex -0.85344 -2.76678 0.299999
      vertex -0.85344 -2.76678 4.5
    endloop
  endfacet
  facet normal 0.951091 0.30891 0
    outer loop
      vertex 0 -2.89542 4.5
      vertex -0.298084 -1.97766 0.299999
      vertex -0.298084 -1.97766 4.5
    endloop
  endfacet
  facet normal 0.951091 0.30891 0
    outer loop
      vertex -0.298084 -1.97766 0.299999
      vertex 0 -2.89542 4.5
      vertex 0 -2.89542 0.299999
    endloop
  endfacet
  facet normal -0.951091 0.30891 0
    outer loop
      vertex 0 -2.89542 0.299999
      vertex 0.298084 -1.97766 4.5
      vertex 0.298084 -1.97766 0.299999
    endloop
  endfacet
  facet normal -0.951091 0.30891 0
    outer loop
      vertex 0.298084 -1.97766 4.5
      vertex 0 -2.89542 0.299999
      vertex 0 -2.89542 4.5
    endloop
  endfacet
  facet normal 0.817784 0.575526 0
    outer loop
      vertex 0.85344 -2.76678 4.5
      vertex 0.298084 -1.97766 0.299999
      vertex 0.298084 -1.97766 4.5
    endloop
  endfacet
  facet normal 0.817784 0.575526 0
    outer loop
      vertex 0.298084 -1.97766 0.299999
      vertex 0.85344 -2.76678 4.5
      vertex 0.85344 -2.76678 0.299999
    endloop
  endfacet
  facet normal -0.99989 0.014848 0
    outer loop
      vertex 0.85344 -2.76678 0.299999
      vertex 0.867767 -1.80194 4.5
      vertex 0.867767 -1.80194 0.299999
    endloop
  endfacet
  facet normal -0.99989 0.014848 0
    outer loop
      vertex 0.867767 -1.80194 4.5
      vertex 0.85344 -2.76678 0.299999
      vertex 0.85344 -2.76678 4.5
    endloop
  endfacet
  facet normal 0.611812 0.791003 -0
    outer loop
      vertex 1.63105 -2.39231 0.299999
      vertex 0.867767 -1.80194 4.5
      vertex 1.63105 -2.39231 4.5
    endloop
  endfacet
  facet normal 0.611812 0.791003 0
    outer loop
      vertex 0.867767 -1.80194 4.5
      vertex 1.63105 -2.39231 0.299999
      vertex 0.867767 -1.80194 0.299999
    endloop
  endfacet
  facet normal -0.959844 -0.280535 0
    outer loop
      vertex 1.63105 -2.39231 0.299999
      vertex 1.36034 -1.4661 4.5
      vertex 1.36034 -1.4661 0.299999
    endloop
  endfacet
  facet normal -0.959844 -0.280535 0
    outer loop
      vertex 1.36034 -1.4661 4.5
      vertex 1.63105 -2.39231 0.299999
      vertex 1.63105 -2.39231 4.5
    endloop
  endfacet
  facet normal 0.351479 0.936196 -0
    outer loop
      vertex 2.26373 -1.80526 0.299999
      vertex 1.36034 -1.4661 4.5
      vertex 2.26373 -1.80526 4.5
    endloop
  endfacet
  facet normal 0.351479 0.936196 0
    outer loop
      vertex 1.36034 -1.4661 4.5
      vertex 2.26373 -1.80526 0.299999
      vertex 1.36034 -1.4661 0.299999
    endloop
  endfacet
  facet normal -0.834512 -0.55099 0
    outer loop
      vertex 2.26373 -1.80526 0.299999
      vertex 1.73205 -1 4.5
      vertex 1.73205 -1 0.299999
    endloop
  endfacet
  facet normal -0.834512 -0.55099 0
    outer loop
      vertex 1.73205 -1 4.5
      vertex 2.26373 -1.80526 0.299999
      vertex 2.26373 -1.80526 4.5
    endloop
  endfacet
  facet normal 0.0599149 0.998203 -0
    outer loop
      vertex 2.69527 -1.05782 0.299999
      vertex 1.73205 -1 4.5
      vertex 2.69527 -1.05782 4.5
    endloop
  endfacet
  facet normal 0.0599149 0.998203 0
    outer loop
      vertex 1.73205 -1 4.5
      vertex 2.69527 -1.05782 0.299999
      vertex 1.73205 -1 0.299999
    endloop
  endfacet
  facet normal 0.866186 -0.499722 0
    outer loop
      vertex 2.59807 -1.5 4.5
      vertex 2.59808 -1.5 0.299999
      vertex 2.59808 -1.5 4.5
    endloop
  endfacet
  facet normal 0.866186 -0.499722 0
    outer loop
      vertex 2.59808 -1.5 0.299999
      vertex 2.59807 -1.5 4.5
      vertex 2.59807 -1.5 0.299999
    endloop
  endfacet
  facet normal -0.63503 -0.772487 0
    outer loop
      vertex 1.94986 -0.445042 0.299999
      vertex 2.69527 -1.05782 4.5
      vertex 1.94986 -0.445042 4.5
    endloop
  endfacet
  facet normal -0.63503 -0.772487 -0
    outer loop
      vertex 2.69527 -1.05782 4.5
      vertex 1.94986 -0.445042 0.299999
      vertex 2.69527 -1.05782 0.299999
    endloop
  endfacet
  facet normal -0.236972 0.971516 0
    outer loop
      vertex 2.88732 -0.216375 0.299999
      vertex 1.94986 -0.445042 4.5
      vertex 2.88732 -0.216375 4.5
    endloop
  endfacet
  facet normal -0.236972 0.971516 0
    outer loop
      vertex 1.94986 -0.445042 4.5
      vertex 2.88732 -0.216375 0.299999
      vertex 1.94986 -0.445042 0.299999
    endloop
  endfacet
  facet normal -0.379122 -0.925347 0
    outer loop
      vertex 1.99441 0.14946 0.299999
      vertex 2.88732 -0.216375 4.5
      vertex 1.99441 0.14946 4.5
    endloop
  endfacet
  facet normal -0.379122 -0.925347 -0
    outer loop
      vertex 2.88732 -0.216375 4.5
      vertex 1.99441 0.14946 0.299999
      vertex 2.88732 -0.216375 0.299999
    endloop
  endfacet
  facet normal -0.512804 0.858506 0
    outer loop
      vertex 2.82282 0.644291 0.299999
      vertex 1.99441 0.14946 4.5
      vertex 2.82282 0.644291 4.5
    endloop
  endfacet
  facet normal -0.512804 0.858506 0
    outer loop
      vertex 1.99441 0.14946 4.5
      vertex 2.82282 0.644291 0.299999
      vertex 1.99441 0.14946 0.299999
    endloop
  endfacet
  facet normal -0.0895283 -0.995984 0
    outer loop
      vertex 1.86175 0.730681 0.299999
      vertex 2.82282 0.644291 4.5
      vertex 1.86175 0.730681 4.5
    endloop
  endfacet
  facet normal -0.0895283 -0.995984 -0
    outer loop
      vertex 2.82282 0.644291 4.5
      vertex 1.86175 0.730681 0.299999
      vertex 2.82282 0.644291 0.299999
    endloop
  endfacet
  facet normal -0.74307 0.669213 0
    outer loop
      vertex 1.86175 0.730681 0.299999
      vertex 2.50751 1.44771 4.5
      vertex 2.50751 1.44771 0.299999
    endloop
  endfacet
  facet normal -0.74307 0.669213 0
    outer loop
      vertex 2.50751 1.44771 4.5
      vertex 1.86175 0.730681 0.299999
      vertex 1.86175 0.730681 4.5
    endloop
  endfacet
  facet normal 0.208021 -0.978124 0
    outer loop
      vertex 1.56366 1.24698 0.299999
      vertex 2.50751 1.44771 4.5
      vertex 1.56366 1.24698 4.5
    endloop
  endfacet
  facet normal 0.208021 -0.978124 0
    outer loop
      vertex 2.50751 1.44771 4.5
      vertex 1.56366 1.24698 0.299999
      vertex 2.50751 1.44771 0.299999
    endloop
  endfacet
  facet normal -0.907312 0.420458 0
    outer loop
      vertex 1.56366 1.24698 0.299999
      vertex 1.96938 2.12249 4.5
      vertex 1.96938 2.12249 0.299999
    endloop
  endfacet
  facet normal -0.907312 0.420458 0
    outer loop
      vertex 1.96938 2.12249 4.5
      vertex 1.56366 1.24698 0.299999
      vertex 1.56366 1.24698 4.5
    endloop
  endfacet
  facet normal 0.487086 -0.873354 0
    outer loop
      vertex 1.12664 1.65248 0.299999
      vertex 1.96938 2.12249 4.5
      vertex 1.12664 1.65248 4.5
    endloop
  endfacet
  facet normal 0.487086 -0.873354 0
    outer loop
      vertex 1.96938 2.12249 4.5
      vertex 1.12664 1.65248 0.299999
      vertex 1.96938 2.12249 0.299999
    endloop
  endfacet
  facet normal -0.990935 0.134344 0
    outer loop
      vertex 1.12664 1.65248 0.299999
      vertex 1.25627 2.60868 4.5
      vertex 1.25627 2.60868 0.299999
    endloop
  endfacet
  facet normal -0.990935 0.134344 0
    outer loop
      vertex 1.25627 2.60868 4.5
      vertex 1.12664 1.65248 0.299999
      vertex 1.12664 1.65248 4.5
    endloop
  endfacet
  facet normal -0.986509 -0.163708 0
    outer loop
      vertex 0.58951 1.91115 0.299999
      vertex 0.43154 2.86308 4.5
      vertex 0.43154 2.86308 0.299999
    endloop
  endfacet
  facet normal -0.986509 -0.163708 0
    outer loop
      vertex 0.43154 2.86308 4.5
      vertex 0.58951 1.91115 0.299999
      vertex 0.58951 1.91115 4.5
    endloop
  endfacet
  facet normal 0.722872 -0.690982 0
    outer loop
      vertex 0.58951 1.91115 4.5
      vertex 1.25627 2.60868 0.299999
      vertex 1.25627 2.60868 4.5
    endloop
  endfacet
  facet normal 0.722872 -0.690982 0
    outer loop
      vertex 1.25627 2.60868 0.299999
      vertex 0.58951 1.91115 4.5
      vertex 0.58951 1.91115 0.299999
    endloop
  endfacet
  facet normal 0 0 -1
    outer loop
      vertex 18 -5 0
      vertex 3.1 0 0
      vertex 18 5 0
    endloop
  endfacet
  facet normal 0 0 -1
    outer loop
      vertex 18 -5 0
      vertex 3.07348 -0.404631 0
      vertex 3.1 0 0
    endloop
  endfacet
  facet normal 0 0 -1
    outer loop
      vertex 18 -5 0
      vertex 2.99437 -0.802339 0
      vertex 3.07348 -0.404631 0
    endloop
  endfacet
  facet normal 0 0 -1
    outer loop
      vertex 18 -5 0
      vertex 2.86403 -1.18632 0
      vertex 2.99437 -0.802339 0
    endloop
  endfacet
  facet normal 0 0 -1
    outer loop
      vertex 18 -5 0
      vertex 2.68468 -1.55 0
      vertex 2.86403 -1.18632 0
    endloop
  endfacet
  facet normal 0 0 -1
    outer loop
      vertex 18 -5 0
      vertex 2.45939 -1.88716 0
      vertex 2.68468 -1.55 0
    endloop
  endfacet
  facet normal 0 0 -1
    outer loop
      vertex 18 -5 0
      vertex 2.19203 -2.19203 0
      vertex 2.45939 -1.88716 0
    endloop
  endfacet
  facet normal 0 0 -1
    outer loop
      vertex 18 -5 0
      vertex 1.88716 -2.45939 0
      vertex 2.19203 -2.19203 0
    endloop
  endfacet
  facet normal 0 0 -1
    outer loop
      vertex 18 -5 0
      vertex 1.55 -2.68468 0
      vertex 1.88716 -2.45939 0
    endloop
  endfacet
  facet normal 0 0 -1
    outer loop
      vertex 18 -5 0
      vertex 1.18632 -2.86403 0
      vertex 1.55 -2.68468 0
    endloop
  endfacet
  facet normal 0 0 -1
    outer loop
      vertex 18 -5 0
      vertex 0.802339 -2.99437 0
      vertex 1.18632 -2.86403 0
    endloop
  endfacet
  facet normal 0 0 -1
    outer loop
      vertex 18 -5 0
      vertex 0.404631 -3.07348 0
      vertex 0.802339 -2.99437 0
    endloop
  endfacet
  facet normal 0 0 -1
    outer loop
      vertex -10 -5 0
      vertex 0.404631 -3.07348 0
      vertex 18 -5 0
    endloop
  endfacet
  facet normal 0 0 -1
    outer loop
      vertex 0.404631 -3.07348 0
      vertex -10 -5 0
      vertex 0 -3.1 0
    endloop
  endfacet
  facet normal -0 0 -1
    outer loop
      vertex -3.07348 -0.404631 0
      vertex -10 -5 0
      vertex -3.1 0 0
    endloop
  endfacet
  facet normal -0 0 -1
    outer loop
      vertex -2.99437 -0.802339 0
      vertex -10 -5 0
      vertex -3.07348 -0.404631 0
    endloop
  endfacet
  facet normal -0 0 -1
    outer loop
      vertex -2.86403 -1.18632 0
      vertex -10 -5 0
      vertex -2.99437 -0.802339 0
    endloop
  endfacet
  facet normal -0 0 -1
    outer loop
      vertex -2.68468 -1.55 0
      vertex -10 -5 0
      vertex -2.86403 -1.18632 0
    endloop
  endfacet
  facet normal -0 0 -1
    outer loop
      vertex -2.45939 -1.88716 0
      vertex -10 -5 0
      vertex -2.68468 -1.55 0
    endloop
  endfacet
  facet normal -0 0 -1
    outer loop
      vertex -2.19203 -2.19203 0
      vertex -10 -5 0
      vertex -2.45939 -1.88716 0
    endloop
  endfacet
  facet normal -0 0 -1
    outer loop
      vertex -1.88716 -2.45939 0
      vertex -10 -5 0
      vertex -2.19203 -2.19203 0
    endloop
  endfacet
  facet normal -0 0 -1
    outer loop
      vertex -1.55 -2.68468 0
      vertex -10 -5 0
      vertex -1.88716 -2.45939 0
    endloop
  endfacet
  facet normal -0 0 -1
    outer loop
      vertex -1.18632 -2.86403 0
      vertex -10 -5 0
      vertex -1.55 -2.68468 0
    endloop
  endfacet
  facet normal -0 0 -1
    outer loop
      vertex -0.802339 -2.99437 0
      vertex -10 -5 0
      vertex -1.18632 -2.86403 0
    endloop
  endfacet
  facet normal -0 0 -1
    outer loop
      vertex -0.404631 -3.07348 0
      vertex -10 -5 0
      vertex -0.802339 -2.99437 0
    endloop
  endfacet
  facet normal -0 0 -1
    outer loop
      vertex 0 -3.1 0
      vertex -10 -5 0
      vertex -0.404631 -3.07348 0
    endloop
  endfacet
  facet normal 0 0 -1
    outer loop
      vertex 18 -5 0
      vertex 25.85 -24.65 0
      vertex 18 -24.65 0
    endloop
  endfacet
  facet normal 0 0 -1
    outer loop
      vertex 25.85 -24.65 0
      vertex 18 -5 0
      vertex 25.85 24.65 0
    endloop
  endfacet
  facet normal 0 0 -1
    outer loop
      vertex 18 5 0
      vertex 25.85 24.65 0
      vertex 18 -5 0
    endloop
  endfacet
  facet normal -0 0 -1
    outer loop
      vertex 25.85 24.65 0
      vertex 18 5 0
      vertex 18 24.65 0
    endloop
  endfacet
  facet normal 0 0 -1
    outer loop
      vertex 3.07348 0.404631 0
      vertex 18 5 0
      vertex 3.1 0 0
    endloop
  endfacet
  facet normal 0 0 -1
    outer loop
      vertex 2.99437 0.802339 0
      vertex 18 5 0
      vertex 3.07348 0.404631 0
    endloop
  endfacet
  facet normal 0 0 -1
    outer loop
      vertex 2.86403 1.18632 0
      vertex 18 5 0
      vertex 2.99437 0.802339 0
    endloop
  endfacet
  facet normal 0 0 -1
    outer loop
      vertex 2.68468 1.55 0
      vertex 18 5 0
      vertex 2.86403 1.18632 0
    endloop
  endfacet
  facet normal 0 0 -1
    outer loop
      vertex 2.45939 1.88716 0
      vertex 18 5 0
      vertex 2.68468 1.55 0
    endloop
  endfacet
  facet normal 0 0 -1
    outer loop
      vertex 2.19203 2.19203 0
      vertex 18 5 0
      vertex 2.45939 1.88716 0
    endloop
  endfacet
  facet normal 0 0 -1
    outer loop
      vertex 1.88716 2.45939 0
      vertex 18 5 0
      vertex 2.19203 2.19203 0
    endloop
  endfacet
  facet normal 0 0 -1
    outer loop
      vertex 1.55 2.68468 0
      vertex 18 5 0
      vertex 1.88716 2.45939 0
    endloop
  endfacet
  facet normal 0 0 -1
    outer loop
      vertex 1.18632 2.86403 0
      vertex 18 5 0
      vertex 1.55 2.68468 0
    endloop
  endfacet
  facet normal 0 0 -1
    outer loop
      vertex 0.802339 2.99437 0
      vertex 18 5 0
      vertex 1.18632 2.86403 0
    endloop
  endfacet
  facet normal 0 0 -1
    outer loop
      vertex 0.404631 3.07348 0
      vertex 18 5 0
      vertex 0.802339 2.99437 0
    endloop
  endfacet
  facet normal 0 0 -1
    outer loop
      vertex -10 5 0
      vertex 0.404631 3.07348 0
      vertex 0 3.1 0
    endloop
  endfacet
  facet normal 0 0 -1
    outer loop
      vertex -10 5 0
      vertex 0 3.1 0
      vertex -0.404631 3.07348 0
    endloop
  endfacet
  facet normal 0 0 -1
    outer loop
      vertex -10 5 0
      vertex -3.1 0 0
      vertex -10 -5 0
    endloop
  endfacet
  facet normal 0 0 -1
    outer loop
      vertex -3.1 0 0
      vertex -10 5 0
      vertex -3.07348 0.404631 0
    endloop
  endfacet
  facet normal 0 0 -1
    outer loop
      vertex -3.07348 0.404631 0
      vertex -10 5 0
      vertex -2.99437 0.802339 0
    endloop
  endfacet
  facet normal 0 0 -1
    outer loop
      vertex -2.99437 0.802339 0
      vertex -10 5 0
      vertex -2.86403 1.18632 0
    endloop
  endfacet
  facet normal 0 0 -1
    outer loop
      vertex -2.86403 1.18632 0
      vertex -10 5 0
      vertex -2.68468 1.55 0
    endloop
  endfacet
  facet normal 0 0 -1
    outer loop
      vertex -2.68468 1.55 0
      vertex -10 5 0
      vertex -2.45939 1.88716 0
    endloop
  endfacet
  facet normal 0 0 -1
    outer loop
      vertex 0.404631 3.07348 0
      vertex -10 5 0
      vertex 18 5 0
    endloop
  endfacet
  facet normal 0 0 -1
    outer loop
      vertex -0.802339 2.99437 0
      vertex -10 5 0
      vertex -0.404631 3.07348 0
    endloop
  endfacet
  facet normal 0 0 -1
    outer loop
      vertex -1.18632 2.86403 0
      vertex -10 5 0
      vertex -0.802339 2.99437 0
    endloop
  endfacet
  facet normal 0 0 -1
    outer loop
      vertex -1.55 2.68468 0
      vertex -10 5 0
      vertex -1.18632 2.86403 0
    endloop
  endfacet
  facet normal 0 0 -1
    outer loop
      vertex -1.88716 2.45939 0
      vertex -10 5 0
      vertex -1.55 2.68468 0
    endloop
  endfacet
  facet normal 0 0 -1
    outer loop
      vertex -2.19203 2.19203 0
      vertex -10 5 0
      vertex -1.88716 2.45939 0
    endloop
  endfacet
  facet normal 0 0 -1
    outer loop
      vertex -2.45939 1.88716 0
      vertex -10 5 0
      vertex -2.19203 2.19203 0
    endloop
  endfacet
  facet normal -0.842271 0.539054 0
    outer loop
      vertex 2.59807 -1.5 0.299999
      vertex 2.59808 -1.5 4.5
      vertex 2.59808 -1.5 0.299999
    endloop
  endfacet
  facet normal -0.842271 0.539054 0
    outer loop
      vertex 2.59808 -1.5 4.5
      vertex 2.59807 -1.5 0.299999
      vertex 2.59807 -1.5 4.5
    endloop
  endfacet
  facet normal -0.896872 -0.44229 0
    outer loop
      vertex 2.86403 1.18632 0
      vertex 2.68468 1.55 0.299999
      vertex 2.68468 1.55 0
    endloop
  endfacet
  facet normal -0.896872 -0.44229 0
    outer loop
      vertex 2.68468 1.55 0.299999
      vertex 2.86403 1.18632 0
      vertex 2.86403 1.18632 0.299999
    endloop
  endfacet
  facet normal -0.83147 -0.55557 0
    outer loop
      vertex 2.68468 1.55 0
      vertex 2.45939 1.88716 0.299999
      vertex 2.45939 1.88716 0
    endloop
  endfacet
  facet normal -0.83147 -0.55557 0
    outer loop
      vertex 2.45939 1.88716 0.299999
      vertex 2.68468 1.55 0
      vertex 2.68468 1.55 0.299999
    endloop
  endfacet
  facet normal -0.195091 -0.980785 0
    outer loop
      vertex 0.404631 3.07348 0
      vertex 0.802339 2.99437 0.299999
      vertex 0.404631 3.07348 0.299999
    endloop
  endfacet
  facet normal -0.195091 -0.980785 -0
    outer loop
      vertex 0.802339 2.99437 0.299999
      vertex 0.404631 3.07348 0
      vertex 0.802339 2.99437 0
    endloop
  endfacet
  facet normal -0.321439 -0.94693 0
    outer loop
      vertex 0.802339 2.99437 0
      vertex 1.18632 2.86403 0.299999
      vertex 0.802339 2.99437 0.299999
    endloop
  endfacet
  facet normal -0.321439 -0.94693 -0
    outer loop
      vertex 1.18632 2.86403 0.299999
      vertex 0.802339 2.99437 0
      vertex 1.18632 2.86403 0
    endloop
  endfacet
  facet normal 0.321439 -0.94693 0
    outer loop
      vertex -1.18632 2.86403 0
      vertex -0.802339 2.99437 0.299999
      vertex -1.18632 2.86403 0.299999
    endloop
  endfacet
  facet normal 0.321439 -0.94693 0
    outer loop
      vertex -0.802339 2.99437 0.299999
      vertex -1.18632 2.86403 0
      vertex -0.802339 2.99437 0
    endloop
  endfacet
  facet normal 0.896872 -0.44229 0
    outer loop
      vertex -2.86403 1.18632 0.299999
      vertex -2.68468 1.55 0
      vertex -2.68468 1.55 0.299999
    endloop
  endfacet
  facet normal 0.896872 -0.44229 0
    outer loop
      vertex -2.68468 1.55 0
      vertex -2.86403 1.18632 0.299999
      vertex -2.86403 1.18632 0
    endloop
  endfacet
  facet normal -0.980785 0.195091 0
    outer loop
      vertex 2.99437 -0.802339 0
      vertex 3.07348 -0.404631 0.299999
      vertex 3.07348 -0.404631 0
    endloop
  endfacet
  facet normal -0.980785 0.195091 0
    outer loop
      vertex 3.07348 -0.404631 0.299999
      vertex 2.99437 -0.802339 0
      vertex 2.99437 -0.802339 0.299999
    endloop
  endfacet
  facet normal -0.659345 -0.751841 0
    outer loop
      vertex 1.88716 2.45939 0
      vertex 2.19203 2.19203 0.299999
      vertex 1.88716 2.45939 0.299999
    endloop
  endfacet
  facet normal -0.659345 -0.751841 -0
    outer loop
      vertex 2.19203 2.19203 0.299999
      vertex 1.88716 2.45939 0
      vertex 2.19203 2.19203 0
    endloop
  endfacet
  facet normal -0.44229 -0.896872 0
    outer loop
      vertex 1.18632 2.86403 0
      vertex 1.55 2.68468 0.299999
      vertex 1.18632 2.86403 0.299999
    endloop
  endfacet
  facet normal -0.44229 -0.896872 -0
    outer loop
      vertex 1.55 2.68468 0.299999
      vertex 1.18632 2.86403 0
      vertex 1.55 2.68468 0
    endloop
  endfacet
  facet normal 0.997859 -0.0654027 0
    outer loop
      vertex -3.1 0 0.299999
      vertex -3.07348 0.404631 0
      vertex -3.07348 0.404631 0.299999
    endloop
  endfacet
  facet normal 0.997859 -0.0654027 0
    outer loop
      vertex -3.07348 0.404631 0
      vertex -3.1 0 0.299999
      vertex -3.1 0 0
    endloop
  endfacet
  facet normal 0.751841 -0.659345 0
    outer loop
      vertex -2.45939 1.88716 0.299999
      vertex -2.19203 2.19203 0
      vertex -2.19203 2.19203 0.299999
    endloop
  endfacet
  facet normal 0.751841 -0.659345 0
    outer loop
      vertex -2.19203 2.19203 0
      vertex -2.45939 1.88716 0.299999
      vertex -2.45939 1.88716 0
    endloop
  endfacet
  facet normal 0.195091 -0.980785 0
    outer loop
      vertex -0.802339 2.99437 0
      vertex -0.404631 3.07348 0.299999
      vertex -0.802339 2.99437 0.299999
    endloop
  endfacet
  facet normal 0.195091 -0.980785 0
    outer loop
      vertex -0.404631 3.07348 0.299999
      vertex -0.802339 2.99437 0
      vertex -0.404631 3.07348 0
    endloop
  endfacet
  facet normal 0.659345 -0.751841 0
    outer loop
      vertex -2.19203 2.19203 0
      vertex -1.88716 2.45939 0.299999
      vertex -2.19203 2.19203 0.299999
    endloop
  endfacet
  facet normal 0.659345 -0.751841 0
    outer loop
      vertex -1.88716 2.45939 0.299999
      vertex -2.19203 2.19203 0
      vertex -1.88716 2.45939 0
    endloop
  endfacet
  facet normal -0.997859 0.0654027 0
    outer loop
      vertex 3.07348 -0.404631 0
      vertex 3.1 0 0.299999
      vertex 3.1 0 0
    endloop
  endfacet
  facet normal -0.997859 0.0654027 0
    outer loop
      vertex 3.1 0 0.299999
      vertex 3.07348 -0.404631 0
      vertex 3.07348 -0.404631 0.299999
    endloop
  endfacet
  facet normal -0.94693 0.321439 0
    outer loop
      vertex 2.86403 -1.18632 0
      vertex 2.99437 -0.802339 0.299999
      vertex 2.99437 -0.802339 0
    endloop
  endfacet
  facet normal -0.94693 0.321439 0
    outer loop
      vertex 2.99437 -0.802339 0.299999
      vertex 2.86403 -1.18632 0
      vertex 2.86403 -1.18632 0.299999
    endloop
  endfacet
  facet normal 0.659345 0.751841 -0
    outer loop
      vertex -1.88716 -2.45939 0
      vertex -2.19203 -2.19203 0.299999
      vertex -1.88716 -2.45939 0.299999
    endloop
  endfacet
  facet normal 0.659345 0.751841 0
    outer loop
      vertex -2.19203 -2.19203 0.299999
      vertex -1.88716 -2.45939 0
      vertex -2.19203 -2.19203 0
    endloop
  endfacet
  facet normal 0.896872 0.44229 0
    outer loop
      vertex -2.68468 -1.55 0.299999
      vertex -2.86403 -1.18632 0
      vertex -2.86403 -1.18632 0.299999
    endloop
  endfacet
  facet normal 0.896872 0.44229 0
    outer loop
      vertex -2.86403 -1.18632 0
      vertex -2.68468 -1.55 0.299999
      vertex -2.68468 -1.55 0
    endloop
  endfacet
  facet normal -0.94693 -0.321439 0
    outer loop
      vertex 2.99437 0.802339 0
      vertex 2.86403 1.18632 0.299999
      vertex 2.86403 1.18632 0
    endloop
  endfacet
  facet normal -0.94693 -0.321439 0
    outer loop
      vertex 2.86403 1.18632 0.299999
      vertex 2.99437 0.802339 0
      vertex 2.99437 0.802339 0.299999
    endloop
  endfacet
  facet normal -0.751841 -0.659345 0
    outer loop
      vertex 2.45939 1.88716 0
      vertex 2.19203 2.19203 0.299999
      vertex 2.19203 2.19203 0
    endloop
  endfacet
  facet normal -0.751841 -0.659345 0
    outer loop
      vertex 2.19203 2.19203 0.299999
      vertex 2.45939 1.88716 0
      vertex 2.45939 1.88716 0.299999
    endloop
  endfacet
  facet normal 0.0654027 -0.997859 0
    outer loop
      vertex -0.404631 3.07348 0
      vertex 0 3.1 0.299999
      vertex -0.404631 3.07348 0.299999
    endloop
  endfacet
  facet normal 0.0654027 -0.997859 0
    outer loop
      vertex 0 3.1 0.299999
      vertex -0.404631 3.07348 0
      vertex 0 3.1 0
    endloop
  endfacet
  facet normal -0.55557 -0.83147 0
    outer loop
      vertex 1.55 2.68468 0
      vertex 1.88716 2.45939 0.299999
      vertex 1.55 2.68468 0.299999
    endloop
  endfacet
  facet normal -0.55557 -0.83147 -0
    outer loop
      vertex 1.88716 2.45939 0.299999
      vertex 1.55 2.68468 0
      vertex 1.88716 2.45939 0
    endloop
  endfacet
  facet normal 0 0 -1
    outer loop
      vertex -2.82282 0.644291 0.299999
      vertex -2.50751 1.44771 0.299999
      vertex -1.86175 0.730681 0.299999
    endloop
  endfacet
  facet normal 0 0 -1
    outer loop
      vertex -2.50751 1.44771 0.299999
      vertex -2.82282 0.644291 0.299999
      vertex -2.86403 1.18632 0.299999
    endloop
  endfacet
  facet normal -0 0 -1
    outer loop
      vertex -2.50751 1.44771 0.299999
      vertex -2.86403 1.18632 0.299999
      vertex -2.68468 1.55 0.299999
    endloop
  endfacet
  facet normal 0 0 -1
    outer loop
      vertex -2.50751 1.44771 0.299999
      vertex -1.96938 2.12249 0.299999
      vertex -1.56366 1.24698 0.299999
    endloop
  endfacet
  facet normal -0 0 -1
    outer loop
      vertex -1.96938 2.12249 0.299999
      vertex -2.45939 1.88716 0.299999
      vertex -2.19203 2.19203 0.299999
    endloop
  endfacet
  facet normal 0 0 -1
    outer loop
      vertex -1.96938 2.12249 0.299999
      vertex -2.50751 1.44771 0.299999
      vertex -2.45939 1.88716 0.299999
    endloop
  endfacet
  facet normal 0 0 -1
    outer loop
      vertex -2.45939 1.88716 0.299999
      vertex -2.50751 1.44771 0.299999
      vertex -2.68468 1.55 0.299999
    endloop
  endfacet
  facet normal 0 0 -1
    outer loop
      vertex -1.96938 2.12249 0.299999
      vertex -1.25627 2.60868 0.299999
      vertex -1.12664 1.65248 0.299999
    endloop
  endfacet
  facet normal 0 -0 -1
    outer loop
      vertex -1.88716 2.45939 0.299999
      vertex -1.25627 2.60868 0.299999
      vertex -1.96938 2.12249 0.299999
    endloop
  endfacet
  facet normal -0 0 -1
    outer loop
      vertex -1.25627 2.60868 0.299999
      vertex -1.88716 2.45939 0.299999
      vertex -1.55 2.68468 0.299999
    endloop
  endfacet
  facet normal 0 0 -1
    outer loop
      vertex -1.88716 2.45939 0.299999
      vertex -1.96938 2.12249 0.299999
      vertex -2.19203 2.19203 0.299999
    endloop
  endfacet
  facet normal 0 0 -1
    outer loop
      vertex 1.55 -2.68468 0.299999
      vertex 1.63105 -2.39231 0.299999
      vertex 1.88716 -2.45939 0.299999
    endloop
  endfacet
  facet normal 0 0 -1
    outer loop
      vertex 1.18632 -2.86403 0.299999
      vertex 1.63105 -2.39231 0.299999
      vertex 1.55 -2.68468 0.299999
    endloop
  endfacet
  facet normal 0 0 -1
    outer loop
      vertex 0.85344 -2.76678 0.299999
      vertex 1.63105 -2.39231 0.299999
      vertex 1.18632 -2.86403 0.299999
    endloop
  endfacet
  facet normal -0 0 -1
    outer loop
      vertex 1.63105 -2.39231 0.299999
      vertex 0.85344 -2.76678 0.299999
      vertex 0.867767 -1.80194 0.299999
    endloop
  endfacet
  facet normal 0 0 -1
    outer loop
      vertex 0.802339 -2.99437 0.299999
      vertex 0.85344 -2.76678 0.299999
      vertex 1.18632 -2.86403 0.299999
    endloop
  endfacet
  facet normal 0 0 -1
    outer loop
      vertex 0.404631 -3.07348 0.299999
      vertex 0.85344 -2.76678 0.299999
      vertex 0.802339 -2.99437 0.299999
    endloop
  endfacet
  facet normal 0 0 -1
    outer loop
      vertex 0 -2.89542 0.299999
      vertex 0.85344 -2.76678 0.299999
      vertex 0.404631 -3.07348 0.299999
    endloop
  endfacet
  facet normal 0 0 -1
    outer loop
      vertex 0 -2.89542 0.299999
      vertex 0.404631 -3.07348 0.299999
      vertex 0 -3.1 0.299999
    endloop
  endfacet
  facet normal -0 0 -1
    outer loop
      vertex 0.85344 -2.76678 0.299999
      vertex 0 -2.89542 0.299999
      vertex 0.298084 -1.97766 0.299999
    endloop
  endfacet
  facet normal 0 0 -1
    outer loop
      vertex -0.404631 -3.07348 0.299999
      vertex 0 -2.89542 0.299999
      vertex 0 -3.1 0.299999
    endloop
  endfacet
  facet normal 0 0 -1
    outer loop
      vertex -0.85344 -2.76678 0.299999
      vertex 0 -2.89542 0.299999
      vertex -0.404631 -3.07348 0.299999
    endloop
  endfacet
  facet normal 0 0 -1
    outer loop
      vertex -0.85344 -2.76678 0.299999
      vertex -0.404631 -3.07348 0.299999
      vertex -0.802339 -2.99437 0.299999
    endloop
  endfacet
  facet normal 0 0 -1
    outer loop
      vertex 0 -2.89542 0.299999
      vertex -0.85344 -2.76678 0.299999
      vertex -0.298084 -1.97766 0.299999
    endloop
  endfacet
  facet normal 0 0 -1
    outer loop
      vertex -1.18632 -2.86403 0.299999
      vertex -0.85344 -2.76678 0.299999
      vertex -0.802339 -2.99437 0.299999
    endloop
  endfacet
  facet normal 0 0 -1
    outer loop
      vertex -1.63105 -2.39231 0.299999
      vertex -0.85344 -2.76678 0.299999
      vertex -1.18632 -2.86403 0.299999
    endloop
  endfacet
  facet normal 0 0 -1
    outer loop
      vertex -1.63105 -2.39231 0.299999
      vertex -1.18632 -2.86403 0.299999
      vertex -1.55 -2.68468 0.299999
    endloop
  endfacet
  facet normal 0 0 -1
    outer loop
      vertex -0.85344 -2.76678 0.299999
      vertex -1.63105 -2.39231 0.299999
      vertex -0.867767 -1.80194 0.299999
    endloop
  endfacet
  facet normal 0 -0 -1
    outer loop
      vertex -1.63105 -2.39231 0.299999
      vertex -1.55 -2.68468 0.299999
      vertex -1.88716 -2.45939 0.299999
    endloop
  endfacet
  facet normal 0 0 -1
    outer loop
      vertex 2.19203 -2.19203 0.299999
      vertex 2.26373 -1.80526 0.299999
      vertex 2.45939 -1.88716 0.299999
    endloop
  endfacet
  facet normal 0 0 -1
    outer loop
      vertex 1.63105 -2.39231 0.299999
      vertex 2.19203 -2.19203 0.299999
      vertex 1.88716 -2.45939 0.299999
    endloop
  endfacet
  facet normal -0 0 -1
    outer loop
      vertex 2.19203 -2.19203 0.299999
      vertex 1.63105 -2.39231 0.299999
      vertex 2.26373 -1.80526 0.299999
    endloop
  endfacet
  facet normal -0 0 -1
    outer loop
      vertex 2.26373 -1.80526 0.299999
      vertex 1.63105 -2.39231 0.299999
      vertex 1.36034 -1.4661 0.299999
    endloop
  endfacet
  facet normal 0 0 -1
    outer loop
      vertex 2.50751 1.44771 0.299999
      vertex 2.45939 1.88716 0.299999
      vertex 2.68468 1.55 0.299999
    endloop
  endfacet
  facet normal 0 0 -1
    outer loop
      vertex 1.96938 2.12249 0.299999
      vertex 2.45939 1.88716 0.299999
      vertex 2.50751 1.44771 0.299999
    endloop
  endfacet
  facet normal 0 0 -1
    outer loop
      vertex 2.45939 1.88716 0.299999
      vertex 1.96938 2.12249 0.299999
      vertex 2.19203 2.19203 0.299999
    endloop
  endfacet
  facet normal 0 -0 -1
    outer loop
      vertex 1.96938 2.12249 0.299999
      vertex 2.50751 1.44771 0.299999
      vertex 1.56366 1.24698 0.299999
    endloop
  endfacet
  facet normal 0 0 -1
    outer loop
      vertex 1.96938 2.12249 0.299999
      vertex 1.88716 2.45939 0.299999
      vertex 2.19203 2.19203 0.299999
    endloop
  endfacet
  facet normal 0 0 -1
    outer loop
      vertex 1.25627 2.60868 0.299999
      vertex 1.88716 2.45939 0.299999
      vertex 1.96938 2.12249 0.299999
    endloop
  endfacet
  facet normal 0 0 -1
    outer loop
      vertex 1.88716 2.45939 0.299999
      vertex 1.25627 2.60868 0.299999
      vertex 1.55 2.68468 0.299999
    endloop
  endfacet
  facet normal 0 -0 -1
    outer loop
      vertex 1.25627 2.60868 0.299999
      vertex 1.96938 2.12249 0.299999
      vertex 1.12664 1.65248 0.299999
    endloop
  endfacet
  facet normal 0 0 -1
    outer loop
      vertex 1.25627 2.60868 0.299999
      vertex 1.18632 2.86403 0.299999
      vertex 1.55 2.68468 0.299999
    endloop
  endfacet
  facet normal 0 0 -1
    outer loop
      vertex 1.25627 2.60868 0.299999
      vertex 0.802339 2.99437 0.299999
      vertex 1.18632 2.86403 0.299999
    endloop
  endfacet
  facet normal 0 0 -1
    outer loop
      vertex 0.43154 2.86308 0.299999
      vertex 1.25627 2.60868 0.299999
      vertex 0.58951 1.91115 0.299999
    endloop
  endfacet
  facet normal 0 0 -1
    outer loop
      vertex 1.25627 2.60868 0.299999
      vertex 0.43154 2.86308 0.299999
      vertex 0.802339 2.99437 0.299999
    endloop
  endfacet
  facet normal 0 0 -1
    outer loop
      vertex 0.43154 2.86308 0.299999
      vertex 0.404631 3.07348 0.299999
      vertex 0.802339 2.99437 0.299999
    endloop
  endfacet
  facet normal 0 0 -1
    outer loop
      vertex -0.43154 2.86308 0.299999
      vertex 0.43154 2.86308 0.299999
      vertex 0 2 0.299999
    endloop
  endfacet
  facet normal 0 0 -1
    outer loop
      vertex 0.43154 2.86308 0.299999
      vertex 0 3.1 0.299999
      vertex 0.404631 3.07348 0.299999
    endloop
  endfacet
  facet normal 0 0 -1
    outer loop
      vertex 0.43154 2.86308 0.299999
      vertex -0.43154 2.86308 0.299999
      vertex 0 3.1 0.299999
    endloop
  endfacet
  facet normal 0 0 -1
    outer loop
      vertex 0 3.1 0.299999
      vertex -0.43154 2.86308 0.299999
      vertex -0.404631 3.07348 0.299999
    endloop
  endfacet
  facet normal 0 0 -1
    outer loop
      vertex -1.25627 2.60868 0.299999
      vertex -0.43154 2.86308 0.299999
      vertex -0.58951 1.91115 0.299999
    endloop
  endfacet
  facet normal 0 0 -1
    outer loop
      vertex -0.43154 2.86308 0.299999
      vertex -0.802339 2.99437 0.299999
      vertex -0.404631 3.07348 0.299999
    endloop
  endfacet
  facet normal -0 0 -1
    outer loop
      vertex -0.43154 2.86308 0.299999
      vertex -1.25627 2.60868 0.299999
      vertex -0.802339 2.99437 0.299999
    endloop
  endfacet
  facet normal 0 0 -1
    outer loop
      vertex -0.802339 2.99437 0.299999
      vertex -1.25627 2.60868 0.299999
      vertex -1.18632 2.86403 0.299999
    endloop
  endfacet
  facet normal 0 0 -1
    outer loop
      vertex -1.18632 2.86403 0.299999
      vertex -1.25627 2.60868 0.299999
      vertex -1.55 2.68468 0.299999
    endloop
  endfacet
  facet normal 0 0 -1
    outer loop
      vertex -2.19203 -2.19203 0.299999
      vertex -1.63105 -2.39231 0.299999
      vertex -1.88716 -2.45939 0.299999
    endloop
  endfacet
  facet normal 0 0 -1
    outer loop
      vertex -2.26373 -1.80526 0.299999
      vertex -1.63105 -2.39231 0.299999
      vertex -2.19203 -2.19203 0.299999
    endloop
  endfacet
  facet normal 0 0 -1
    outer loop
      vertex -1.63105 -2.39231 0.299999
      vertex -2.26373 -1.80526 0.299999
      vertex -1.36034 -1.4661 0.299999
    endloop
  endfacet
  facet normal 0 -0 -1
    outer loop
      vertex -2.26373 -1.80526 0.299999
      vertex -2.19203 -2.19203 0.299999
      vertex -2.45939 -1.88716 0.299999
    endloop
  endfacet
  facet normal 0 0 -1
    outer loop
      vertex -2.68468 -1.55 0.299999
      vertex -2.26373 -1.80526 0.299999
      vertex -2.45939 -1.88716 0.299999
    endloop
  endfacet
  facet normal 0 0 -1
    outer loop
      vertex -2.69527 -1.05781 0.299999
      vertex -2.26373 -1.80526 0.299999
      vertex -2.68468 -1.55 0.299999
    endloop
  endfacet
  facet normal 0 0 -1
    outer loop
      vertex -2.26373 -1.80526 0.299999
      vertex -2.69527 -1.05781 0.299999
      vertex -1.73205 -0.999999 0.299999
    endloop
  endfacet
  facet normal 0 -0 -1
    outer loop
      vertex -2.69527 -1.05781 0.299999
      vertex -2.68468 -1.55 0.299999
      vertex -2.86403 -1.18632 0.299999
    endloop
  endfacet
  facet normal 0 0 -1
    outer loop
      vertex -2.99437 -0.802339 0.299999
      vertex -2.69527 -1.05781 0.299999
      vertex -2.86403 -1.18632 0.299999
    endloop
  endfacet
  facet normal 0 -0 -1
    outer loop
      vertex -2.88732 -0.216375 0.299999
      vertex -2.69527 -1.05781 0.299999
      vertex -2.99437 -0.802339 0.299999
    endloop
  endfacet
  facet normal 0 0 -1
    outer loop
      vertex -2.69527 -1.05781 0.299999
      vertex -2.88732 -0.216375 0.299999
      vertex -1.94986 -0.445042 0.299999
    endloop
  endfacet
  facet normal 0 0 -1
    outer loop
      vertex -2.88732 -0.216375 0.299999
      vertex -2.82282 0.644291 0.299999
      vertex -1.99441 0.14946 0.299999
    endloop
  endfacet
  facet normal 0 0 -1
    outer loop
      vertex -3.07348 0.404631 0.299999
      vertex -2.82282 0.644291 0.299999
      vertex -2.88732 -0.216375 0.299999
    endloop
  endfacet
  facet normal 0 0 -1
    outer loop
      vertex -3.07348 -0.404631 0.299999
      vertex -2.88732 -0.216375 0.299999
      vertex -2.99437 -0.802339 0.299999
    endloop
  endfacet
  facet normal 0 0 -1
    outer loop
      vertex -2.82282 0.644291 0.299999
      vertex -2.99437 0.802339 0.299999
      vertex -2.86403 1.18632 0.299999
    endloop
  endfacet
  facet normal 0 0 -1
    outer loop
      vertex -3.1 0 0.299999
      vertex -2.88732 -0.216375 0.299999
      vertex -3.07348 -0.404631 0.299999
    endloop
  endfacet
  facet normal -0 0 -1
    outer loop
      vertex -2.82282 0.644291 0.299999
      vertex -3.07348 0.404631 0.299999
      vertex -2.99437 0.802339 0.299999
    endloop
  endfacet
  facet normal 0 0 -1
    outer loop
      vertex -2.88732 -0.216375 0.299999
      vertex -3.1 0 0.299999
      vertex -3.07348 0.404631 0.299999
    endloop
  endfacet
  facet normal 0 0 -1
    outer loop
      vertex 2.68468 -1.55 0.299999
      vertex 2.59807 -1.5 0.299999
      vertex 2.59808 -1.5 0.299999
    endloop
  endfacet
  facet normal 0 -0 -1
    outer loop
      vertex 2.59807 -1.5 0.299999
      vertex 2.68468 -1.55 0.299999
      vertex 2.45939 -1.88716 0.299999
    endloop
  endfacet
  facet normal 0 0 -1
    outer loop
      vertex 2.59808 -1.5 0.299999
      vertex 2.86403 -1.18632 0.299999
      vertex 2.68468 -1.55 0.299999
    endloop
  endfacet
  facet normal -0 0 -1
    outer loop
      vertex 2.86403 -1.18632 0.299999
      vertex 2.59808 -1.5 0.299999
      vertex 2.69527 -1.05782 0.299999
    endloop
  endfacet
  facet normal 0 0 -1
    outer loop
      vertex 1.73205 -1 0.299999
      vertex 2.59808 -1.5 0.299999
      vertex 2.59807 -1.5 0.299999
    endloop
  endfacet
  facet normal 0 0 -1
    outer loop
      vertex 2.26373 -1.80526 0.299999
      vertex 2.59807 -1.5 0.299999
      vertex 2.45939 -1.88716 0.299999
    endloop
  endfacet
  facet normal 0 0 -1
    outer loop
      vertex 1.73205 -1 0.299999
      vertex 2.59807 -1.5 0.299999
      vertex 2.26373 -1.80526 0.299999
    endloop
  endfacet
  facet normal 0 0 -1
    outer loop
      vertex 2.59808 -1.5 0.299999
      vertex 1.73205 -1 0.299999
      vertex 2.69527 -1.05782 0.299999
    endloop
  endfacet
  facet normal 0 0 -1
    outer loop
      vertex 2.88732 -0.216375 0.299999
      vertex 3.1 0 0.299999
      vertex 3.07348 -0.404631 0.299999
    endloop
  endfacet
  facet normal 0 0 -1
    outer loop
      vertex 2.88732 -0.216375 0.299999
      vertex 3.07348 -0.404631 0.299999
      vertex 2.99437 -0.802339 0.299999
    endloop
  endfacet
  facet normal -0 0 -1
    outer loop
      vertex 3.1 0 0.299999
      vertex 2.88732 -0.216375 0.299999
      vertex 3.07348 0.404631 0.299999
    endloop
  endfacet
  facet normal 0 0 -1
    outer loop
      vertex 2.82282 0.644291 0.299999
      vertex 3.07348 0.404631 0.299999
      vertex 2.88732 -0.216375 0.299999
    endloop
  endfacet
  facet normal 0 0 -1
    outer loop
      vertex 2.69527 -1.05782 0.299999
      vertex 2.99437 -0.802339 0.299999
      vertex 2.86403 -1.18632 0.299999
    endloop
  endfacet
  facet normal -0 0 -1
    outer loop
      vertex 2.99437 -0.802339 0.299999
      vertex 2.69527 -1.05782 0.299999
      vertex 2.88732 -0.216375 0.299999
    endloop
  endfacet
  facet normal 0 0 -1
    outer loop
      vertex 2.88732 -0.216375 0.299999
      vertex 2.69527 -1.05782 0.299999
      vertex 1.94986 -0.445042 0.299999
    endloop
  endfacet
  facet normal 0 0 -1
    outer loop
      vertex 3.07348 0.404631 0.299999
      vertex 2.82282 0.644291 0.299999
      vertex 2.99437 0.802339 0.299999
    endloop
  endfacet
  facet normal -0 0 -1
    outer loop
      vertex 2.99437 0.802339 0.299999
      vertex 2.82282 0.644291 0.299999
      vertex 2.86403 1.18632 0.299999
    endloop
  endfacet
  facet normal 0 -0 -1
    outer loop
      vertex 2.82282 0.644291 0.299999
      vertex 2.88732 -0.216375 0.299999
      vertex 1.99441 0.14946 0.299999
    endloop
  endfacet
  facet normal 0 0 -1
    outer loop
      vertex 2.50751 1.44771 0.299999
      vertex 2.86403 1.18632 0.299999
      vertex 2.82282 0.644291 0.299999
    endloop
  endfacet
  facet normal 0 0 -1
    outer loop
      vertex 2.86403 1.18632 0.299999
      vertex 2.50751 1.44771 0.299999
      vertex 2.68468 1.55 0.299999
    endloop
  endfacet
  facet normal 0 -0 -1
    outer loop
      vertex 2.50751 1.44771 0.299999
      vertex 2.82282 0.644291 0.299999
      vertex 1.86175 0.730681 0.299999
    endloop
  endfacet
  facet normal 0.94693 -0.321439 0
    outer loop
      vertex -2.99437 0.802339 0.299999
      vertex -2.86403 1.18632 0
      vertex -2.86403 1.18632 0.299999
    endloop
  endfacet
  facet normal 0.94693 -0.321439 0
    outer loop
      vertex -2.86403 1.18632 0
      vertex -2.99437 0.802339 0.299999
      vertex -2.99437 0.802339 0
    endloop
  endfacet
  facet normal 0.980785 -0.195091 0
    outer loop
      vertex -3.07348 0.404631 0.299999
      vertex -2.99437 0.802339 0
      vertex -2.99437 0.802339 0.299999
    endloop
  endfacet
  facet normal 0.980785 -0.195091 0
    outer loop
      vertex -2.99437 0.802339 0
      vertex -3.07348 0.404631 0.299999
      vertex -3.07348 0.404631 0
    endloop
  endfacet
  facet normal 0.83147 -0.55557 0
    outer loop
      vertex -2.68468 1.55 0.299999
      vertex -2.45939 1.88716 0
      vertex -2.45939 1.88716 0.299999
    endloop
  endfacet
  facet normal 0.83147 -0.55557 0
    outer loop
      vertex -2.45939 1.88716 0
      vertex -2.68468 1.55 0.299999
      vertex -2.68468 1.55 0
    endloop
  endfacet
  facet normal 0.55557 -0.83147 0
    outer loop
      vertex -1.88716 2.45939 0
      vertex -1.55 2.68468 0.299999
      vertex -1.88716 2.45939 0.299999
    endloop
  endfacet
  facet normal 0.55557 -0.83147 0
    outer loop
      vertex -1.55 2.68468 0.299999
      vertex -1.88716 2.45939 0
      vertex -1.55 2.68468 0
    endloop
  endfacet
  facet normal 0.44229 -0.896872 0
    outer loop
      vertex -1.55 2.68468 0
      vertex -1.18632 2.86403 0.299999
      vertex -1.55 2.68468 0.299999
    endloop
  endfacet
  facet normal 0.44229 -0.896872 0
    outer loop
      vertex -1.18632 2.86403 0.299999
      vertex -1.55 2.68468 0
      vertex -1.18632 2.86403 0
    endloop
  endfacet
  facet normal -0.997859 -0.0654027 0
    outer loop
      vertex 3.1 0 0
      vertex 3.07348 0.404631 0.299999
      vertex 3.07348 0.404631 0
    endloop
  endfacet
  facet normal -0.997859 -0.0654027 0
    outer loop
      vertex 3.07348 0.404631 0.299999
      vertex 3.1 0 0
      vertex 3.1 0 0.299999
    endloop
  endfacet
  facet normal 0.997859 0.0654027 0
    outer loop
      vertex -3.07348 -0.404631 0.299999
      vertex -3.1 0 0
      vertex -3.1 0 0.299999
    endloop
  endfacet
  facet normal 0.997859 0.0654027 0
    outer loop
      vertex -3.1 0 0
      vertex -3.07348 -0.404631 0.299999
      vertex -3.07348 -0.404631 0
    endloop
  endfacet
  facet normal 0.751841 0.659345 0
    outer loop
      vertex -2.19203 -2.19203 0.299999
      vertex -2.45939 -1.88716 0
      vertex -2.45939 -1.88716 0.299999
    endloop
  endfacet
  facet normal 0.751841 0.659345 0
    outer loop
      vertex -2.45939 -1.88716 0
      vertex -2.19203 -2.19203 0.299999
      vertex -2.19203 -2.19203 0
    endloop
  endfacet
  facet normal -0.195091 0.980785 0
    outer loop
      vertex 0.802339 -2.99437 0
      vertex 0.404631 -3.07348 0.299999
      vertex 0.802339 -2.99437 0.299999
    endloop
  endfacet
  facet normal -0.195091 0.980785 0
    outer loop
      vertex 0.404631 -3.07348 0.299999
      vertex 0.802339 -2.99437 0
      vertex 0.404631 -3.07348 0
    endloop
  endfacet
  facet normal -0.44229 0.896872 0
    outer loop
      vertex 1.55 -2.68468 0
      vertex 1.18632 -2.86403 0.299999
      vertex 1.55 -2.68468 0.299999
    endloop
  endfacet
  facet normal -0.44229 0.896872 0
    outer loop
      vertex 1.18632 -2.86403 0.299999
      vertex 1.55 -2.68468 0
      vertex 1.18632 -2.86403 0
    endloop
  endfacet
  facet normal -0.980785 -0.195091 0
    outer loop
      vertex 3.07348 0.404631 0
      vertex 2.99437 0.802339 0.299999
      vertex 2.99437 0.802339 0
    endloop
  endfacet
  facet normal -0.980785 -0.195091 0
    outer loop
      vertex 2.99437 0.802339 0.299999
      vertex 3.07348 0.404631 0
      vertex 3.07348 0.404631 0.299999
    endloop
  endfacet
  facet normal -0.0654027 -0.997859 0
    outer loop
      vertex 0 3.1 0
      vertex 0.404631 3.07348 0.299999
      vertex 0 3.1 0.299999
    endloop
  endfacet
  facet normal -0.0654027 -0.997859 -0
    outer loop
      vertex 0.404631 3.07348 0.299999
      vertex 0 3.1 0
      vertex 0.404631 3.07348 0
    endloop
  endfacet
  facet normal -0.751841 0.659345 0
    outer loop
      vertex 2.19203 -2.19203 0
      vertex 2.45939 -1.88716 0.299999
      vertex 2.45939 -1.88716 0
    endloop
  endfacet
  facet normal -0.751841 0.659345 0
    outer loop
      vertex 2.45939 -1.88716 0.299999
      vertex 2.19203 -2.19203 0
      vertex 2.19203 -2.19203 0.299999
    endloop
  endfacet
  facet normal -0.83147 0.55557 0
    outer loop
      vertex 2.45939 -1.88716 0
      vertex 2.68468 -1.55 0.299999
      vertex 2.68468 -1.55 0
    endloop
  endfacet
  facet normal -0.83147 0.55557 0
    outer loop
      vertex 2.68468 -1.55 0.299999
      vertex 2.45939 -1.88716 0
      vertex 2.45939 -1.88716 0.299999
    endloop
  endfacet
  facet normal 0.94693 0.321439 0
    outer loop
      vertex -2.86403 -1.18632 0.299999
      vertex -2.99437 -0.802339 0
      vertex -2.99437 -0.802339 0.299999
    endloop
  endfacet
  facet normal 0.94693 0.321439 0
    outer loop
      vertex -2.99437 -0.802339 0
      vertex -2.86403 -1.18632 0.299999
      vertex -2.86403 -1.18632 0
    endloop
  endfacet
  facet normal 0.980785 0.195091 0
    outer loop
      vertex -2.99437 -0.802339 0.299999
      vertex -3.07348 -0.404631 0
      vertex -3.07348 -0.404631 0.299999
    endloop
  endfacet
  facet normal 0.980785 0.195091 0
    outer loop
      vertex -3.07348 -0.404631 0
      vertex -2.99437 -0.802339 0.299999
      vertex -2.99437 -0.802339 0
    endloop
  endfacet
  facet normal -0.321439 0.94693 0
    outer loop
      vertex 1.18632 -2.86403 0
      vertex 0.802339 -2.99437 0.299999
      vertex 1.18632 -2.86403 0.299999
    endloop
  endfacet
  facet normal -0.321439 0.94693 0
    outer loop
      vertex 0.802339 -2.99437 0.299999
      vertex 1.18632 -2.86403 0
      vertex 0.802339 -2.99437 0
    endloop
  endfacet
  facet normal -0.659345 0.751841 0
    outer loop
      vertex 2.19203 -2.19203 0
      vertex 1.88716 -2.45939 0.299999
      vertex 2.19203 -2.19203 0.299999
    endloop
  endfacet
  facet normal -0.659345 0.751841 0
    outer loop
      vertex 1.88716 -2.45939 0.299999
      vertex 2.19203 -2.19203 0
      vertex 1.88716 -2.45939 0
    endloop
  endfacet
  facet normal -0.55557 0.83147 0
    outer loop
      vertex 1.88716 -2.45939 0
      vertex 1.55 -2.68468 0.299999
      vertex 1.88716 -2.45939 0.299999
    endloop
  endfacet
  facet normal -0.55557 0.83147 0
    outer loop
      vertex 1.55 -2.68468 0.299999
      vertex 1.88716 -2.45939 0
      vertex 1.55 -2.68468 0
    endloop
  endfacet
  facet normal -0.896872 0.44229 0
    outer loop
      vertex 2.68468 -1.55 0
      vertex 2.86403 -1.18632 0.299999
      vertex 2.86403 -1.18632 0
    endloop
  endfacet
  facet normal -0.896872 0.44229 0
    outer loop
      vertex 2.86403 -1.18632 0.299999
      vertex 2.68468 -1.55 0
      vertex 2.68468 -1.55 0.299999
    endloop
  endfacet
  facet normal -0.0654027 0.997859 0
    outer loop
      vertex 0.404631 -3.07348 0
      vertex 0 -3.1 0.299999
      vertex 0.404631 -3.07348 0.299999
    endloop
  endfacet
  facet normal -0.0654027 0.997859 0
    outer loop
      vertex 0 -3.1 0.299999
      vertex 0.404631 -3.07348 0
      vertex 0 -3.1 0
    endloop
  endfacet
  facet normal 0.55557 0.83147 -0
    outer loop
      vertex -1.55 -2.68468 0
      vertex -1.88716 -2.45939 0.299999
      vertex -1.55 -2.68468 0.299999
    endloop
  endfacet
  facet normal 0.55557 0.83147 0
    outer loop
      vertex -1.88716 -2.45939 0.299999
      vertex -1.55 -2.68468 0
      vertex -1.88716 -2.45939 0
    endloop
  endfacet
  facet normal 0.0654027 0.997859 -0
    outer loop
      vertex 0 -3.1 0
      vertex -0.404631 -3.07348 0.299999
      vertex 0 -3.1 0.299999
    endloop
  endfacet
  facet normal 0.0654027 0.997859 0
    outer loop
      vertex -0.404631 -3.07348 0.299999
      vertex 0 -3.1 0
      vertex -0.404631 -3.07348 0
    endloop
  endfacet
  facet normal 0.321439 0.94693 -0
    outer loop
      vertex -0.802339 -2.99437 0
      vertex -1.18632 -2.86403 0.299999
      vertex -0.802339 -2.99437 0.299999
    endloop
  endfacet
  facet normal 0.321439 0.94693 0
    outer loop
      vertex -1.18632 -2.86403 0.299999
      vertex -0.802339 -2.99437 0
      vertex -1.18632 -2.86403 0
    endloop
  endfacet
  facet normal 0.195091 0.980785 -0
    outer loop
      vertex -0.404631 -3.07348 0
      vertex -0.802339 -2.99437 0.299999
      vertex -0.404631 -3.07348 0.299999
    endloop
  endfacet
  facet normal 0.195091 0.980785 0
    outer loop
      vertex -0.802339 -2.99437 0.299999
      vertex -0.404631 -3.07348 0
      vertex -0.802339 -2.99437 0
    endloop
  endfacet
  facet normal 0.83147 0.55557 0
    outer loop
      vertex -2.45939 -1.88716 0.299999
      vertex -2.68468 -1.55 0
      vertex -2.68468 -1.55 0.299999
    endloop
  endfacet
  facet normal 0.83147 0.55557 0
    outer loop
      vertex -2.68468 -1.55 0
      vertex -2.45939 -1.88716 0.299999
      vertex -2.45939 -1.88716 0
    endloop
  endfacet
  facet normal 0.44229 0.896872 -0
    outer loop
      vertex -1.18632 -2.86403 0
      vertex -1.55 -2.68468 0.299999
      vertex -1.18632 -2.86403 0.299999
    endloop
  endfacet
  facet normal 0.44229 0.896872 0
    outer loop
      vertex -1.55 -2.68468 0.299999
      vertex -1.18632 -2.86403 0
      vertex -1.55 -2.68468 0
    endloop
  endfacet
  facet normal -1 0 0
    outer loop
      vertex -10 -5 0
      vertex -10 5 4.5
      vertex -10 5 0
    endloop
  endfacet
  facet normal -1 -0 0
    outer loop
      vertex -10 5 4.5
      vertex -10 -5 0
      vertex -10 -5 4.5
    endloop
  endfacet
  facet normal 0 0 1
    outer loop
      vertex -1.94986 -0.445042 4.5
      vertex -2.88732 -0.216375 4.5
      vertex -2.69527 -1.05781 4.5
    endloop
  endfacet
  facet normal 0 0 1
    outer loop
      vertex -1.73205 -0.999999 4.5
      vertex -2.69527 -1.05781 4.5
      vertex -2.26373 -1.80526 4.5
    endloop
  endfacet
  facet normal 0 0 1
    outer loop
      vertex -1.36034 -1.4661 4.5
      vertex -2.26373 -1.80526 4.5
      vertex -1.63105 -2.39231 4.5
    endloop
  endfacet
  facet normal 0 0 1
    outer loop
      vertex 2.26373 -1.80526 4.5
      vertex 1.36034 -1.4661 4.5
      vertex 1.63105 -2.39231 4.5
    endloop
  endfacet
  facet normal 0 0 1
    outer loop
      vertex 1.73205 -1 4.5
      vertex 2.59808 -1.5 4.5
      vertex 2.69527 -1.05782 4.5
    endloop
  endfacet
  facet normal 0 0 1
    outer loop
      vertex 2.59808 -1.5 4.5
      vertex 1.73205 -1 4.5
      vertex 2.59807 -1.5 4.5
    endloop
  endfacet
  facet normal 0 0 1
    outer loop
      vertex 2.59807 -1.5 4.5
      vertex 1.73205 -1 4.5
      vertex 2.26373 -1.80526 4.5
    endloop
  endfacet
  facet normal 0 0 1
    outer loop
      vertex 2.88732 -0.216375 4.5
      vertex 1.94986 -0.445042 4.5
      vertex 2.69527 -1.05782 4.5
    endloop
  endfacet
  facet normal 0 0 1
    outer loop
      vertex 18 5 4.5
      vertex 2.88732 -0.216375 4.5
      vertex 18 -5 4.5
    endloop
  endfacet
  facet normal 0 0 1
    outer loop
      vertex 18 5 4.5
      vertex 2.82282 0.644291 4.5
      vertex 2.88732 -0.216375 4.5
    endloop
  endfacet
  facet normal 0 0 1
    outer loop
      vertex 18 5 4.5
      vertex 2.50751 1.44771 4.5
      vertex 2.82282 0.644291 4.5
    endloop
  endfacet
  facet normal 0 0 1
    outer loop
      vertex 18 5 4.5
      vertex 1.96938 2.12249 4.5
      vertex 2.50751 1.44771 4.5
    endloop
  endfacet
  facet normal 0 0 1
    outer loop
      vertex 18 5 4.5
      vertex 1.25627 2.60868 4.5
      vertex 1.96938 2.12249 4.5
    endloop
  endfacet
  facet normal 0 0 1
    outer loop
      vertex 1.25627 2.60868 4.5
      vertex 0.43154 2.86308 4.5
      vertex 0.58951 1.91115 4.5
    endloop
  endfacet
  facet normal 0 0 1
    outer loop
      vertex 18 5 4.5
      vertex 0.43154 2.86308 4.5
      vertex 1.25627 2.60868 4.5
    endloop
  endfacet
  facet normal 0 0 1
    outer loop
      vertex 0.43154 2.86308 4.5
      vertex -0.43154 2.86308 4.5
      vertex 0 2 4.5
    endloop
  endfacet
  facet normal -0 0 1
    outer loop
      vertex -10 5 4.5
      vertex 0.43154 2.86308 4.5
      vertex 18 5 4.5
    endloop
  endfacet
  facet normal 0 0 1
    outer loop
      vertex -0.43154 2.86308 4.5
      vertex -1.25627 2.60868 4.5
      vertex -0.58951 1.91115 4.5
    endloop
  endfacet
  facet normal 0 0 1
    outer loop
      vertex -2.82282 0.644291 4.5
      vertex -10 5 4.5
      vertex -2.88732 -0.216375 4.5
    endloop
  endfacet
  facet normal 0 0 1
    outer loop
      vertex -2.50751 1.44771 4.5
      vertex -10 5 4.5
      vertex -2.82282 0.644291 4.5
    endloop
  endfacet
  facet normal 0 0 1
    outer loop
      vertex -1.96938 2.12249 4.5
      vertex -10 5 4.5
      vertex -2.50751 1.44771 4.5
    endloop
  endfacet
  facet normal 0 0 1
    outer loop
      vertex -1.25627 2.60868 4.5
      vertex -10 5 4.5
      vertex -1.96938 2.12249 4.5
    endloop
  endfacet
  facet normal 0 0 1
    outer loop
      vertex -0.43154 2.86308 4.5
      vertex -10 5 4.5
      vertex -1.25627 2.60868 4.5
    endloop
  endfacet
  facet normal 0 0 1
    outer loop
      vertex 0.43154 2.86308 4.5
      vertex -10 5 4.5
      vertex -0.43154 2.86308 4.5
    endloop
  endfacet
  facet normal -0 0 1
    outer loop
      vertex 2.69527 -1.05782 4.5
      vertex 18 -5 4.5
      vertex 2.88732 -0.216375 4.5
    endloop
  endfacet
  facet normal -0 0 1
    outer loop
      vertex 2.59808 -1.5 4.5
      vertex 18 -5 4.5
      vertex 2.69527 -1.05782 4.5
    endloop
  endfacet
  facet normal -0 0 1
    outer loop
      vertex 2.59807 -1.5 4.5
      vertex 18 -5 4.5
      vertex 2.59808 -1.5 4.5
    endloop
  endfacet
  facet normal -0 0 1
    outer loop
      vertex 2.26373 -1.80526 4.5
      vertex 18 -5 4.5
      vertex 2.59807 -1.5 4.5
    endloop
  endfacet
  facet normal -0 0 1
    outer loop
      vertex 1.63105 -2.39231 4.5
      vertex 18 -5 4.5
      vertex 2.26373 -1.80526 4.5
    endloop
  endfacet
  facet normal 0 0 1
    outer loop
      vertex 0.85344 -2.76678 4.5
      vertex 1.63105 -2.39231 4.5
      vertex 0.867767 -1.80194 4.5
    endloop
  endfacet
  facet normal -0 0 1
    outer loop
      vertex 0.85344 -2.76678 4.5
      vertex 18 -5 4.5
      vertex 1.63105 -2.39231 4.5
    endloop
  endfacet
  facet normal 0 0 1
    outer loop
      vertex 0 -2.89542 4.5
      vertex 0.85344 -2.76678 4.5
      vertex 0.298084 -1.97766 4.5
    endloop
  endfacet
  facet normal -0 0 1
    outer loop
      vertex 0 -2.89542 4.5
      vertex 18 -5 4.5
      vertex 0.85344 -2.76678 4.5
    endloop
  endfacet
  facet normal -0 0 1
    outer loop
      vertex -0.85344 -2.76678 4.5
      vertex 0 -2.89542 4.5
      vertex -0.298084 -1.97766 4.5
    endloop
  endfacet
  facet normal -0 0 1
    outer loop
      vertex -1.63105 -2.39231 4.5
      vertex -0.85344 -2.76678 4.5
      vertex -0.867767 -1.80194 4.5
    endloop
  endfacet
  facet normal 0 0 1
    outer loop
      vertex -10 -5 4.5
      vertex -2.88732 -0.216375 4.5
      vertex -10 5 4.5
    endloop
  endfacet
  facet normal 0 0 1
    outer loop
      vertex -2.88732 -0.216375 4.5
      vertex -10 -5 4.5
      vertex -2.69527 -1.05781 4.5
    endloop
  endfacet
  facet normal 0 0 1
    outer loop
      vertex -2.69527 -1.05781 4.5
      vertex -10 -5 4.5
      vertex -2.26373 -1.80526 4.5
    endloop
  endfacet
  facet normal 0 0 1
    outer loop
      vertex 0 -2.89542 4.5
      vertex -10 -5 4.5
      vertex 18 -5 4.5
    endloop
  endfacet
  facet normal 0 0 1
    outer loop
      vertex -0.85344 -2.76678 4.5
      vertex -10 -5 4.5
      vertex 0 -2.89542 4.5
    endloop
  endfacet
  facet normal 0 0 1
    outer loop
      vertex -1.63105 -2.39231 4.5
      vertex -10 -5 4.5
      vertex -0.85344 -2.76678 4.5
    endloop
  endfacet
  facet normal 0 0 1
    outer loop
      vertex -2.26373 -1.80526 4.5
      vertex -10 -5 4.5
      vertex -1.63105 -2.39231 4.5
    endloop
  endfacet
  facet normal 0 0 1
    outer loop
      vertex 2.88732 -0.216375 4.5
      vertex 2.82282 0.644291 4.5
      vertex 1.99441 0.14946 4.5
    endloop
  endfacet
  facet normal 0 0 1
    outer loop
      vertex 2.82282 0.644291 4.5
      vertex 2.50751 1.44771 4.5
      vertex 1.86175 0.730681 4.5
    endloop
  endfacet
  facet normal 0 0 1
    outer loop
      vertex 2.50751 1.44771 4.5
      vertex 1.96938 2.12249 4.5
      vertex 1.56366 1.24698 4.5
    endloop
  endfacet
  facet normal 0 0 1
    outer loop
      vertex 1.96938 2.12249 4.5
      vertex 1.25627 2.60868 4.5
      vertex 1.12664 1.65248 4.5
    endloop
  endfacet
  facet normal 0 0 1
    outer loop
      vertex -1.12664 1.65248 4.5
      vertex -1.25627 2.60868 4.5
      vertex -1.96938 2.12249 4.5
    endloop
  endfacet
  facet normal 0 0 1
    outer loop
      vertex -1.56366 1.24698 4.5
      vertex -1.96938 2.12249 4.5
      vertex -2.50751 1.44771 4.5
    endloop
  endfacet
  facet normal 0 0 1
    outer loop
      vertex -1.86175 0.730681 4.5
      vertex -2.50751 1.44771 4.5
      vertex -2.82282 0.644291 4.5
    endloop
  endfacet
  facet normal 0 0 1
    outer loop
      vertex -1.99441 0.14946 4.5
      vertex -2.82282 0.644291 4.5
      vertex -2.88732 -0.216375 4.5
    endloop
  endfacet
  facet normal 0 1 -0
    outer loop
      vertex 18 5 0
      vertex -10 5 4.5
      vertex 18 5 4.5
    endloop
  endfacet
  facet normal 0 1 0
    outer loop
      vertex -10 5 4.5
      vertex 18 5 0
      vertex -10 5 0
    endloop
  endfacet
  facet normal 0 -1 0
    outer loop
      vertex -10 -5 0
      vertex 18 -5 4.5
      vertex -10 -5 4.5
    endloop
  endfacet
  facet normal 0 -1 -0
    outer loop
      vertex 18 -5 4.5
      vertex -10 -5 0
      vertex 18 -5 0
    endloop
  endfacet
  facet normal 0 -1 0
    outer loop
      vertex 20 22.65 5
      vertex 21.85 22.65 17
      vertex 20 22.65 17
    endloop
  endfacet
  facet normal 0 -1 -0
    outer loop
      vertex 21.85 22.65 17
      vertex 20 22.65 5
      vertex 21.85 22.65 5
    endloop
  endfacet
  facet normal 0 1 -0
    outer loop
      vertex 21.85 -22.65 5
      vertex 20 -22.65 17
      vertex 21.85 -22.65 17
    endloop
  endfacet
  facet normal 0 1 0
    outer loop
      vertex 20 -22.65 17
      vertex 21.85 -22.65 5
      vertex 20 -22.65 5
    endloop
  endfacet
  facet normal -1 0 0
    outer loop
      vertex 21.85 20.6957 12.9165
      vertex 21.85 22.65 17
      vertex 21.85 22.65 5
    endloop
  endfacet
  facet normal -1 0 0
    outer loop
      vertex 21.85 22.65 17
      vertex 21.85 20.9011 13.9493
      vertex 21.85 20.97 15
    endloop
  endfacet
  facet normal -1 0 0
    outer loop
      vertex 21.85 22.65 17
      vertex 21.85 20.6957 12.9165
      vertex 21.85 20.9011 13.9493
    endloop
  endfacet
  facet normal -1 0 0
    outer loop
      vertex 21.85 22.65 5
      vertex 21.85 20.3572 11.9194
      vertex 21.85 20.6957 12.9165
    endloop
  endfacet
  facet normal -1 0 0
    outer loop
      vertex 21.85 22.65 5
      vertex 21.85 19.8915 10.975
      vertex 21.85 20.3572 11.9194
    endloop
  endfacet
  facet normal -1 0 0
    outer loop
      vertex 21.85 22.65 5
      vertex 21.85 19.3065 10.0995
      vertex 21.85 19.8915 10.975
    endloop
  endfacet
  facet normal -1 0 0
    outer loop
      vertex 21.85 22.65 5
      vertex 21.85 18.6122 9.3078
      vertex 21.85 19.3065 10.0995
    endloop
  endfacet
  facet normal -1 0 0
    outer loop
      vertex 21.85 22.65 5
      vertex 21.85 17.8205 8.61351
      vertex 21.85 18.6122 9.3078
    endloop
  endfacet
  facet normal -1 0 0
    outer loop
      vertex 21.85 22.65 5
      vertex 21.85 16.945 8.0285
      vertex 21.85 17.8205 8.61351
    endloop
  endfacet
  facet normal -1 0 0
    outer loop
      vertex 21.85 22.65 5
      vertex 21.85 16.0006 7.56277
      vertex 21.85 16.945 8.0285
    endloop
  endfacet
  facet normal -1 0 0
    outer loop
      vertex 21.85 22.65 5
      vertex 21.85 15.0035 7.2243
      vertex 21.85 16.0006 7.56277
    endloop
  endfacet
  facet normal -1 0 0
    outer loop
      vertex 21.85 22.65 5
      vertex 21.85 13.9707 7.01888
      vertex 21.85 15.0035 7.2243
    endloop
  endfacet
  facet normal -1 -1.20088e-07 -5.16267e-07
    outer loop
      vertex 21.85 22.65 5
      vertex 21.85 3.47841 5.76498
      vertex 21.85 13.9707 7.01888
    endloop
  endfacet
  facet normal -1 -6.18616e-08 9.42979e-07
    outer loop
      vertex 21.85 22.65 5
      vertex 21.85 3.25 5.75
      vertex 21.85 3.47841 5.76498
    endloop
  endfacet
  facet normal -1 0 2.54313e-06
    outer loop
      vertex 21.85 22.65 5
      vertex 21.85 -3.25 5.75
      vertex 21.85 3.25 5.75
    endloop
  endfacet
  facet normal -1 0 0
    outer loop
      vertex 21.85 -20.6957 12.9165
      vertex 21.85 -22.65 17
      vertex 21.85 -20.9011 13.9493
    endloop
  endfacet
  facet normal -1 0 0
    outer loop
      vertex 21.85 -22.65 17
      vertex 21.85 -20.6957 12.9165
      vertex 21.85 -22.65 5
    endloop
  endfacet
  facet normal -1 -0 0
    outer loop
      vertex 21.85 -20.3572 11.9194
      vertex 21.85 -22.65 5
      vertex 21.85 -20.6957 12.9165
    endloop
  endfacet
  facet normal -1 -0 0
    outer loop
      vertex 21.85 -19.8915 10.975
      vertex 21.85 -22.65 5
      vertex 21.85 -20.3572 11.9194
    endloop
  endfacet
  facet normal -1 -0 0
    outer loop
      vertex 21.85 -19.3065 10.0995
      vertex 21.85 -22.65 5
      vertex 21.85 -19.8915 10.975
    endloop
  endfacet
  facet normal -1 -0 0
    outer loop
      vertex 21.85 -18.6122 9.3078
      vertex 21.85 -22.65 5
      vertex 21.85 -19.3065 10.0995
    endloop
  endfacet
  facet normal -1 -0 0
    outer loop
      vertex 21.85 -17.8205 8.61351
      vertex 21.85 -22.65 5
      vertex 21.85 -18.6122 9.3078
    endloop
  endfacet
  facet normal -1 -0 0
    outer loop
      vertex 21.85 -16.945 8.0285
      vertex 21.85 -22.65 5
      vertex 21.85 -17.8205 8.61351
    endloop
  endfacet
  facet normal -1 -0 0
    outer loop
      vertex 21.85 -16.0006 7.56277
      vertex 21.85 -22.65 5
      vertex 21.85 -16.945 8.0285
    endloop
  endfacet
  facet normal -1 -0 0
    outer loop
      vertex 21.85 -15.0035 7.2243
      vertex 21.85 -22.65 5
      vertex 21.85 -16.0006 7.56277
    endloop
  endfacet
  facet normal -1 -0 0
    outer loop
      vertex 21.85 -13.9707 7.01888
      vertex 21.85 -22.65 5
      vertex 21.85 -15.0035 7.2243
    endloop
  endfacet
  facet normal -1 -0 0
    outer loop
      vertex 21.85 -3.47841 5.76498
      vertex 21.85 -22.65 5
      vertex 21.85 -13.9707 7.01888
    endloop
  endfacet
  facet normal -1 -0 0
    outer loop
      vertex 21.85 -3.25 5.75
      vertex 21.85 -22.65 5
      vertex 21.85 -3.47841 5.76498
    endloop
  endfacet
  facet normal -1 -4.21048e-08 1.08911e-06
    outer loop
      vertex 21.85 -22.65 5
      vertex 21.85 -3.25 5.75
      vertex 21.85 22.65 5
    endloop
  endfacet
  facet normal -1 0 0
    outer loop
      vertex 21.85 20.9011 16.0507
      vertex 21.85 22.65 17
      vertex 21.85 20.97 15
    endloop
  endfacet
  facet normal -1 -0 0
    outer loop
      vertex 21.85 22.65 17
      vertex 21.85 20.9011 16.0507
      vertex 21.85 20.7123 17
    endloop
  endfacet
  facet normal -1 0 0
    outer loop
      vertex 21.85 -20.9011 13.9493
      vertex 21.85 -22.65 17
      vertex 21.85 -20.97 15
    endloop
  endfacet
  facet normal -1 0 0
    outer loop
      vertex 21.85 -20.9011 16.0507
      vertex 21.85 -22.65 17
      vertex 21.85 -20.7123 17
    endloop
  endfacet
  facet normal -1 0 0
    outer loop
      vertex 21.85 -20.97 15
      vertex 21.85 -22.65 17
      vertex 21.85 -20.9011 16.0507
    endloop
  endfacet
  facet normal -0 0 1
    outer loop
      vertex 20 22.65 5
      vertex 21.85 -22.65 5
      vertex 21.85 22.65 5
    endloop
  endfacet
  facet normal 0 0 1
    outer loop
      vertex 21.85 -22.65 5
      vertex 20 22.65 5
      vertex 20 -22.65 5
    endloop
  endfacet
  facet normal 1 0 0
    outer loop
      vertex 20 -22.45 17
      vertex 20 -22.65 17
      vertex 20 -22.45 6
    endloop
  endfacet
  facet normal 1 0 0
    outer loop
      vertex 20 20.95 6
      vertex 20 22.65 17
      vertex 20 20.95 17
    endloop
  endfacet
  facet normal 1 0 0
    outer loop
      vertex 20 22.65 17
      vertex 20 20.95 6
      vertex 20 22.65 5
    endloop
  endfacet
  facet normal 1 0 0
    outer loop
      vertex 20 -22.65 5
      vertex 20 20.95 6
      vertex 20 -22.45 6
    endloop
  endfacet
  facet normal 1 0 0
    outer loop
      vertex 20 20.95 6
      vertex 20 -22.65 5
      vertex 20 22.65 5
    endloop
  endfacet
  facet normal 1 0 0
    outer loop
      vertex 20 -22.65 5
      vertex 20 -22.45 6
      vertex 20 -22.65 17
    endloop
  endfacet
  facet normal 0 -1 0
    outer loop
      vertex 18 20.95 6
      vertex 20 20.95 17
      vertex 18 20.95 17
    endloop
  endfacet
  facet normal 0 -1 -0
    outer loop
      vertex 20 20.95 17
      vertex 18 20.95 6
      vertex 20 20.95 6
    endloop
  endfacet
  facet normal 0 1 -0
    outer loop
      vertex 20 -22.45 6
      vertex 18 -22.45 17
      vertex 20 -22.45 17
    endloop
  endfacet
  facet normal 0 1 0
    outer loop
      vertex 18 -22.45 17
      vertex 20 -22.45 6
      vertex 18 -22.45 6
    endloop
  endfacet
  facet normal -0 0 1
    outer loop
      vertex 18 20.95 6
      vertex 20 -22.45 6
      vertex 20 20.95 6
    endloop
  endfacet
  facet normal 0 0 1
    outer loop
      vertex 20 -22.45 6
      vertex 18 20.95 6
      vertex 18 -22.45 6
    endloop
  endfacet
  facet normal 0 -0.980785 -0.195094
    outer loop
      vertex 21.85 20.9011 16.0507
      vertex 25.85 20.7123 17
      vertex 21.85 20.7123 17
    endloop
  endfacet
  facet normal 0 -0.980785 -0.195094
    outer loop
      vertex 25.85 20.7123 17
      vertex 21.85 20.9011 16.0507
      vertex 25.85 20.9011 16.0507
    endloop
  endfacet
  facet normal 0 -0.997859 0.0653975
    outer loop
      vertex 21.85 20.9011 13.9493
      vertex 25.85 20.97 15
      vertex 21.85 20.97 15
    endloop
  endfacet
  facet normal 0 -0.997859 0.0653975
    outer loop
      vertex 25.85 20.97 15
      vertex 21.85 20.9011 13.9493
      vertex 25.85 20.9011 13.9493
    endloop
  endfacet
  facet normal 0 0.997858 0.065412
    outer loop
      vertex 25.85 -20.9011 13.9493
      vertex 21.85 -20.97 15
      vertex 25.85 -20.97 15
    endloop
  endfacet
  facet normal 0 0.997858 0.065412
    outer loop
      vertex 21.85 -20.97 15
      vertex 25.85 -20.9011 13.9493
      vertex 21.85 -20.9011 13.9493
    endloop
  endfacet
  facet normal 0 -0.997859 -0.0653975
    outer loop
      vertex 21.85 20.97 15
      vertex 25.85 20.9011 16.0507
      vertex 21.85 20.9011 16.0507
    endloop
  endfacet
  facet normal 0 -0.997859 -0.0653975
    outer loop
      vertex 25.85 20.9011 16.0507
      vertex 21.85 20.97 15
      vertex 25.85 20.97 15
    endloop
  endfacet
  facet normal -0 0 1
    outer loop
      vertex 21.85 3.25 5.75
      vertex 25.85 -3.25 5.75
      vertex 25.85 3.25 5.75
    endloop
  endfacet
  facet normal 0 0 1
    outer loop
      vertex 25.85 -3.25 5.75
      vertex 21.85 3.25 5.75
      vertex 21.85 -3.25 5.75
    endloop
  endfacet
  facet normal 0 -0.442292 0.896871
    outer loop
      vertex 21.85 16.945 8.0285
      vertex 25.85 16.0006 7.56277
      vertex 25.85 16.945 8.0285
    endloop
  endfacet
  facet normal 0 -0.442292 0.896871
    outer loop
      vertex 25.85 16.0006 7.56277
      vertex 21.85 16.945 8.0285
      vertex 21.85 16.0006 7.56277
    endloop
  endfacet
  facet normal -0 0.442292 0.896871
    outer loop
      vertex 21.85 -16.0006 7.56277
      vertex 25.85 -16.945 8.0285
      vertex 25.85 -16.0006 7.56277
    endloop
  endfacet
  facet normal 0 0.442292 0.896871
    outer loop
      vertex 25.85 -16.945 8.0285
      vertex 21.85 -16.0006 7.56277
      vertex 21.85 -16.945 8.0285
    endloop
  endfacet
  facet normal 0 -0.751834 0.659353
    outer loop
      vertex 21.85 18.6122 9.3078
      vertex 25.85 19.3065 10.0995
      vertex 21.85 19.3065 10.0995
    endloop
  endfacet
  facet normal 0 -0.751834 0.659353
    outer loop
      vertex 25.85 19.3065 10.0995
      vertex 21.85 18.6122 9.3078
      vertex 25.85 18.6122 9.3078
    endloop
  endfacet
  facet normal 0 0.896871 0.442292
    outer loop
      vertex 25.85 -19.8915 10.975
      vertex 21.85 -20.3572 11.9194
      vertex 25.85 -20.3572 11.9194
    endloop
  endfacet
  facet normal 0 0.896871 0.442292
    outer loop
      vertex 21.85 -20.3572 11.9194
      vertex 25.85 -19.8915 10.975
      vertex 21.85 -19.8915 10.975
    endloop
  endfacet
  facet normal -0 0.118661 0.992935
    outer loop
      vertex 21.85 -3.47841 5.76498
      vertex 25.85 -13.9707 7.01888
      vertex 25.85 -3.47841 5.76498
    endloop
  endfacet
  facet normal 0 0.118661 0.992935
    outer loop
      vertex 25.85 -13.9707 7.01888
      vertex 21.85 -3.47841 5.76498
      vertex 21.85 -13.9707 7.01888
    endloop
  endfacet
  facet normal -0 0.0654615 0.997855
    outer loop
      vertex 21.85 -3.25 5.75
      vertex 25.85 -3.47841 5.76498
      vertex 25.85 -3.25 5.75
    endloop
  endfacet
  facet normal 0 0.0654615 0.997855
    outer loop
      vertex 25.85 -3.47841 5.76498
      vertex 21.85 -3.25 5.75
      vertex 21.85 -3.47841 5.76498
    endloop
  endfacet
  facet normal -0 0.195091 0.980785
    outer loop
      vertex 21.85 -13.9707 7.01888
      vertex 25.85 -15.0035 7.2243
      vertex 25.85 -13.9707 7.01888
    endloop
  endfacet
  facet normal 0 0.195091 0.980785
    outer loop
      vertex 25.85 -15.0035 7.2243
      vertex 21.85 -13.9707 7.01888
      vertex 21.85 -15.0035 7.2243
    endloop
  endfacet
  facet normal 0 -0.118661 0.992935
    outer loop
      vertex 25.85 13.9707 7.01888
      vertex 21.85 3.47841 5.76498
      vertex 25.85 3.47841 5.76498
    endloop
  endfacet
  facet normal 0 -0.118661 0.992935
    outer loop
      vertex 21.85 3.47841 5.76498
      vertex 25.85 13.9707 7.01888
      vertex 21.85 13.9707 7.01888
    endloop
  endfacet
  facet normal 0 -0.0654615 0.997855
    outer loop
      vertex 21.85 3.47841 5.76498
      vertex 25.85 3.25 5.75
      vertex 25.85 3.47841 5.76498
    endloop
  endfacet
  facet normal 0 -0.0654615 0.997855
    outer loop
      vertex 25.85 3.25 5.75
      vertex 21.85 3.47841 5.76498
      vertex 21.85 3.25 5.75
    endloop
  endfacet
  facet normal 0 -0.659353 0.751834
    outer loop
      vertex 21.85 18.6122 9.3078
      vertex 25.85 17.8205 8.61351
      vertex 25.85 18.6122 9.3078
    endloop
  endfacet
  facet normal 0 -0.659353 0.751834
    outer loop
      vertex 25.85 17.8205 8.61351
      vertex 21.85 18.6122 9.3078
      vertex 21.85 17.8205 8.61351
    endloop
  endfacet
  facet normal 0 0.980785 -0.195094
    outer loop
      vertex 25.85 -20.9011 16.0507
      vertex 21.85 -20.7123 17
      vertex 25.85 -20.7123 17
    endloop
  endfacet
  facet normal 0 0.980785 -0.195094
    outer loop
      vertex 21.85 -20.7123 17
      vertex 25.85 -20.9011 16.0507
      vertex 21.85 -20.9011 16.0507
    endloop
  endfacet
  facet normal 0 -0.946932 0.321435
    outer loop
      vertex 21.85 20.3572 11.9194
      vertex 25.85 20.6957 12.9165
      vertex 21.85 20.6957 12.9165
    endloop
  endfacet
  facet normal 0 -0.946932 0.321435
    outer loop
      vertex 25.85 20.6957 12.9165
      vertex 21.85 20.3572 11.9194
      vertex 25.85 20.3572 11.9194
    endloop
  endfacet
  facet normal 0 0.946932 0.321435
    outer loop
      vertex 25.85 -20.3572 11.9194
      vertex 21.85 -20.6957 12.9165
      vertex 25.85 -20.6957 12.9165
    endloop
  endfacet
  facet normal 0 0.946932 0.321435
    outer loop
      vertex 21.85 -20.6957 12.9165
      vertex 25.85 -20.3572 11.9194
      vertex 21.85 -20.3572 11.9194
    endloop
  endfacet
  facet normal 0 0.980785 0.195093
    outer loop
      vertex 25.85 -20.6957 12.9165
      vertex 21.85 -20.9011 13.9493
      vertex 25.85 -20.9011 13.9493
    endloop
  endfacet
  facet normal 0 0.980785 0.195093
    outer loop
      vertex 21.85 -20.9011 13.9493
      vertex 25.85 -20.6957 12.9165
      vertex 21.85 -20.6957 12.9165
    endloop
  endfacet
  facet normal 0 0.831472 0.555566
    outer loop
      vertex 25.85 -19.3065 10.0995
      vertex 21.85 -19.8915 10.975
      vertex 25.85 -19.8915 10.975
    endloop
  endfacet
  facet normal 0 0.831472 0.555566
    outer loop
      vertex 21.85 -19.8915 10.975
      vertex 25.85 -19.3065 10.0995
      vertex 21.85 -19.3065 10.0995
    endloop
  endfacet
  facet normal 0 0.751834 0.659353
    outer loop
      vertex 25.85 -18.6122 9.3078
      vertex 21.85 -19.3065 10.0995
      vertex 25.85 -19.3065 10.0995
    endloop
  endfacet
  facet normal 0 0.751834 0.659353
    outer loop
      vertex 21.85 -19.3065 10.0995
      vertex 25.85 -18.6122 9.3078
      vertex 21.85 -18.6122 9.3078
    endloop
  endfacet
  facet normal -0 0.555566 0.831472
    outer loop
      vertex 21.85 -16.945 8.0285
      vertex 25.85 -17.8205 8.61351
      vertex 25.85 -16.945 8.0285
    endloop
  endfacet
  facet normal 0 0.555566 0.831472
    outer loop
      vertex 25.85 -17.8205 8.61351
      vertex 21.85 -16.945 8.0285
      vertex 21.85 -17.8205 8.61351
    endloop
  endfacet
  facet normal -0 0.659353 0.751834
    outer loop
      vertex 21.85 -17.8205 8.61351
      vertex 25.85 -18.6122 9.3078
      vertex 25.85 -17.8205 8.61351
    endloop
  endfacet
  facet normal 0 0.659353 0.751834
    outer loop
      vertex 25.85 -18.6122 9.3078
      vertex 21.85 -17.8205 8.61351
      vertex 21.85 -18.6122 9.3078
    endloop
  endfacet
  facet normal -0 0.32144 0.94693
    outer loop
      vertex 21.85 -15.0035 7.2243
      vertex 25.85 -16.0006 7.56277
      vertex 25.85 -15.0035 7.2243
    endloop
  endfacet
  facet normal 0 0.32144 0.94693
    outer loop
      vertex 25.85 -16.0006 7.56277
      vertex 21.85 -15.0035 7.2243
      vertex 21.85 -16.0006 7.56277
    endloop
  endfacet
  facet normal 0 -0.195093 0.980785
    outer loop
      vertex 21.85 15.0035 7.2243
      vertex 25.85 13.9707 7.01888
      vertex 25.85 15.0035 7.2243
    endloop
  endfacet
  facet normal 0 -0.195093 0.980785
    outer loop
      vertex 25.85 13.9707 7.01888
      vertex 21.85 15.0035 7.2243
      vertex 21.85 13.9707 7.01888
    endloop
  endfacet
  facet normal 0 -0.321435 0.946932
    outer loop
      vertex 21.85 16.0006 7.56277
      vertex 25.85 15.0035 7.2243
      vertex 25.85 16.0006 7.56277
    endloop
  endfacet
  facet normal 0 -0.321435 0.946932
    outer loop
      vertex 25.85 15.0035 7.2243
      vertex 21.85 16.0006 7.56277
      vertex 21.85 15.0035 7.2243
    endloop
  endfacet
  facet normal 0 -0.555566 0.831472
    outer loop
      vertex 21.85 17.8205 8.61351
      vertex 25.85 16.945 8.0285
      vertex 25.85 17.8205 8.61351
    endloop
  endfacet
  facet normal 0 -0.555566 0.831472
    outer loop
      vertex 25.85 16.945 8.0285
      vertex 21.85 17.8205 8.61351
      vertex 21.85 16.945 8.0285
    endloop
  endfacet
  facet normal 0 -0.831472 0.555566
    outer loop
      vertex 21.85 19.3065 10.0995
      vertex 25.85 19.8915 10.975
      vertex 21.85 19.8915 10.975
    endloop
  endfacet
  facet normal 0 -0.831472 0.555566
    outer loop
      vertex 25.85 19.8915 10.975
      vertex 21.85 19.3065 10.0995
      vertex 25.85 19.3065 10.0995
    endloop
  endfacet
  facet normal 0 -0.896871 0.442292
    outer loop
      vertex 21.85 19.8915 10.975
      vertex 25.85 20.3572 11.9194
      vertex 21.85 20.3572 11.9194
    endloop
  endfacet
  facet normal 0 -0.896871 0.442292
    outer loop
      vertex 25.85 20.3572 11.9194
      vertex 21.85 19.8915 10.975
      vertex 25.85 19.8915 10.975
    endloop
  endfacet
  facet normal 0 -0.980785 0.195093
    outer loop
      vertex 21.85 20.6957 12.9165
      vertex 25.85 20.9011 13.9493
      vertex 21.85 20.9011 13.9493
    endloop
  endfacet
  facet normal 0 -0.980785 0.195093
    outer loop
      vertex 25.85 20.9011 13.9493
      vertex 21.85 20.6957 12.9165
      vertex 25.85 20.6957 12.9165
    endloop
  endfacet
  facet normal 0 0.997858 -0.065412
    outer loop
      vertex 25.85 -20.97 15
      vertex 21.85 -20.9011 16.0507
      vertex 25.85 -20.9011 16.0507
    endloop
  endfacet
  facet normal 0 0.997858 -0.065412
    outer loop
      vertex 21.85 -20.9011 16.0507
      vertex 25.85 -20.97 15
      vertex 21.85 -20.97 15
    endloop
  endfacet
  facet normal 0 1 -0
    outer loop
      vertex 25.85 24.65 0
      vertex 18 24.65 17
      vertex 25.85 24.65 17
    endloop
  endfacet
  facet normal 0 1 0
    outer loop
      vertex 18 24.65 17
      vertex 25.85 24.65 0
      vertex 18 24.65 0
    endloop
  endfacet
  facet normal 0 0 1
    outer loop
      vertex 25.85 24.65 17
      vertex 21.85 22.65 17
      vertex 25.85 20.7123 17
    endloop
  endfacet
  facet normal -0 0 1
    outer loop
      vertex 18 24.65 17
      vertex 21.85 22.65 17
      vertex 25.85 24.65 17
    endloop
  endfacet
  facet normal 0 0 1
    outer loop
      vertex 21.85 22.65 17
      vertex 18 24.65 17
      vertex 20 22.65 17
    endloop
  endfacet
  facet normal 0 0 1
    outer loop
      vertex 18 20.95 17
      vertex 20 22.65 17
      vertex 18 24.65 17
    endloop
  endfacet
  facet normal 0 0 1
    outer loop
      vertex 20 22.65 17
      vertex 18 20.95 17
      vertex 20 20.95 17
    endloop
  endfacet
  facet normal 0 0 1
    outer loop
      vertex 25.85 20.7123 17
      vertex 21.85 22.65 17
      vertex 21.85 20.7123 17
    endloop
  endfacet
  facet normal 0 0 1
    outer loop
      vertex 20 -22.45 17
      vertex 18 -22.45 17
      vertex 20 -22.65 17
    endloop
  endfacet
  facet normal 0 0 1
    outer loop
      vertex 21.85 -22.65 17
      vertex 25.85 -20.7123 17
      vertex 21.85 -20.7123 17
    endloop
  endfacet
  facet normal 0 0 1
    outer loop
      vertex 25.85 -20.7123 17
      vertex 21.85 -22.65 17
      vertex 25.85 -24.65 17
    endloop
  endfacet
  facet normal 0 0 1
    outer loop
      vertex 18 -24.65 17
      vertex 21.85 -22.65 17
      vertex 20 -22.65 17
    endloop
  endfacet
  facet normal 0 0 1
    outer loop
      vertex 18 -24.65 17
      vertex 20 -22.65 17
      vertex 18 -22.45 17
    endloop
  endfacet
  facet normal 0 0 1
    outer loop
      vertex 21.85 -22.65 17
      vertex 18 -24.65 17
      vertex 25.85 -24.65 17
    endloop
  endfacet
  facet normal 0 -1 0
    outer loop
      vertex 18 -24.65 0
      vertex 25.85 -24.65 17
      vertex 18 -24.65 17
    endloop
  endfacet
  facet normal 0 -1 -0
    outer loop
      vertex 25.85 -24.65 17
      vertex 18 -24.65 0
      vertex 25.85 -24.65 0
    endloop
  endfacet
  facet normal -1 0 0
    outer loop
      vertex 18 -5 0
      vertex 18 -22.45 6
      vertex 18 -5 4.5
    endloop
  endfacet
  facet normal -1 0 0
    outer loop
      vertex 18 -24.65 0
      vertex 18 -22.45 6
      vertex 18 -5 0
    endloop
  endfacet
  facet normal -1 0 0
    outer loop
      vertex 18 -24.65 17
      vertex 18 -22.45 6
      vertex 18 -24.65 0
    endloop
  endfacet
  facet normal -1 0 0
    outer loop
      vertex 18 -22.45 6
      vertex 18 -24.65 17
      vertex 18 -22.45 17
    endloop
  endfacet
  facet normal -1 0 0
    outer loop
      vertex 18 24.65 0
      vertex 18 20.95 6
      vertex 18 24.65 17
    endloop
  endfacet
  facet normal -1 0 0
    outer loop
      vertex 18 5 0
      vertex 18 20.95 6
      vertex 18 24.65 0
    endloop
  endfacet
  facet normal -1 0 0
    outer loop
      vertex 18 5 4.5
      vertex 18 20.95 6
      vertex 18 5 0
    endloop
  endfacet
  facet normal -1 0 0
    outer loop
      vertex 18 -5 4.5
      vertex 18 20.95 6
      vertex 18 5 4.5
    endloop
  endfacet
  facet normal -1 -0 0
    outer loop
      vertex 18 20.95 6
      vertex 18 -5 4.5
      vertex 18 -22.45 6
    endloop
  endfacet
  facet normal -1 -0 0
    outer loop
      vertex 18 24.65 17
      vertex 18 20.95 6
      vertex 18 20.95 17
    endloop
  endfacet
  facet normal 1 0 0
    outer loop
      vertex 25.85 -20.9011 16.0507
      vertex 25.85 -24.65 17
      vertex 25.85 -20.97 15
    endloop
  endfacet
  facet normal 1 -0 0
    outer loop
      vertex 25.85 -24.65 17
      vertex 25.85 -20.9011 16.0507
      vertex 25.85 -20.7123 17
    endloop
  endfacet
  facet normal 1 0 0
    outer loop
      vertex 25.85 20.9011 13.9493
      vertex 25.85 24.65 17
      vertex 25.85 20.97 15
    endloop
  endfacet
  facet normal 1 0 0
    outer loop
      vertex 25.85 24.65 17
      vertex 25.85 20.9011 16.0507
      vertex 25.85 20.97 15
    endloop
  endfacet
  facet normal 1 0 -0
    outer loop
      vertex 25.85 20.9011 16.0507
      vertex 25.85 24.65 17
      vertex 25.85 20.7123 17
    endloop
  endfacet
  facet normal 1 0 0
    outer loop
      vertex 25.85 20.6957 12.9165
      vertex 25.85 24.65 17
      vertex 25.85 20.9011 13.9493
    endloop
  endfacet
  facet normal 1 0 0
    outer loop
      vertex 25.85 20.3572 11.9194
      vertex 25.85 24.65 17
      vertex 25.85 20.6957 12.9165
    endloop
  endfacet
  facet normal 1 0 0
    outer loop
      vertex 25.85 24.65 17
      vertex 25.85 20.3572 11.9194
      vertex 25.85 24.65 0
    endloop
  endfacet
  facet normal 1 -0 0
    outer loop
      vertex 25.85 19.8915 10.975
      vertex 25.85 24.65 0
      vertex 25.85 20.3572 11.9194
    endloop
  endfacet
  facet normal 1 -0 0
    outer loop
      vertex 25.85 19.3065 10.0995
      vertex 25.85 24.65 0
      vertex 25.85 19.8915 10.975
    endloop
  endfacet
  facet normal 1 -0 0
    outer loop
      vertex 25.85 18.6122 9.3078
      vertex 25.85 24.65 0
      vertex 25.85 19.3065 10.0995
    endloop
  endfacet
  facet normal 1 -0 0
    outer loop
      vertex 25.85 17.8205 8.61351
      vertex 25.85 24.65 0
      vertex 25.85 18.6122 9.3078
    endloop
  endfacet
  facet normal 1 -0 0
    outer loop
      vertex 25.85 16.945 8.0285
      vertex 25.85 24.65 0
      vertex 25.85 17.8205 8.61351
    endloop
  endfacet
  facet normal 1 -0 0
    outer loop
      vertex 25.85 16.0006 7.56277
      vertex 25.85 24.65 0
      vertex 25.85 16.945 8.0285
    endloop
  endfacet
  facet normal 1 -0 0
    outer loop
      vertex 25.85 15.0035 7.2243
      vertex 25.85 24.65 0
      vertex 25.85 16.0006 7.56277
    endloop
  endfacet
  facet normal 1 -0 0
    outer loop
      vertex 25.85 13.9707 7.01888
      vertex 25.85 24.65 0
      vertex 25.85 15.0035 7.2243
    endloop
  endfacet
  facet normal 1 1.53817e-07 2.34033e-07
    outer loop
      vertex 25.85 3.47841 5.76498
      vertex 25.85 24.65 0
      vertex 25.85 13.9707 7.01888
    endloop
  endfacet
  facet normal 1 1.74907e-08 -2.66617e-07
    outer loop
      vertex 25.85 3.25 5.75
      vertex 25.85 24.65 0
      vertex 25.85 3.47841 5.76498
    endloop
  endfacet
  facet normal 1 0 -3.31713e-07
    outer loop
      vertex 25.85 -3.25 5.75
      vertex 25.85 24.65 0
      vertex 25.85 3.25 5.75
    endloop
  endfacet
  facet normal 1 0 0
    outer loop
      vertex 25.85 -24.65 0
      vertex 25.85 -3.25 5.75
      vertex 25.85 -3.47841 5.76498
    endloop
  endfacet
  facet normal 1 0 0
    outer loop
      vertex 25.85 -24.65 0
      vertex 25.85 -3.47841 5.76498
      vertex 25.85 -13.9707 7.01888
    endloop
  endfacet
  facet normal 1 0 0
    outer loop
      vertex 25.85 -24.65 17
      vertex 25.85 -20.9011 13.9493
      vertex 25.85 -20.97 15
    endloop
  endfacet
  facet normal 1 0 0
    outer loop
      vertex 25.85 -24.65 17
      vertex 25.85 -20.6957 12.9165
      vertex 25.85 -20.9011 13.9493
    endloop
  endfacet
  facet normal 1 0 0
    outer loop
      vertex 25.85 -24.65 17
      vertex 25.85 -20.3572 11.9194
      vertex 25.85 -20.6957 12.9165
    endloop
  endfacet
  facet normal 1 0 0
    outer loop
      vertex 25.85 -24.65 0
      vertex 25.85 -20.3572 11.9194
      vertex 25.85 -24.65 17
    endloop
  endfacet
  facet normal 1 0 0
    outer loop
      vertex 25.85 -20.3572 11.9194
      vertex 25.85 -24.65 0
      vertex 25.85 -19.8915 10.975
    endloop
  endfacet
  facet normal 1 3.86886e-08 -1.43989e-07
    outer loop
      vertex 25.85 -3.25 5.75
      vertex 25.85 -24.65 0
      vertex 25.85 24.65 0
    endloop
  endfacet
  facet normal 1 0 0
    outer loop
      vertex 25.85 -15.0035 7.2243
      vertex 25.85 -24.65 0
      vertex 25.85 -13.9707 7.01888
    endloop
  endfacet
  facet normal 1 0 0
    outer loop
      vertex 25.85 -16.0006 7.56277
      vertex 25.85 -24.65 0
      vertex 25.85 -15.0035 7.2243
    endloop
  endfacet
  facet normal 1 0 0
    outer loop
      vertex 25.85 -16.945 8.0285
      vertex 25.85 -24.65 0
      vertex 25.85 -16.0006 7.56277
    endloop
  endfacet
  facet normal 1 0 0
    outer loop
      vertex 25.85 -17.8205 8.61351
      vertex 25.85 -24.65 0
      vertex 25.85 -16.945 8.0285
    endloop
  endfacet
  facet normal 1 0 0
    outer loop
      vertex 25.85 -18.6122 9.3078
      vertex 25.85 -24.65 0
      vertex 25.85 -17.8205 8.61351
    endloop
  endfacet
  facet normal 1 0 0
    outer loop
      vertex 25.85 -19.3065 10.0995
      vertex 25.85 -24.65 0
      vertex 25.85 -18.6122 9.3078
    endloop
  endfacet
  facet normal 1 0 0
    outer loop
      vertex 25.85 -19.8915 10.975
      vertex 25.85 -24.65 0
      vertex 25.85 -19.3065 10.0995
    endloop
  endfacet
endsolid OpenSCAD_Model
